<?xml version="1.0" encoding="UTF-8" standalone="no"?><!DOCTYPE svg PUBLIC "-//W3C//DTD SVG 1.1//EN" "http://www.w3.org/Graphics/SVG/1.1/DTD/svg11.dtd"><svg width="100%" height="100%" viewBox="0 0 90 42" version="1.1" xmlns="http://www.w3.org/2000/svg" xmlns:xlink="http://www.w3.org/1999/xlink" xml:space="preserve" xmlns:serif="http://www.serif.com/" style="fill-rule:evenodd;clip-rule:evenodd;stroke-linejoin:round;stroke-miterlimit:1.41421;"><text x="39.49px" y="41.009px" style="font-family:'Roboto-Black', 'Roboto';font-weight:900;font-size:44px;fill:#fff;">4<tspan x="63.21px " y="41.009px ">B</tspan></text><g><path d="M17.797,0l0.045,0.001l0.045,0.001l0.044,0.001l0.045,0.001l0.045,0.002l0.045,0.002l0.045,0.002l0.045,0.003l0.046,0.003l0.045,0.003l0.045,0.003l0.045,0.004l0.045,0.004l0.046,0.004l0.045,0.005l0.046,0.005l0.045,0.005l0.045,0.005l0.045,0.006l0.045,0.006l0.045,0.006l0.045,0.007l0.044,0.007l0.045,0.007l0.044,0.007l0.044,0.008l0.045,0.008l0.044,0.008l0.044,0.008l0.044,0.009l0.044,0.009l0.043,0.009l0.044,0.01l0.043,0.01l0.044,0.01l0.043,0.01l0.043,0.01l0.043,0.011l0.043,0.011l0.043,0.012l0.042,0.011l0.043,0.012l0.042,0.012l0.043,0.013l0.042,0.012l0.042,0.013l0.042,0.013l0.042,0.014l0.042,0.013l0.041,0.014l0.042,0.014l0.041,0.015l0.041,0.014l0.041,0.015l0.041,0.015l0.041,0.016l0.041,0.015l0.04,0.016l0.041,0.016l0.04,0.016l0.04,0.017l0.04,0.017l0.04,0.017l0.04,0.017l0.04,0.017l0.039,0.018l0.04,0.018l0.039,0.018l0.039,0.019l0.039,0.018l0.039,0.019l0.038,0.019l0.039,0.02l0.038,0.019l0.039,0.02l0.038,0.02l0.038,0.02l0.038,0.021l0.037,0.02l0.038,0.021l0.037,0.021l0.037,0.022l0.038,0.021l0.036,0.022l0.037,0.022l0.037,0.022l0.036,0.022l0.037,0.023l0.036,0.023l0.036,0.023l0.036,0.023l0.036,0.024l0.035,0.023l0.036,0.024l0.035,0.024l0.035,0.024l0.035,0.025l0.035,0.025l0.034,0.024l0.035,0.025l0.034,0.026l0.034,0.025l0.034,0.026l0.034,0.026l0.033,0.026l0.034,0.026l0.033,0.027l0.033,0.026l0.033,0.027l0.033,0.027l0.033,0.027l0.032,0.028l0.032,0.027l0.033,0.028l0.031,0.028l0.032,0.028l0.032,0.029l0.031,0.028l0.031,0.029l0.031,0.029l0.031,0.029l0.031,0.029l0.031,0.03l0.03,0.029l0.03,0.03l0.03,0.03l0.03,0.03l0.029,0.03l0.03,0.031l0.029,0.03l0.029,0.031l0.029,0.031l0.029,0.031l0.028,0.032l0.028,0.031l0.029,0.032l0.027,0.032l0.028,0.032l0.028,0.032l0.027,0.032l0.027,0.033l0.027,0.032l0.027,0.033l0.026,0.033l0.027,0.033l0.026,0.034l0.026,0.033l0.026,0.034l0.025,0.033l0.026,0.034l0.025,0.034l0.025,0.035l0.025,0.034l0.024,0.034l0.025,0.035l0.024,0.035l0.024,0.035l0.023,0.035l0.024,0.035l0.023,0.036l0.023,0.035l0.023,0.036l0.023,0.036l0.022,0.035l0.023,0.037l0.022,0.036l0.022,0.036l0.021,0.037l0.022,0.036l0.021,0.037l0.021,0.037l0.021,0.037l0.02,0.037l0.02,0.037l0.021,0.038l0.019,0.037l0.02,0.038l0.02,0.038l0.019,0.038l0.019,0.038l0.019,0.038l0.018,0.038l0.018,0.039l0.019,0.038l0.017,0.039l0.018,0.039l0.017,0.039l0.018,0.039l0.017,0.039l0.016,0.039l0.017,0.039l0.016,0.04l0.016,0.039l0.016,0.04l0.015,0.04l0.016,0.04l0.015,0.04l0.015,0.04l0.014,0.04l0.015,0.04l0.014,0.041l0.014,0.04l0.013,0.041l0.014,0.041l0.013,0.041l0.013,0.041l0.012,0.041l0.013,0.041l0.012,0.041l0.012,0.041l0.012,0.042l0.011,0.041l0.011,0.042l0.011,0.042l0.011,0.041l0.01,0.042l0.01,0.042l0.01,0.042l0.01,0.043l0.009,0.042l0.01,0.042l0.008,0.043l0.009,0.042l0.008,0.043l0.009,0.042l0.007,0.043l0.008,0.043l0.007,0.043l0.008,0.043l0.006,0.043l0.007,0.043l0.006,0.043l0.006,0.043l0.006,0.044l0.005,0.043l0.006,0.044l0.005,0.043l0.004,0.044l0.005,0.044l0.004,0.043l0.004,0.044l0.003,0.044l0.004,0.044l0.003,0.044l0.003,0.044l0.002,0.044l0.002,0.044l0.002,0.045l0.002,0.044l0.002,0.044l0.001,0.045l0.001,0.044l0,0.045l0,0.045l0,0.044l0,0.045l0,0.045l-0.001,0.044l-0.001,0.045l-0.002,0.045l-0.001,0.045l-0.002,0.045l-0.003,0.045l-0.002,0.045l-0.003,0.046l-0.003,0.045l-0.004,0.045l-0.003,0.045l-0.004,0.045l-0.005,0.046l-0.004,0.045l-0.005,0.046l-0.006,0.046l-0.007,0.047l-0.007,0.047l-0.008,0.047l-0.008,0.048l-0.009,0.049l-0.01,0.049l-0.01,0.049l-0.012,0.05l-0.011,0.05l-0.013,0.051l-0.013,0.051l-0.013,0.052l-0.014,0.052l-0.015,0.052l-0.016,0.053l-0.016,0.054l-0.016,0.053l-0.017,0.054l-0.018,0.055l-0.019,0.055l-0.019,0.055l-0.019,0.055l-0.02,0.056l-0.021,0.057l-0.021,0.056l-0.022,0.057l-0.022,0.058l-0.023,0.058l-0.023,0.058l-0.024,0.058l-0.024,0.059l-0.025,0.059l-0.025,0.059l-0.026,0.06l-0.027,0.06l-0.026,0.06l-0.028,0.061l-0.027,0.061l-0.029,0.061l-0.028,0.061l-0.03,0.062l-0.029,0.062l-0.03,0.062l-0.031,0.063l-0.031,0.063l-0.031,0.063l-0.032,0.063l-0.032,0.063l-0.033,0.064l-0.033,0.064l-0.034,0.064l-0.033,0.065l-0.035,0.064l-0.034,0.065l-0.035,0.065l-0.036,0.065l-0.036,0.066l-0.036,0.065l-0.036,0.066l-0.037,0.066l-0.037,0.066l-0.038,0.067l-0.038,0.066l-0.038,0.067l-0.039,0.066l-0.038,0.067l-0.04,0.067l-0.039,0.067l-0.04,0.068l-0.04,0.067l-0.04,0.068l-0.041,0.067l-0.041,0.068l-0.041,0.068l-0.084,0.136l-0.084,0.136l-0.085,0.137l-0.086,0.137l-0.088,0.137l-0.088,0.137l-0.088,0.138l-0.09,0.137l-0.09,0.138l-0.091,0.137l-0.092,0.138l-0.092,0.137l-0.093,0.137l-0.093,0.138l-0.094,0.137l-0.094,0.136l-0.095,0.137l-0.095,0.136l-0.095,0.136l-0.095,0.135l-0.096,0.135l-0.096,0.134l-0.095,0.134l-0.096,0.133l-0.096,0.133l-0.096,0.132l-0.096,0.131l-0.096,0.13l-0.095,0.13l-0.096,0.129l-0.095,0.128l-0.094,0.127l-0.095,0.126l-0.094,0.125l-0.093,0.124l-0.094,0.123l-0.092,0.122l-0.092,0.121l-0.092,0.119l-0.091,0.118l-0.09,0.117l-0.089,0.116l-0.089,0.114l-0.087,0.112l-0.087,0.112l-0.086,0.11l-0.085,0.108l-0.084,0.106l-0.083,0.105l-0.082,0.104l-0.16,0.201l-0.155,0.194l-0.15,0.187l-0.145,0.179l-0.138,0.17l-0.132,0.162l-0.125,0.153l-0.118,0.144l-0.111,0.134l-0.103,0.125l-0.095,0.114l-0.087,0.103l-0.077,0.093l-0.069,0.081l-0.108,0.128l-0.066,0.078l-0.023,0.027l-0.018,-0.031l-0.05,-0.091l-0.082,-0.147l-0.051,-0.094l-0.059,-0.107l-0.065,-0.119l-0.071,-0.132l-0.078,-0.143l-0.083,-0.155l-0.088,-0.165l-0.094,-0.176l-0.099,-0.186l-0.103,-0.196l-0.107,-0.205l-0.112,-0.214l-0.115,-0.222l-0.118,-0.231l-0.061,-0.118l-0.061,-0.12l-0.062,-0.122l-0.063,-0.124l-0.063,-0.125l-0.064,-0.127l-0.064,-0.129l-0.065,-0.13l-0.066,-0.132l-0.066,-0.133l-0.066,-0.134l-0.067,-0.136l-0.067,-0.138l-0.067,-0.138l-0.068,-0.14l-0.068,-0.141l-0.068,-0.142l-0.069,-0.143l-0.068,-0.144l-0.069,-0.145l-0.069,-0.146l-0.068,-0.147l-0.069,-0.148l-0.069,-0.148l-0.068,-0.149l-0.069,-0.15l-0.068,-0.151l-0.068,-0.151l-0.068,-0.151l-0.068,-0.152l-0.067,-0.152l-0.067,-0.153l-0.067,-0.153l-0.066,-0.153l-0.066,-0.154l-0.066,-0.153l-0.065,-0.154l-0.064,-0.154l-0.064,-0.154l-0.063,-0.153l-0.063,-0.154l-0.061,-0.153l-0.062,-0.154l-0.06,-0.153l-0.059,-0.152l-0.059,-0.153l-0.058,-0.152l-0.057,-0.151l-0.056,-0.151l-0.028,-0.076l-0.027,-0.075l-0.027,-0.075l-0.027,-0.075l-0.027,-0.074l-0.026,-0.075l-0.027,-0.074l-0.025,-0.074l-0.026,-0.074l-0.025,-0.074l-0.025,-0.074l-0.025,-0.073l-0.024,-0.073l-0.025,-0.073l-0.023,-0.073l-0.024,-0.072l-0.023,-0.072l-0.023,-0.072l-0.022,-0.072l-0.023,-0.072l-0.022,-0.071l-0.021,-0.071l-0.021,-0.07l-0.021,-0.071l-0.021,-0.07l-0.02,-0.07l-0.02,-0.069l-0.019,-0.069l-0.019,-0.069l-0.019,-0.069l-0.018,-0.068l-0.018,-0.068l-0.018,-0.068l-0.017,-0.067l-0.016,-0.067l-0.017,-0.066l-0.016,-0.066l-0.015,-0.066l-0.016,-0.065l-0.014,-0.065l-0.015,-0.065l-0.013,-0.064l-0.014,-0.064l-0.013,-0.063l-0.012,-0.063l-0.013,-0.063l-0.011,-0.062l-0.011,-0.062l-0.011,-0.061l-0.011,-0.061l-0.009,-0.06l-0.01,-0.06l-0.009,-0.059l-0.008,-0.059l-0.008,-0.059l-0.007,-0.058l-0.007,-0.057l-0.007,-0.057l-0.006,-0.057l-0.005,-0.056l-0.005,-0.055l-0.004,-0.055l-0.004,-0.054l-0.004,-0.054l-0.003,-0.054l-0.002,-0.052l-0.002,-0.053l-0.001,-0.051l-0.001,-0.051l0,-0.051l0.001,-0.05l0.001,-0.049l0.001,-0.049l0.002,-0.048l0.003,-0.048l0.003,-0.047l0.004,-0.046l0.005,-0.046l0.005,-0.045l0.005,-0.045l0.005,-0.045l0.006,-0.046l0.006,-0.044l0.006,-0.045l0.007,-0.045l0.007,-0.045l0.007,-0.044l0.007,-0.045l0.008,-0.044l0.008,-0.044l0.008,-0.044l0.008,-0.044l0.009,-0.044l0.009,-0.044l0.009,-0.044l0.01,-0.043l0.01,-0.044l0.01,-0.043l0.01,-0.043l0.01,-0.044l0.011,-0.043l0.011,-0.043l0.012,-0.042l0.011,-0.043l0.012,-0.043l0.012,-0.042l0.013,-0.042l0.012,-0.042l0.013,-0.043l0.013,-0.042l0.014,-0.041l0.013,-0.042l0.014,-0.042l0.014,-0.041l0.015,-0.041l0.014,-0.042l0.015,-0.041l0.015,-0.041l0.016,-0.041l0.015,-0.04l0.016,-0.041l0.016,-0.04l0.016,-0.041l0.017,-0.04l0.017,-0.04l0.017,-0.04l0.017,-0.04l0.017,-0.039l0.018,-0.04l0.018,-0.039l0.018,-0.039l0.019,-0.04l0.018,-0.038l0.019,-0.039l0.019,-0.039l0.02,-0.039l0.019,-0.038l0.02,-0.038l0.02,-0.038l0.02,-0.038l0.021,-0.038l0.02,-0.038l0.021,-0.037l0.021,-0.038l0.022,-0.037l0.021,-0.037l0.022,-0.037l0.022,-0.037l0.022,-0.036l0.022,-0.037l0.023,-0.036l0.023,-0.036l0.023,-0.037l0.023,-0.035l0.024,-0.036l0.023,-0.036l0.024,-0.035l0.024,-0.035l0.024,-0.035l0.025,-0.035l0.025,-0.035l0.024,-0.035l0.025,-0.034l0.026,-0.035l0.025,-0.034l0.026,-0.034l0.026,-0.033l0.026,-0.034l0.026,-0.033l0.027,-0.034l0.026,-0.033l0.027,-0.033l0.027,-0.033l0.027,-0.032l0.028,-0.033l0.027,-0.032l0.028,-0.032l0.028,-0.032l0.028,-0.032l0.029,-0.031l0.028,-0.032l0.029,-0.031l0.029,-0.031l0.029,-0.031l0.029,-0.031l0.03,-0.03l0.029,-0.03l0.03,-0.031l0.03,-0.03l0.03,-0.029l0.03,-0.03l0.031,-0.029l0.03,-0.03l0.031,-0.029l0.031,-0.029l0.031,-0.028l0.032,-0.029l0.031,-0.028l0.032,-0.028l0.032,-0.028l0.032,-0.028l0.032,-0.027l0.032,-0.028l0.033,-0.027l0.032,-0.027l0.033,-0.026l0.033,-0.027l0.033,-0.026l0.034,-0.027l0.033,-0.026l0.034,-0.025l0.033,-0.026l0.034,-0.025l0.034,-0.025l0.035,-0.025l0.034,-0.025l0.034,-0.025l0.035,-0.024l0.035,-0.024l0.035,-0.024l0.035,-0.024l0.035,-0.023l0.036,-0.024l0.035,-0.023l0.036,-0.023l0.036,-0.023l0.035,-0.022l0.037,-0.022l0.036,-0.022l0.036,-0.022l0.037,-0.022l0.036,-0.021l0.037,-0.021l0.037,-0.021l0.037,-0.021l0.037,-0.021l0.037,-0.02l0.038,-0.02l0.037,-0.02l0.038,-0.02l0.038,-0.019l0.038,-0.019l0.038,-0.019l0.038,-0.019l0.038,-0.019l0.039,-0.018l0.038,-0.018l0.039,-0.018l0.039,-0.018l0.039,-0.017l0.039,-0.017l0.039,-0.017l0.039,-0.017l0.039,-0.016l0.04,-0.017l0.039,-0.016l0.04,-0.015l0.04,-0.016l0.04,-0.015l0.04,-0.015l0.04,-0.015l0.04,-0.015l0.04,-0.014l0.041,-0.014l0.04,-0.014l0.041,-0.014l0.041,-0.013l0.041,-0.013l0.041,-0.013l0.041,-0.013l0.041,-0.012l0.041,-0.012l0.041,-0.012l0.042,-0.012l0.041,-0.012l0.042,-0.011l0.042,-0.011l0.041,-0.01l0.042,-0.011l0.042,-0.01l0.042,-0.01l0.043,-0.01l0.042,-0.009l0.042,-0.009l0.043,-0.009l0.042,-0.009l0.043,-0.008l0.042,-0.008l0.043,-0.008l0.043,-0.008l0.043,-0.007l0.043,-0.007l0.043,-0.007l0.043,-0.006l0.043,-0.007l0.043,-0.006l0.044,-0.006l0.043,-0.005l0.044,-0.005l0.043,-0.005l0.044,-0.005l0.044,-0.004l0.043,-0.005l0.044,-0.003l0.044,-0.004l0.044,-0.003l0.044,-0.003l0.044,-0.003l0.044,-0.003l0.044,-0.002l0.045,-0.002l0.044,-0.002l0.044,-0.001l0.045,-0.001l0.044,-0.001l0.045,-0.001l0.045,0l0.044,0l0.045,0Zm-0.083,1.8l-0.034,0l-0.033,0.001l-0.033,0l-0.033,0.001l-0.033,0.001l-0.033,0.001l-0.033,0.002l-0.033,0.002l-0.033,0.001l-0.033,0.003l-0.032,0.002l-0.033,0.002l-0.032,0.003l-0.033,0.003l-0.033,0.003l-0.032,0.003l-0.033,0.004l-0.032,0.003l-0.032,0.004l-0.033,0.004l-0.032,0.005l-0.032,0.004l-0.032,0.005l-0.032,0.005l-0.032,0.005l-0.032,0.005l-0.032,0.006l-0.032,0.005l-0.031,0.006l-0.032,0.006l-0.032,0.006l-0.031,0.007l-0.032,0.006l-0.031,0.007l-0.031,0.007l-0.032,0.007l-0.031,0.008l-0.031,0.007l-0.031,0.008l-0.031,0.008l-0.031,0.008l-0.031,0.008l-0.031,0.009l-0.031,0.009l-0.031,0.008l-0.03,0.009l-0.031,0.01l-0.03,0.009l-0.031,0.01l-0.03,0.01l-0.031,0.01l-0.03,0.01l-0.03,0.01l-0.03,0.01l-0.03,0.011l-0.03,0.011l-0.03,0.011l-0.029,0.011l-0.03,0.012l-0.03,0.011l-0.029,0.012l-0.03,0.012l-0.029,0.012l-0.03,0.012l-0.029,0.013l-0.029,0.012l-0.029,0.013l-0.029,0.013l-0.029,0.013l-0.029,0.013l-0.028,0.014l-0.029,0.014l-0.029,0.014l-0.028,0.013l-0.028,0.015l-0.029,0.014l-0.028,0.015l-0.028,0.014l-0.028,0.015l-0.028,0.015l-0.027,0.015l-0.028,0.015l-0.028,0.016l-0.028,0.016l-0.027,0.015l-0.027,0.016l-0.027,0.016l-0.027,0.017l-0.028,0.016l-0.026,0.017l-0.027,0.017l-0.027,0.017l-0.026,0.017l-0.027,0.017l-0.027,0.018l-0.026,0.017l-0.026,0.018l-0.026,0.017l-0.026,0.019l-0.026,0.018l-0.026,0.018l-0.025,0.019l-0.026,0.018l-0.025,0.019l-0.026,0.019l-0.025,0.019l-0.025,0.019l-0.025,0.02l-0.025,0.019l-0.025,0.02l-0.024,0.02l-0.025,0.02l-0.024,0.02l-0.024,0.02l-0.024,0.021l-0.024,0.02l-0.024,0.021l-0.024,0.021l-0.024,0.021l-0.023,0.021l-0.024,0.021l-0.023,0.022l-0.023,0.021l-0.023,0.022l-0.023,0.021l-0.023,0.023l-0.022,0.022l-0.023,0.022l-0.022,0.022l-0.023,0.023l-0.022,0.022l-0.021,0.023l-0.023,0.023l-0.021,0.023l-0.022,0.023l-0.021,0.024l-0.021,0.023l-0.021,0.023l-0.022,0.024l-0.02,0.024l-0.021,0.024l-0.021,0.024l-0.02,0.024l-0.02,0.025l-0.021,0.024l-0.02,0.025l-0.02,0.024l-0.019,0.025l-0.02,0.025l-0.019,0.025l-0.02,0.025l-0.019,0.025l-0.019,0.026l-0.019,0.026l-0.018,0.025l-0.019,0.026l-0.018,0.026l-0.018,0.026l-0.018,0.026l-0.018,0.026l-0.018,0.027l-0.018,0.026l-0.017,0.027l-0.017,0.026l-0.017,0.027l-0.018,0.027l-0.016,0.027l-0.017,0.027l-0.016,0.027l-0.017,0.028l-0.016,0.027l-0.016,0.028l-0.016,0.028l-0.016,0.028l-0.015,0.028l-0.015,0.027l-0.016,0.028l-0.015,0.029l-0.014,0.028l-0.015,0.029l-0.015,0.028l-0.014,0.029l-0.014,0.029l-0.014,0.028l-0.014,0.029l-0.014,0.029l-0.013,0.03l-0.014,0.029l-0.013,0.029l-0.013,0.03l-0.013,0.029l-0.012,0.03l-0.013,0.029l-0.012,0.03l-0.012,0.03l-0.012,0.03l-0.012,0.031l-0.011,0.03l-0.012,0.03l-0.011,0.03l-0.011,0.031l-0.011,0.031l-0.011,0.03l-0.01,0.031l-0.01,0.031l-0.011,0.031l-0.009,0.031l-0.01,0.031l-0.01,0.032l-0.009,0.031l-0.009,0.032l-0.009,0.031l-0.009,0.032l-0.009,0.032l-0.008,0.031l-0.008,0.032l-0.009,0.032l-0.007,0.032l-0.008,0.032l-0.008,0.033l-0.007,0.032l-0.007,0.033l-0.007,0.032l-0.007,0.033l-0.006,0.033l-0.006,0.032l-0.006,0.033l-0.006,0.033l-0.006,0.034l-0.006,0.033l-0.005,0.033l-0.005,0.033l-0.005,0.034l-0.005,0.033l-0.004,0.034l-0.004,0.034l-0.004,0.034l-0.004,0.033l-0.004,0.031l-0.002,0.024l-0.002,0.022l-0.001,0.023l-0.002,0.025l-0.001,0.026l-0.001,0.027l0,0.028l-0.001,0.03l0,0.03l0.001,0.033l0.001,0.033l0.001,0.034l0.001,0.035l0.002,0.037l0.003,0.037l0.002,0.039l0.004,0.039l0.003,0.041l0.004,0.041l0.005,0.042l0.005,0.044l0.005,0.044l0.006,0.045l0.006,0.046l0.006,0.046l0.008,0.048l0.007,0.048l0.008,0.049l0.009,0.05l0.008,0.051l0.01,0.051l0.01,0.052l0.01,0.052l0.01,0.054l0.011,0.054l0.012,0.054l0.012,0.055l0.012,0.056l0.013,0.057l0.013,0.057l0.014,0.058l0.014,0.058l0.014,0.058l0.015,0.06l0.016,0.06l0.015,0.06l0.016,0.061l0.017,0.061l0.017,0.062l0.017,0.062l0.017,0.063l0.018,0.063l0.019,0.064l0.019,0.064l0.019,0.064l0.019,0.065l0.02,0.065l0.02,0.066l0.021,0.066l0.02,0.066l0.022,0.067l0.021,0.067l0.022,0.068l0.022,0.067l0.023,0.068l0.023,0.069l0.023,0.069l0.023,0.069l0.024,0.069l0.024,0.07l0.024,0.069l0.025,0.07l0.025,0.071l0.025,0.07l0.026,0.071l0.025,0.071l0.026,0.072l0.026,0.07l0.054,0.145l0.054,0.144l0.056,0.145l0.056,0.146l0.057,0.146l0.058,0.147l0.058,0.147l0.06,0.147l0.06,0.148l0.061,0.148l0.061,0.149l0.063,0.148l0.062,0.149l0.064,0.149l0.064,0.148l0.064,0.149l0.065,0.148l0.065,0.149l0.065,0.148l0.066,0.147l0.066,0.148l0.067,0.147l0.066,0.146l0.067,0.146l0.067,0.146l0.067,0.145l0.067,0.144l0.067,0.143l0.067,0.143l0.067,0.142l0.067,0.141l0.067,0.14l0.067,0.139l0.066,0.138l0.067,0.136l0.066,0.136l0.066,0.135l0.065,0.133l0.065,0.132l0.065,0.13l0.064,0.13l0.064,0.127l0.063,0.127l0.062,0.124l0.063,0.123l0.061,0.122l0.061,0.119l0.06,0.118l0.059,0.115l0.109,0.213l0.135,-0.169l0.08,-0.101l0.082,-0.103l0.082,-0.105l0.084,-0.106l0.084,-0.108l0.085,-0.109l0.086,-0.111l0.087,-0.112l0.088,-0.113l0.088,-0.115l0.089,-0.115l0.09,-0.117l0.09,-0.119l0.091,-0.119l0.091,-0.12l0.091,-0.122l0.092,-0.122l0.093,-0.124l0.093,-0.124l0.092,-0.125l0.094,-0.126l0.093,-0.127l0.093,-0.127l0.094,-0.128l0.093,-0.129l0.094,-0.129l0.093,-0.13l0.094,-0.13l0.093,-0.131l0.093,-0.131l0.093,-0.132l0.092,-0.131l0.092,-0.133l0.092,-0.132l0.091,-0.132l0.091,-0.133l0.09,-0.133l0.09,-0.132l0.089,-0.133l0.088,-0.133l0.088,-0.132l0.087,-0.132l0.086,-0.132l0.085,-0.132l0.084,-0.132l0.084,-0.131l0.082,-0.131l0.081,-0.13l0.08,-0.13l0.08,-0.13l0.039,-0.063l0.038,-0.064l0.039,-0.064l0.038,-0.064l0.038,-0.064l0.037,-0.063l0.038,-0.063l0.036,-0.063l0.037,-0.063l0.036,-0.063l0.036,-0.062l0.035,-0.062l0.035,-0.062l0.035,-0.061l0.034,-0.062l0.034,-0.061l0.034,-0.061l0.033,-0.06l0.032,-0.06l0.033,-0.06l0.032,-0.06l0.031,-0.059l0.031,-0.059l0.031,-0.059l0.03,-0.058l0.029,-0.057l0.029,-0.058l0.029,-0.057l0.029,-0.057l0.027,-0.056l0.028,-0.056l0.026,-0.056l0.027,-0.055l0.026,-0.055l0.025,-0.054l0.025,-0.054l0.024,-0.053l0.024,-0.053l0.023,-0.052l0.023,-0.052l0.022,-0.051l0.022,-0.051l0.021,-0.05l0.02,-0.049l0.02,-0.049l0.02,-0.049l0.019,-0.048l0.018,-0.047l0.018,-0.046l0.017,-0.046l0.016,-0.046l0.016,-0.044l0.016,-0.044l0.015,-0.043l0.014,-0.042l0.013,-0.042l0.013,-0.041l0.013,-0.04l0.012,-0.039l0.011,-0.039l0.01,-0.037l0.01,-0.036l0.01,-0.036l0.009,-0.035l0.008,-0.034l0.007,-0.032l0.007,-0.032l0.007,-0.031l0.006,-0.029l0.005,-0.029l0.005,-0.027l0.004,-0.026l0.004,-0.025l0.003,-0.024l0.003,-0.022l0.003,-0.024l0.003,-0.031l0.003,-0.034l0.003,-0.034l0.003,-0.034l0.002,-0.034l0.003,-0.034l0.002,-0.033l0.002,-0.034l0.002,-0.033l0.001,-0.034l0.001,-0.034l0.001,-0.033l0.001,-0.034l0.001,-0.033l0,-0.034l0,-0.033l0,-0.033l0,-0.033l0,-0.033l-0.001,-0.034l-0.001,-0.033l-0.001,-0.033l-0.001,-0.033l-0.002,-0.033l-0.001,-0.033l-0.002,-0.033l-0.002,-0.032l-0.002,-0.033l-0.003,-0.033l-0.003,-0.033l-0.002,-0.032l-0.004,-0.032l-0.003,-0.033l-0.003,-0.033l-0.004,-0.032l-0.004,-0.032l-0.004,-0.033l-0.004,-0.032l-0.005,-0.032l-0.004,-0.032l-0.005,-0.032l-0.005,-0.032l-0.006,-0.032l-0.005,-0.032l-0.006,-0.031l-0.006,-0.032l-0.006,-0.032l-0.006,-0.031l-0.006,-0.032l-0.007,-0.032l-0.007,-0.031l-0.007,-0.032l-0.007,-0.031l-0.007,-0.031l-0.008,-0.031l-0.008,-0.031l-0.008,-0.031l-0.008,-0.031l-0.008,-0.031l-0.008,-0.031l-0.009,-0.031l-0.009,-0.031l-0.009,-0.03l-0.009,-0.031l-0.01,-0.03l-0.009,-0.031l-0.01,-0.03l-0.01,-0.031l-0.01,-0.03l-0.011,-0.03l-0.01,-0.03l-0.011,-0.03l-0.011,-0.03l-0.011,-0.03l-0.011,-0.03l-0.011,-0.029l-0.012,-0.03l-0.012,-0.03l-0.011,-0.029l-0.013,-0.029l-0.012,-0.03l-0.012,-0.029l-0.013,-0.029l-0.013,-0.029l-0.013,-0.029l-0.013,-0.029l-0.013,-0.029l-0.014,-0.029l-0.013,-0.028l-0.014,-0.028l-0.014,-0.029l-0.014,-0.028l-0.014,-0.028l-0.015,-0.029l-0.015,-0.028l-0.014,-0.028l-0.016,-0.028l-0.015,-0.028l-0.015,-0.027l-0.015,-0.028l-0.016,-0.027l-0.016,-0.028l-0.016,-0.027l-0.016,-0.028l-0.016,-0.026l-0.017,-0.027l-0.017,-0.028l-0.016,-0.026l-0.017,-0.027l-0.017,-0.027l-0.017,-0.026l-0.018,-0.027l-0.017,-0.026l-0.018,-0.026l-0.018,-0.026l-0.018,-0.026l-0.018,-0.026l-0.019,-0.026l-0.018,-0.025l-0.019,-0.026l-0.019,-0.026l-0.019,-0.025l-0.019,-0.025l-0.019,-0.025l-0.019,-0.025l-0.02,-0.025l-0.02,-0.025l-0.02,-0.024l-0.019,-0.025l-0.02,-0.024l-0.021,-0.024l-0.02,-0.024l-0.021,-0.025l-0.021,-0.024l-0.02,-0.023l-0.021,-0.024l-0.021,-0.023l-0.022,-0.024l-0.021,-0.023l-0.022,-0.023l-0.021,-0.023l-0.022,-0.023l-0.022,-0.023l-0.022,-0.023l-0.022,-0.022l-0.023,-0.022l-0.022,-0.023l-0.023,-0.022l-0.023,-0.022l-0.023,-0.021l-0.022,-0.022l-0.024,-0.022l-0.023,-0.021l-0.024,-0.021l-0.023,-0.022l-0.024,-0.021l-0.024,-0.02l-0.024,-0.021l-0.024,-0.021l-0.024,-0.02l-0.024,-0.021l-0.025,-0.02l-0.024,-0.02l-0.025,-0.019l-0.025,-0.02l-0.025,-0.02l-0.025,-0.019l-0.025,-0.02l-0.025,-0.019l-0.025,-0.019l-0.026,-0.018l-0.026,-0.019l-0.026,-0.019l-0.026,-0.018l-0.025,-0.018l-0.027,-0.018l-0.026,-0.018l-0.026,-0.018l-0.027,-0.018l-0.026,-0.017l-0.027,-0.017l-0.027,-0.018l-0.027,-0.016l-0.027,-0.017l-0.027,-0.017l-0.027,-0.017l-0.027,-0.016l-0.028,-0.016l-0.028,-0.016l-0.027,-0.016l-0.028,-0.016l-0.028,-0.015l-0.028,-0.016l-0.028,-0.015l-0.028,-0.015l-0.029,-0.015l-0.028,-0.014l-0.029,-0.015l-0.028,-0.014l-0.029,-0.014l-0.029,-0.014l-0.029,-0.014l-0.029,-0.014l-0.029,-0.013l-0.029,-0.014l-0.03,-0.013l-0.029,-0.013l-0.03,-0.013l-0.029,-0.012l-0.03,-0.013l-0.03,-0.012l-0.03,-0.012l-0.03,-0.012l-0.03,-0.012l-0.03,-0.011l-0.031,-0.012l-0.03,-0.011l-0.03,-0.011l-0.031,-0.011l-0.031,-0.011l-0.031,-0.01l-0.031,-0.01l-0.031,-0.01l-0.031,-0.01l-0.031,-0.01l-0.031,-0.01l-0.032,-0.009l-0.031,-0.009l-0.032,-0.009l-0.031,-0.009l-0.032,-0.009l-0.032,-0.008l-0.032,-0.009l-0.032,-0.008l-0.032,-0.007l-0.032,-0.008l-0.032,-0.008l-0.033,-0.007l-0.032,-0.007l-0.033,-0.007l-0.032,-0.007l-0.033,-0.006l-0.033,-0.006l-0.033,-0.006l-0.033,-0.006l-0.033,-0.006l-0.033,-0.006l-0.034,-0.005l-0.033,-0.005l-0.033,-0.005l-0.034,-0.005l-0.034,-0.004l-0.033,-0.004l-0.034,-0.004l-0.034,-0.004l-0.034,-0.004l-0.034,-0.003l-0.034,-0.004l-0.034,-0.003l-0.034,-0.002l-0.034,-0.003l-0.033,-0.002l-0.034,-0.002l-0.034,-0.002l-0.033,-0.002l-0.034,-0.002l-0.034,-0.001l-0.033,-0.001l-0.034,-0.001l-0.033,0l-0.034,-0.001l-0.033,0l-0.033,0Z" style="fill:#fff;"/><path d="M2.743,3.969c3.158,-2.535 7.78,-2.03 10.315,1.128c2.536,3.158 3.442,15.86 3.442,15.86c0,0 -12.35,-3.515 -14.885,-6.673c-2.536,-3.158 -2.03,-7.78 1.128,-10.315Z"/><path d="M7.387,2.355l0.044,0l0.044,0.001l0.044,0.001l0.044,0.001l0.044,0.002l0.044,0.001l0.044,0.002l0.044,0.003l0.044,0.002l0.044,0.003l0.044,0.003l0.044,0.004l0.044,0.003l0.044,0.004l0.044,0.004l0.043,0.005l0.044,0.004l0.044,0.005l0.044,0.005l0.043,0.006l0.044,0.005l0.044,0.006l0.043,0.007l0.044,0.006l0.043,0.007l0.044,0.007l0.043,0.007l0.044,0.008l0.043,0.007l0.043,0.008l0.044,0.009l0.043,0.008l0.043,0.009l0.043,0.009l0.043,0.01l0.043,0.009l0.043,0.01l0.043,0.01l0.043,0.01l0.043,0.011l0.042,0.011l0.043,0.011l0.043,0.011l0.042,0.012l0.043,0.012l0.042,0.012l0.043,0.013l0.042,0.012l0.042,0.013l0.042,0.013l0.042,0.014l0.042,0.013l0.042,0.014l0.042,0.015l0.042,0.014l0.042,0.015l0.041,0.015l0.042,0.015l0.041,0.015l0.042,0.016l0.041,0.016l0.041,0.016l0.042,0.017l0.041,0.017l0.041,0.017l0.04,0.017l0.041,0.017l0.041,0.018l0.041,0.018l0.04,0.019l0.041,0.018l0.04,0.019l0.04,0.019l0.04,0.019l0.04,0.02l0.04,0.02l0.04,0.02l0.04,0.02l0.039,0.02l0.04,0.021l0.039,0.021l0.039,0.022l0.04,0.021l0.039,0.022l0.039,0.022l0.038,0.022l0.039,0.023l0.039,0.023l0.038,0.023l0.039,0.023l0.038,0.024l0.038,0.024l0.038,0.024l0.038,0.024l0.038,0.024l0.037,0.025l0.038,0.025l0.037,0.026l0.037,0.025l0.037,0.026l0.037,0.026l0.037,0.026l0.037,0.027l0.036,0.027l0.037,0.027l0.036,0.027l0.036,0.028l0.036,0.028l0.036,0.028l0.036,0.028l0.035,0.028l0.036,0.029l0.035,0.029l0.035,0.03l0.035,0.029l0.035,0.03l0.034,0.03l0.035,0.03l0.034,0.031l0.034,0.03l0.034,0.032l0.034,0.031l0.034,0.031l0.033,0.032l0.034,0.032l0.033,0.032l0.033,0.033l0.033,0.033l0.032,0.032l0.033,0.034l0.032,0.033l0.032,0.034l0.032,0.034l0.032,0.034l0.032,0.035l0.031,0.034l0.032,0.035l0.031,0.035l0.031,0.036l0.03,0.035l0.031,0.036l0.03,0.037l0.031,0.036l0.03,0.037l0.029,0.036l0.03,0.038l0.03,0.038l0.029,0.039l0.029,0.04l0.029,0.041l0.029,0.042l0.029,0.042l0.028,0.044l0.029,0.044l0.028,0.045l0.028,0.046l0.028,0.046l0.028,0.047l0.028,0.049l0.027,0.048l0.028,0.05l0.027,0.05l0.027,0.051l0.027,0.052l0.027,0.053l0.027,0.053l0.026,0.054l0.027,0.055l0.026,0.055l0.026,0.056l0.026,0.057l0.026,0.057l0.026,0.058l0.025,0.059l0.026,0.059l0.025,0.06l0.025,0.061l0.025,0.061l0.025,0.062l0.025,0.062l0.024,0.063l0.025,0.064l0.024,0.064l0.024,0.065l0.024,0.065l0.024,0.066l0.024,0.066l0.023,0.067l0.024,0.068l0.023,0.068l0.023,0.068l0.024,0.069l0.022,0.07l0.023,0.07l0.023,0.07l0.022,0.071l0.023,0.072l0.022,0.072l0.022,0.072l0.022,0.073l0.022,0.073l0.022,0.074l0.021,0.074l0.022,0.074l0.021,0.075l0.021,0.076l0.021,0.075l0.021,0.076l0.021,0.077l0.02,0.077l0.021,0.077l0.02,0.077l0.02,0.078l0.021,0.078l0.019,0.079l0.02,0.079l0.02,0.079l0.02,0.079l0.019,0.08l0.019,0.08l0.02,0.08l0.019,0.081l0.019,0.081l0.018,0.081l0.019,0.081l0.037,0.164l0.036,0.164l0.036,0.165l0.036,0.166l0.035,0.166l0.034,0.167l0.034,0.168l0.033,0.168l0.033,0.169l0.033,0.169l0.032,0.169l0.031,0.17l0.031,0.17l0.031,0.17l0.03,0.17l0.029,0.17l0.029,0.169l0.029,0.17l0.028,0.17l0.027,0.169l0.027,0.169l0.027,0.169l0.026,0.168l0.026,0.167l0.025,0.168l0.025,0.166l0.024,0.166l0.024,0.165l0.024,0.164l0.023,0.163l0.022,0.162l0.022,0.161l0.022,0.16l0.021,0.159l0.021,0.158l0.02,0.157l0.02,0.155l0.019,0.154l0.019,0.152l0.019,0.151l0.018,0.149l0.017,0.147l0.018,0.146l0.016,0.144l0.017,0.142l0.016,0.14l0.015,0.139l0.016,0.136l0.029,0.266l0.027,0.257l0.026,0.247l0.024,0.238l0.022,0.227l0.021,0.216l0.02,0.205l0.018,0.193l0.016,0.18l0.015,0.168l0.013,0.153l0.012,0.14l0.011,0.125l0.009,0.11l0.013,0.174l0.008,0.106l0.003,0.037l-0.035,-0.01l-0.104,-0.03l-0.168,-0.049l-0.107,-0.032l-0.121,-0.036l-0.136,-0.041l-0.149,-0.045l-0.162,-0.049l-0.174,-0.053l-0.187,-0.058l-0.198,-0.061l-0.209,-0.065l-0.219,-0.07l-0.23,-0.072l-0.239,-0.077l-0.247,-0.08l-0.128,-0.041l-0.129,-0.043l-0.131,-0.043l-0.133,-0.043l-0.135,-0.045l-0.137,-0.046l-0.138,-0.046l-0.14,-0.047l-0.142,-0.048l-0.143,-0.049l-0.145,-0.049l-0.146,-0.05l-0.148,-0.051l-0.149,-0.052l-0.15,-0.052l-0.151,-0.053l-0.152,-0.054l-0.154,-0.054l-0.154,-0.055l-0.155,-0.056l-0.156,-0.056l-0.157,-0.057l-0.158,-0.058l-0.158,-0.058l-0.159,-0.059l-0.159,-0.059l-0.16,-0.06l-0.16,-0.061l-0.161,-0.061l-0.16,-0.061l-0.161,-0.063l-0.162,-0.062l-0.161,-0.063l-0.161,-0.064l-0.161,-0.064l-0.161,-0.065l-0.161,-0.065l-0.161,-0.066l-0.161,-0.066l-0.16,-0.066l-0.159,-0.067l-0.159,-0.068l-0.159,-0.067l-0.158,-0.068l-0.157,-0.069l-0.157,-0.069l-0.156,-0.069l-0.155,-0.07l-0.154,-0.069l-0.153,-0.071l-0.076,-0.035l-0.076,-0.035l-0.075,-0.036l-0.075,-0.035l-0.075,-0.036l-0.075,-0.035l-0.074,-0.036l-0.074,-0.036l-0.074,-0.035l-0.073,-0.036l-0.073,-0.036l-0.073,-0.036l-0.072,-0.036l-0.072,-0.036l-0.072,-0.037l-0.071,-0.036l-0.071,-0.036l-0.07,-0.036l-0.07,-0.037l-0.07,-0.036l-0.069,-0.037l-0.069,-0.036l-0.068,-0.037l-0.068,-0.037l-0.067,-0.036l-0.067,-0.037l-0.066,-0.037l-0.066,-0.037l-0.066,-0.036l-0.065,-0.037l-0.064,-0.037l-0.064,-0.037l-0.064,-0.037l-0.063,-0.037l-0.062,-0.037l-0.062,-0.037l-0.061,-0.038l-0.061,-0.037l-0.06,-0.037l-0.06,-0.037l-0.059,-0.037l-0.058,-0.037l-0.058,-0.038l-0.057,-0.037l-0.057,-0.037l-0.056,-0.038l-0.055,-0.037l-0.055,-0.037l-0.054,-0.038l-0.053,-0.037l-0.053,-0.037l-0.052,-0.038l-0.052,-0.037l-0.051,-0.038l-0.05,-0.037l-0.049,-0.037l-0.049,-0.038l-0.047,-0.037l-0.048,-0.037l-0.046,-0.038l-0.046,-0.037l-0.045,-0.038l-0.044,-0.037l-0.044,-0.037l-0.042,-0.038l-0.042,-0.037l-0.041,-0.037l-0.041,-0.038l-0.039,-0.037l-0.039,-0.037l-0.038,-0.037l-0.037,-0.038l-0.036,-0.037l-0.035,-0.037l-0.035,-0.037l-0.034,-0.037l-0.032,-0.038l-0.032,-0.037l-0.031,-0.037l-0.03,-0.037l-0.03,-0.037l-0.029,-0.037l-0.029,-0.037l-0.029,-0.038l-0.029,-0.037l-0.028,-0.038l-0.028,-0.038l-0.027,-0.038l-0.028,-0.038l-0.027,-0.038l-0.026,-0.039l-0.027,-0.038l-0.026,-0.039l-0.026,-0.038l-0.026,-0.039l-0.025,-0.039l-0.025,-0.039l-0.025,-0.039l-0.025,-0.04l-0.024,-0.039l-0.024,-0.039l-0.024,-0.04l-0.023,-0.04l-0.024,-0.04l-0.023,-0.039l-0.022,-0.04l-0.023,-0.041l-0.022,-0.04l-0.022,-0.04l-0.021,-0.041l-0.021,-0.04l-0.021,-0.041l-0.021,-0.04l-0.021,-0.041l-0.02,-0.041l-0.02,-0.041l-0.019,-0.041l-0.02,-0.041l-0.019,-0.041l-0.019,-0.042l-0.018,-0.041l-0.018,-0.042l-0.018,-0.041l-0.018,-0.042l-0.018,-0.041l-0.017,-0.042l-0.017,-0.042l-0.016,-0.042l-0.017,-0.042l-0.016,-0.042l-0.016,-0.042l-0.015,-0.043l-0.015,-0.042l-0.016,-0.042l-0.014,-0.043l-0.015,-0.042l-0.014,-0.043l-0.014,-0.042l-0.014,-0.043l-0.013,-0.043l-0.013,-0.043l-0.013,-0.042l-0.012,-0.043l-0.013,-0.043l-0.012,-0.043l-0.012,-0.043l-0.011,-0.043l-0.011,-0.044l-0.011,-0.043l-0.011,-0.043l-0.01,-0.043l-0.011,-0.044l-0.009,-0.043l-0.01,-0.044l-0.009,-0.043l-0.01,-0.044l-0.008,-0.043l-0.009,-0.044l-0.008,-0.043l-0.008,-0.044l-0.008,-0.044l-0.007,-0.043l-0.008,-0.044l-0.007,-0.044l-0.006,-0.044l-0.007,-0.043l-0.006,-0.044l-0.006,-0.044l-0.005,-0.044l-0.006,-0.044l-0.005,-0.044l-0.005,-0.044l-0.004,-0.044l-0.004,-0.044l-0.004,-0.044l-0.004,-0.044l-0.004,-0.044l-0.003,-0.044l-0.003,-0.044l-0.003,-0.044l-0.002,-0.044l-0.002,-0.044l-0.002,-0.044l-0.002,-0.044l-0.001,-0.044l-0.001,-0.045l-0.001,-0.044l-0.001,-0.044l0,-0.044l0,-0.044l0,-0.044l0.001,-0.044l0,-0.044l0.001,-0.044l0.002,-0.044l0.001,-0.044l0.002,-0.044l0.002,-0.044l0.002,-0.044l0.003,-0.044l0.003,-0.044l0.003,-0.044l0.003,-0.044l0.004,-0.044l0.004,-0.044l0.004,-0.043l0.004,-0.044l0.005,-0.044l0.005,-0.044l0.005,-0.043l0.005,-0.044l0.006,-0.044l0.006,-0.043l0.006,-0.044l0.007,-0.044l0.006,-0.043l0.007,-0.043l0.008,-0.044l0.007,-0.043l0.008,-0.044l0.008,-0.043l0.008,-0.043l0.009,-0.043l0.009,-0.044l0.009,-0.043l0.009,-0.043l0.01,-0.043l0.01,-0.043l0.01,-0.043l0.01,-0.043l0.011,-0.042l0.01,-0.043l0.012,-0.043l0.011,-0.042l0.012,-0.043l0.012,-0.042l0.012,-0.043l0.012,-0.042l0.013,-0.043l0.013,-0.042l0.013,-0.042l0.013,-0.042l0.014,-0.042l0.014,-0.042l0.014,-0.042l0.015,-0.042l0.014,-0.041l0.015,-0.042l0.016,-0.042l0.015,-0.041l0.016,-0.042l0.016,-0.041l0.016,-0.041l0.017,-0.041l0.016,-0.041l0.017,-0.041l0.018,-0.041l0.017,-0.041l0.018,-0.041l0.018,-0.04l0.018,-0.041l0.019,-0.04l0.018,-0.041l0.02,-0.04l0.019,-0.04l0.019,-0.04l0.02,-0.04l0.02,-0.04l0.02,-0.039l0.021,-0.04l0.021,-0.039l0.021,-0.04l0.021,-0.039l0.022,-0.039l0.022,-0.039l0.022,-0.039l0.022,-0.039l0.023,-0.039l0.022,-0.038l0.023,-0.039l0.024,-0.038l0.023,-0.039l0.024,-0.038l0.024,-0.038l0.024,-0.037l0.025,-0.038l0.025,-0.038l0.025,-0.037l0.025,-0.038l0.026,-0.037l0.026,-0.037l0.026,-0.037l0.026,-0.037l0.027,-0.036l0.026,-0.037l0.027,-0.036l0.028,-0.037l0.027,-0.036l0.028,-0.036l0.028,-0.036l0.028,-0.035l0.029,-0.036l0.029,-0.035l0.029,-0.035l0.029,-0.036l0.03,-0.035l0.029,-0.034l0.031,-0.035l0.03,-0.034l0.03,-0.035l0.031,-0.034l0.031,-0.034l0.031,-0.034l0.032,-0.033l0.032,-0.034l0.032,-0.033l0.032,-0.034l0.032,-0.033l0.033,-0.032l0.033,-0.033l0.033,-0.033l0.034,-0.032l0.033,-0.032l0.034,-0.032l0.035,-0.032l0.034,-0.032l0.035,-0.031l0.035,-0.031l0.035,-0.031l0.035,-0.031l0.036,-0.031l0.036,-0.031l0.036,-0.03l0.037,-0.03l0.036,-0.03l0.037,-0.03l0.037,-0.03l0.037,-0.029l0.038,-0.029l0.037,-0.029l0.038,-0.028l0.037,-0.028l0.038,-0.028l0.038,-0.028l0.038,-0.027l0.039,-0.027l0.038,-0.027l0.038,-0.027l0.039,-0.026l0.039,-0.026l0.039,-0.025l0.038,-0.026l0.039,-0.025l0.04,-0.025l0.039,-0.024l0.039,-0.025l0.04,-0.024l0.039,-0.024l0.04,-0.023l0.04,-0.023l0.04,-0.023l0.04,-0.023l0.04,-0.022l0.04,-0.022l0.04,-0.022l0.041,-0.022l0.04,-0.021l0.041,-0.021l0.041,-0.021l0.04,-0.02l0.041,-0.02l0.041,-0.02l0.041,-0.02l0.042,-0.019l0.041,-0.019l0.041,-0.019l0.041,-0.019l0.042,-0.018l0.041,-0.018l0.042,-0.018l0.042,-0.017l0.042,-0.017l0.041,-0.017l0.042,-0.017l0.042,-0.016l0.043,-0.016l0.042,-0.016l0.042,-0.016l0.042,-0.015l0.043,-0.015l0.042,-0.015l0.042,-0.014l0.043,-0.015l0.043,-0.013l0.042,-0.014l0.043,-0.013l0.043,-0.014l0.043,-0.012l0.043,-0.013l0.043,-0.012l0.043,-0.012l0.043,-0.012l0.043,-0.012l0.043,-0.011l0.043,-0.011l0.043,-0.011l0.044,-0.01l0.043,-0.01l0.043,-0.01l0.044,-0.01l0.043,-0.009l0.044,-0.009l0.043,-0.009l0.044,-0.008l0.044,-0.009l0.043,-0.008l0.044,-0.008l0.044,-0.007l0.043,-0.007l0.044,-0.007l0.044,-0.007l0.044,-0.006l0.044,-0.006l0.044,-0.006l0.043,-0.006l0.044,-0.005l0.044,-0.005l0.044,-0.005l0.044,-0.005l0.044,-0.004l0.044,-0.004l0.044,-0.004l0.044,-0.003l0.044,-0.003l0.044,-0.003l0.044,-0.003l0.044,-0.003l0.045,-0.002l0.044,-0.002l0.044,-0.001l0.044,-0.002l0.044,-0.001l0.044,-0.001l0.044,0l0.044,-0.001l0.044,0l0.044,0.001Zm-0.08,1.799l-0.033,0.001l-0.034,0l-0.033,0.001l-0.034,0.001l-0.033,0.001l-0.033,0.001l-0.033,0.001l-0.034,0.002l-0.033,0.002l-0.033,0.002l-0.034,0.002l-0.033,0.003l-0.033,0.002l-0.033,0.003l-0.034,0.003l-0.033,0.003l-0.033,0.004l-0.033,0.003l-0.033,0.004l-0.033,0.004l-0.034,0.004l-0.033,0.005l-0.033,0.005l-0.033,0.004l-0.033,0.005l-0.033,0.006l-0.033,0.005l-0.033,0.006l-0.033,0.006l-0.033,0.006l-0.033,0.006l-0.033,0.006l-0.033,0.007l-0.032,0.007l-0.033,0.007l-0.033,0.007l-0.032,0.008l-0.033,0.007l-0.033,0.008l-0.032,0.008l-0.033,0.008l-0.033,0.009l-0.032,0.009l-0.032,0.008l-0.033,0.009l-0.032,0.01l-0.033,0.009l-0.032,0.01l-0.032,0.01l-0.032,0.01l-0.032,0.01l-0.033,0.011l-0.031,0.01l-0.032,0.011l-0.032,0.011l-0.032,0.012l-0.032,0.011l-0.032,0.012l-0.032,0.012l-0.031,0.012l-0.032,0.012l-0.031,0.013l-0.032,0.013l-0.032,0.012l-0.031,0.014l-0.031,0.013l-0.031,0.013l-0.032,0.014l-0.031,0.014l-0.031,0.014l-0.031,0.015l-0.031,0.014l-0.031,0.015l-0.031,0.015l-0.03,0.015l-0.031,0.016l-0.031,0.015l-0.03,0.016l-0.031,0.016l-0.031,0.016l-0.03,0.017l-0.03,0.016l-0.03,0.017l-0.03,0.017l-0.031,0.018l-0.03,0.017l-0.03,0.018l-0.029,0.018l-0.03,0.018l-0.03,0.018l-0.029,0.019l-0.03,0.019l-0.03,0.019l-0.029,0.019l-0.029,0.019l-0.03,0.02l-0.029,0.02l-0.029,0.02l-0.029,0.02l-0.029,0.021l-0.029,0.02l-0.028,0.021l-0.029,0.021l-0.029,0.022l-0.028,0.021l-0.028,0.022l-0.029,0.022l-0.028,0.022l-0.028,0.023l-0.028,0.022l-0.028,0.023l-0.028,0.023l-0.027,0.023l-0.027,0.023l-0.027,0.023l-0.027,0.024l-0.027,0.023l-0.026,0.024l-0.026,0.024l-0.026,0.024l-0.026,0.024l-0.026,0.024l-0.026,0.024l-0.025,0.025l-0.025,0.024l-0.025,0.025l-0.025,0.025l-0.024,0.025l-0.024,0.025l-0.025,0.025l-0.024,0.025l-0.023,0.026l-0.024,0.025l-0.023,0.026l-0.023,0.026l-0.023,0.025l-0.023,0.026l-0.023,0.027l-0.022,0.026l-0.022,0.026l-0.023,0.027l-0.021,0.026l-0.022,0.027l-0.022,0.027l-0.021,0.026l-0.021,0.027l-0.021,0.027l-0.021,0.028l-0.02,0.027l-0.021,0.027l-0.02,0.028l-0.02,0.027l-0.02,0.028l-0.019,0.028l-0.02,0.028l-0.019,0.028l-0.019,0.028l-0.019,0.028l-0.018,0.028l-0.019,0.029l-0.018,0.028l-0.018,0.029l-0.018,0.029l-0.018,0.028l-0.018,0.029l-0.017,0.029l-0.017,0.029l-0.017,0.029l-0.017,0.03l-0.017,0.029l-0.016,0.029l-0.016,0.03l-0.016,0.03l-0.016,0.029l-0.016,0.03l-0.015,0.03l-0.016,0.03l-0.015,0.03l-0.015,0.03l-0.014,0.03l-0.015,0.03l-0.014,0.03l-0.014,0.031l-0.014,0.03l-0.014,0.031l-0.014,0.031l-0.013,0.03l-0.013,0.031l-0.013,0.031l-0.013,0.031l-0.013,0.031l-0.012,0.031l-0.012,0.031l-0.013,0.031l-0.012,0.032l-0.011,0.031l-0.012,0.031l-0.011,0.032l-0.011,0.031l-0.011,0.032l-0.011,0.031l-0.01,0.032l-0.011,0.032l-0.01,0.031l-0.01,0.032l-0.01,0.032l-0.009,0.032l-0.009,0.032l-0.01,0.032l-0.009,0.032l-0.008,0.032l-0.009,0.033l-0.008,0.032l-0.009,0.032l-0.008,0.033l-0.008,0.032l-0.007,0.032l-0.008,0.033l-0.007,0.033l-0.007,0.032l-0.007,0.033l-0.006,0.032l-0.007,0.033l-0.006,0.033l-0.006,0.032l-0.006,0.033l-0.006,0.033l-0.005,0.033l-0.006,0.033l-0.005,0.033l-0.005,0.033l-0.004,0.033l-0.005,0.033l-0.004,0.033l-0.004,0.033l-0.004,0.033l-0.004,0.033l-0.003,0.033l-0.004,0.033l-0.003,0.033l-0.003,0.033l-0.002,0.034l-0.003,0.033l-0.002,0.033l-0.002,0.033l-0.002,0.033l-0.002,0.034l-0.002,0.033l-0.001,0.033l-0.001,0.034l-0.001,0.033l-0.001,0.033l0,0.033l-0.001,0.034l0,0.033l0,0.034l0,0.033l0.001,0.033l0,0.033l0.001,0.034l0.001,0.033l0.001,0.033l0.002,0.034l0.002,0.033l0.001,0.033l0.002,0.034l0.003,0.033l0.002,0.033l0.003,0.034l0.003,0.033l0.003,0.033l0.003,0.033l0.003,0.033l0.004,0.034l0.004,0.033l0.004,0.033l0.004,0.033l0.005,0.033l0.004,0.033l0.005,0.033l0.005,0.033l0.005,0.034l0.006,0.032l0.005,0.033l0.006,0.034l0.006,0.032l0.006,0.033l0.007,0.033l0.007,0.033l0.006,0.033l0.008,0.033l0.007,0.032l0.007,0.033l0.008,0.033l0.008,0.032l0.008,0.033l0.008,0.032l0.009,0.033l0.008,0.033l0.009,0.032l0.009,0.032l0.009,0.032l0.01,0.033l0.01,0.032l0.009,0.032l0.011,0.033l0.01,0.032l0.01,0.032l0.011,0.032l0.011,0.032l0.011,0.032l0.011,0.032l0.012,0.031l0.012,0.032l0.011,0.032l0.013,0.032l0.012,0.031l0.012,0.032l0.013,0.031l0.013,0.032l0.013,0.031l0.014,0.032l0.013,0.031l0.014,0.031l0.014,0.031l0.014,0.031l0.014,0.031l0.015,0.031l0.015,0.031l0.015,0.031l0.015,0.031l0.015,0.03l0.016,0.031l0.016,0.031l0.016,0.03l0.016,0.031l0.016,0.03l0.017,0.03l0.017,0.031l0.017,0.03l0.017,0.03l0.018,0.03l0.017,0.03l0.018,0.03l0.019,0.029l0.018,0.03l0.018,0.03l0.019,0.029l0.019,0.03l0.019,0.029l0.02,0.03l0.019,0.029l0.02,0.029l0.02,0.029l0.021,0.029l0.02,0.029l0.021,0.029l0.021,0.029l0.021,0.028l0.021,0.029l0.022,0.028l0.021,0.029l0.022,0.028l0.023,0.028l0.02,0.026l0.016,0.02l0.016,0.018l0.016,0.019l0.018,0.02l0.018,0.021l0.02,0.021l0.021,0.022l0.022,0.022l0.023,0.024l0.025,0.024l0.025,0.024l0.026,0.025l0.028,0.026l0.028,0.026l0.03,0.026l0.031,0.027l0.031,0.027l0.033,0.028l0.034,0.028l0.035,0.028l0.035,0.029l0.037,0.029l0.038,0.029l0.038,0.03l0.04,0.03l0.04,0.03l0.041,0.03l0.043,0.031l0.043,0.031l0.043,0.031l0.045,0.031l0.046,0.032l0.046,0.031l0.047,0.032l0.048,0.032l0.049,0.032l0.05,0.033l0.05,0.032l0.051,0.032l0.052,0.033l0.052,0.033l0.054,0.033l0.053,0.033l0.055,0.033l0.055,0.033l0.056,0.033l0.057,0.034l0.057,0.033l0.058,0.034l0.059,0.033l0.059,0.034l0.06,0.033l0.06,0.034l0.061,0.034l0.061,0.033l0.062,0.034l0.063,0.034l0.063,0.034l0.064,0.034l0.064,0.034l0.065,0.033l0.065,0.034l0.066,0.034l0.066,0.034l0.067,0.034l0.067,0.034l0.067,0.034l0.068,0.034l0.068,0.034l0.069,0.034l0.07,0.034l0.069,0.033l0.07,0.034l0.071,0.034l0.071,0.034l0.071,0.033l0.071,0.034l0.072,0.034l0.072,0.033l0.072,0.034l0.147,0.067l0.147,0.067l0.148,0.066l0.15,0.067l0.15,0.066l0.151,0.066l0.153,0.065l0.153,0.066l0.153,0.065l0.154,0.064l0.155,0.065l0.156,0.064l0.155,0.063l0.157,0.063l0.156,0.063l0.157,0.063l0.156,0.062l0.157,0.061l0.157,0.061l0.157,0.061l0.157,0.06l0.156,0.059l0.157,0.059l0.156,0.059l0.155,0.058l0.155,0.057l0.155,0.057l0.154,0.057l0.154,0.055l0.153,0.056l0.151,0.054l0.152,0.054l0.15,0.053l0.149,0.053l0.148,0.052l0.147,0.051l0.146,0.051l0.145,0.05l0.144,0.049l0.142,0.048l0.14,0.048l0.139,0.047l0.138,0.046l0.136,0.046l0.134,0.045l0.133,0.043l0.131,0.044l0.128,0.042l0.127,0.041l0.125,0.041l0.09,0.029l-0.008,-0.072l-0.029,-0.262l-0.014,-0.133l-0.016,-0.136l-0.015,-0.138l-0.017,-0.139l-0.016,-0.142l-0.017,-0.143l-0.017,-0.145l-0.018,-0.146l-0.018,-0.148l-0.019,-0.149l-0.019,-0.151l-0.019,-0.152l-0.02,-0.154l-0.021,-0.155l-0.02,-0.155l-0.021,-0.157l-0.022,-0.158l-0.022,-0.159l-0.023,-0.16l-0.023,-0.16l-0.023,-0.162l-0.024,-0.162l-0.024,-0.162l-0.025,-0.164l-0.025,-0.163l-0.025,-0.164l-0.026,-0.165l-0.027,-0.165l-0.026,-0.164l-0.028,-0.166l-0.028,-0.165l-0.028,-0.165l-0.028,-0.165l-0.03,-0.165l-0.029,-0.165l-0.03,-0.165l-0.031,-0.164l-0.03,-0.164l-0.032,-0.163l-0.032,-0.163l-0.032,-0.162l-0.033,-0.162l-0.033,-0.161l-0.033,-0.16l-0.034,-0.159l-0.035,-0.158l-0.034,-0.157l-0.036,-0.157l-0.018,-0.076l-0.017,-0.078l-0.019,-0.077l-0.018,-0.076l-0.018,-0.077l-0.018,-0.076l-0.019,-0.075l-0.018,-0.075l-0.019,-0.075l-0.019,-0.075l-0.018,-0.074l-0.019,-0.073l-0.019,-0.074l-0.02,-0.073l-0.019,-0.072l-0.019,-0.072l-0.019,-0.071l-0.02,-0.071l-0.02,-0.071l-0.019,-0.07l-0.02,-0.07l-0.02,-0.069l-0.02,-0.069l-0.02,-0.068l-0.02,-0.067l-0.02,-0.067l-0.021,-0.067l-0.02,-0.066l-0.02,-0.065l-0.021,-0.064l-0.021,-0.065l-0.02,-0.063l-0.021,-0.063l-0.021,-0.062l-0.021,-0.062l-0.02,-0.061l-0.021,-0.06l-0.021,-0.06l-0.021,-0.059l-0.022,-0.058l-0.021,-0.057l-0.021,-0.057l-0.021,-0.056l-0.021,-0.055l-0.022,-0.055l-0.021,-0.053l-0.021,-0.053l-0.021,-0.052l-0.022,-0.051l-0.021,-0.051l-0.021,-0.049l-0.021,-0.049l-0.021,-0.048l-0.022,-0.047l-0.021,-0.045l-0.021,-0.046l-0.021,-0.044l-0.02,-0.043l-0.021,-0.042l-0.021,-0.041l-0.02,-0.04l-0.021,-0.039l-0.02,-0.038l-0.02,-0.038l-0.02,-0.036l-0.02,-0.034l-0.019,-0.034l-0.019,-0.033l-0.019,-0.031l-0.019,-0.031l-0.018,-0.029l-0.018,-0.028l-0.018,-0.027l-0.017,-0.025l-0.017,-0.025l-0.017,-0.023l-0.016,-0.022l-0.015,-0.02l-0.015,-0.02l-0.016,-0.02l-0.021,-0.026l-0.023,-0.027l-0.023,-0.028l-0.023,-0.028l-0.023,-0.027l-0.023,-0.027l-0.024,-0.027l-0.023,-0.026l-0.024,-0.027l-0.023,-0.026l-0.024,-0.026l-0.025,-0.026l-0.024,-0.026l-0.024,-0.025l-0.025,-0.025l-0.024,-0.026l-0.025,-0.024l-0.024,-0.025l-0.025,-0.024l-0.026,-0.025l-0.025,-0.024l-0.025,-0.024l-0.025,-0.024l-0.026,-0.023l-0.026,-0.024l-0.025,-0.023l-0.026,-0.023l-0.026,-0.023l-0.026,-0.022l-0.026,-0.023l-0.027,-0.022l-0.026,-0.022l-0.027,-0.022l-0.026,-0.022l-0.027,-0.021l-0.027,-0.021l-0.027,-0.022l-0.027,-0.021l-0.027,-0.02l-0.027,-0.021l-0.028,-0.02l-0.028,-0.021l-0.027,-0.019l-0.028,-0.02l-0.028,-0.02l-0.027,-0.019l-0.028,-0.019l-0.029,-0.019l-0.028,-0.019l-0.028,-0.019l-0.028,-0.018l-0.029,-0.019l-0.029,-0.018l-0.028,-0.018l-0.029,-0.018l-0.029,-0.017l-0.029,-0.018l-0.029,-0.017l-0.029,-0.017l-0.029,-0.016l-0.03,-0.017l-0.029,-0.017l-0.03,-0.016l-0.029,-0.016l-0.03,-0.016l-0.03,-0.015l-0.029,-0.016l-0.031,-0.015l-0.03,-0.015l-0.029,-0.015l-0.031,-0.015l-0.03,-0.015l-0.03,-0.014l-0.031,-0.014l-0.03,-0.014l-0.031,-0.014l-0.03,-0.013l-0.031,-0.014l-0.031,-0.013l-0.03,-0.013l-0.032,-0.013l-0.03,-0.012l-0.031,-0.013l-0.032,-0.012l-0.031,-0.012l-0.031,-0.012l-0.032,-0.012l-0.031,-0.011l-0.031,-0.012l-0.032,-0.011l-0.031,-0.01l-0.032,-0.011l-0.032,-0.011l-0.031,-0.01l-0.032,-0.01l-0.032,-0.01l-0.032,-0.01l-0.032,-0.01l-0.032,-0.009l-0.032,-0.009l-0.032,-0.009l-0.032,-0.009l-0.033,-0.009l-0.032,-0.008l-0.032,-0.008l-0.032,-0.008l-0.033,-0.008l-0.032,-0.008l-0.033,-0.007l-0.032,-0.007l-0.033,-0.007l-0.032,-0.007l-0.033,-0.007l-0.033,-0.006l-0.032,-0.007l-0.033,-0.006l-0.033,-0.006l-0.032,-0.005l-0.034,-0.006l-0.033,-0.005l-0.032,-0.005l-0.033,-0.005l-0.033,-0.005l-0.033,-0.004l-0.033,-0.005l-0.033,-0.004l-0.033,-0.004l-0.034,-0.003l-0.033,-0.004l-0.033,-0.003l-0.033,-0.003l-0.033,-0.003l-0.033,-0.003l-0.033,-0.003l-0.034,-0.002l-0.033,-0.002l-0.033,-0.002l-0.033,-0.002l-0.034,-0.001l-0.033,-0.002l-0.033,-0.001l-0.034,-0.001l-0.033,-0.001l-0.033,0l-0.034,0l-0.033,-0.001l-0.033,0Z" style="fill:#fff;"/><path d="M34.664,18.814c3.697,6.776 0.372,15.729 -7.42,19.98c-7.792,4.251 -17.12,2.2 -20.817,-4.576c-3.697,-6.777 -0.372,-15.73 7.42,-19.981c7.792,-4.25 17.12,-2.2 20.817,4.577Z"/><clipPath id="_clip1"><path d="M34.664,18.814c3.697,6.776 0.372,15.729 -7.42,19.98c-7.792,4.251 -17.12,2.2 -20.817,-4.576c-3.697,-6.777 -0.372,-15.73 7.42,-19.981c7.792,-4.25 17.12,-2.2 20.817,4.577Z"/></clipPath><g clip-path="url(#_clip1)"><path d="M42.018,49.219c-0.573,0.616 -1.226,1.13 -1.959,1.53c-7.302,3.983 -19.801,-4.827 -27.894,-19.661c-8.093,-14.835 -8.735,-30.113 -1.433,-34.097c0.732,-0.4 1.518,-0.671 2.346,-0.82c-5.139,5.517 -3.888,19.222 3.392,32.568c7.281,13.346 18.128,21.815 25.548,20.48Z" style="fill:#fff;"/><path d="M50.284,44.71c-0.573,0.616 -1.226,1.129 -1.959,1.529c-7.302,3.984 -19.801,-4.826 -27.894,-19.661c-8.093,-14.835 -8.735,-30.113 -1.433,-34.097c0.732,-0.399 1.518,-0.67 2.346,-0.819c-5.139,5.517 -3.888,19.221 3.392,32.567c7.281,13.346 18.128,21.816 25.548,20.481Z" style="fill:#fff;"/></g><path d="M22.417,12.022l0.093,0.001l0.093,0.001l0.094,0.002l0.093,0.002l0.093,0.002l0.093,0.004l0.093,0.003l0.092,0.005l0.093,0.005l0.093,0.005l0.092,0.006l0.092,0.006l0.092,0.007l0.092,0.007l0.092,0.008l0.092,0.009l0.092,0.009l0.091,0.009l0.091,0.01l0.092,0.011l0.091,0.011l0.091,0.011l0.09,0.012l0.091,0.013l0.09,0.013l0.091,0.013l0.09,0.014l0.09,0.015l0.09,0.015l0.089,0.016l0.09,0.016l0.089,0.016l0.089,0.018l0.089,0.017l0.089,0.018l0.088,0.019l0.089,0.019l0.088,0.02l0.088,0.02l0.088,0.021l0.088,0.021l0.087,0.022l0.087,0.022l0.087,0.022l0.087,0.024l0.087,0.023l0.086,0.024l0.086,0.025l0.086,0.025l0.086,0.026l0.086,0.026l0.085,0.027l0.085,0.027l0.085,0.028l0.085,0.028l0.084,0.029l0.084,0.029l0.084,0.029l0.084,0.03l0.083,0.031l0.083,0.031l0.083,0.032l0.083,0.032l0.083,0.032l0.082,0.034l0.082,0.033l0.081,0.034l0.082,0.035l0.081,0.035l0.081,0.035l0.08,0.036l0.081,0.037l0.08,0.037l0.079,0.037l0.08,0.038l0.079,0.039l0.079,0.039l0.079,0.039l0.078,0.04l0.078,0.04l0.078,0.041l0.077,0.041l0.077,0.042l0.077,0.042l0.077,0.043l0.076,0.043l0.076,0.044l0.075,0.044l0.076,0.045l0.075,0.045l0.074,0.046l0.074,0.046l0.074,0.046l0.074,0.047l0.073,0.048l0.073,0.048l0.073,0.048l0.072,0.049l0.072,0.05l0.072,0.05l0.071,0.05l0.071,0.051l0.07,0.051l0.071,0.052l0.069,0.052l0.07,0.053l0.069,0.053l0.069,0.053l0.068,0.054l0.068,0.055l0.068,0.055l0.067,0.055l0.067,0.056l0.066,0.057l0.066,0.056l0.066,0.058l0.065,0.058l0.065,0.058l0.065,0.058l0.064,0.06l0.064,0.059l0.063,0.06l0.063,0.061l0.062,0.061l0.062,0.061l0.062,0.062l0.061,0.062l0.061,0.063l0.061,0.063l0.06,0.064l0.059,0.064l0.059,0.065l0.059,0.065l0.059,0.065l0.057,0.066l0.058,0.067l0.057,0.067l0.056,0.067l0.056,0.068l0.056,0.068l0.055,0.069l0.055,0.069l0.054,0.069l0.054,0.07l0.053,0.071l0.053,0.07l0.053,0.072l0.052,0.071l0.051,0.073l0.051,0.072l0.051,0.073l0.05,0.074l0.049,0.074l0.049,0.074l0.049,0.075l0.048,0.075l0.048,0.076l0.047,0.076l0.046,0.077l0.047,0.077l0.045,0.077l0.045,0.078l0.045,0.079l0.044,0.078l0.044,0.08l0.043,0.079l0.042,0.08l0.042,0.08l0.041,0.08l0.04,0.08l0.04,0.08l0.039,0.081l0.039,0.081l0.038,0.081l0.037,0.081l0.036,0.082l0.036,0.081l0.036,0.082l0.034,0.082l0.035,0.082l0.033,0.082l0.033,0.082l0.032,0.083l0.032,0.082l0.031,0.083l0.03,0.083l0.03,0.083l0.029,0.084l0.028,0.083l0.028,0.084l0.027,0.083l0.027,0.084l0.026,0.084l0.025,0.084l0.025,0.084l0.024,0.085l0.024,0.084l0.023,0.085l0.022,0.085l0.022,0.084l0.021,0.085l0.02,0.085l0.02,0.086l0.019,0.085l0.019,0.085l0.018,0.086l0.017,0.085l0.017,0.086l0.016,0.086l0.016,0.085l0.015,0.086l0.015,0.086l0.013,0.087l0.014,0.086l0.012,0.086l0.012,0.086l0.012,0.087l0.01,0.086l0.011,0.087l0.009,0.086l0.009,0.087l0.009,0.087l0.008,0.087l0.007,0.086l0.007,0.087l0.006,0.087l0.005,0.087l0.005,0.087l0.005,0.088l0.003,0.087l0.004,0.087l0.002,0.087l0.002,0.087l0.002,0.088l0,0.087l0.001,0.087l-0.001,0.088l0,0.087l-0.002,0.087l-0.002,0.088l-0.003,0.087l-0.003,0.088l-0.003,0.087l-0.005,0.088l-0.005,0.087l-0.005,0.088l-0.006,0.087l-0.007,0.088l-0.007,0.087l-0.008,0.088l-0.008,0.087l-0.009,0.088l-0.009,0.087l-0.01,0.087l-0.011,0.088l-0.011,0.087l-0.012,0.087l-0.012,0.088l-0.013,0.087l-0.013,0.087l-0.014,0.088l-0.014,0.087l-0.015,0.087l-0.016,0.087l-0.016,0.087l-0.017,0.087l-0.017,0.087l-0.018,0.087l-0.018,0.087l-0.019,0.087l-0.019,0.086l-0.02,0.087l-0.021,0.087l-0.021,0.086l-0.021,0.087l-0.023,0.086l-0.022,0.086l-0.023,0.087l-0.024,0.086l-0.024,0.086l-0.025,0.086l-0.026,0.086l-0.026,0.086l-0.026,0.086l-0.027,0.085l-0.028,0.086l-0.028,0.085l-0.028,0.086l-0.029,0.085l-0.03,0.085l-0.03,0.085l-0.031,0.085l-0.031,0.085l-0.032,0.085l-0.032,0.084l-0.033,0.085l-0.033,0.084l-0.034,0.084l-0.034,0.084l-0.035,0.084l-0.035,0.084l-0.036,0.084l-0.037,0.083l-0.037,0.084l-0.037,0.083l-0.038,0.083l-0.039,0.083l-0.039,0.083l-0.039,0.083l-0.04,0.082l-0.041,0.082l-0.041,0.083l-0.041,0.082l-0.042,0.082l-0.043,0.081l-0.043,0.082l-0.044,0.081l-0.044,0.081l-0.044,0.081l-0.046,0.081l-0.045,0.081l-0.046,0.08l-0.047,0.081l-0.047,0.08l-0.047,0.08l-0.049,0.079l-0.048,0.08l-0.049,0.079l-0.05,0.079l-0.05,0.079l-0.05,0.079l-0.051,0.078l-0.052,0.079l-0.052,0.078l-0.053,0.078l-0.053,0.077l-0.053,0.078l-0.054,0.077l-0.054,0.077l-0.055,0.077l-0.056,0.076l-0.056,0.076l-0.056,0.076l-0.057,0.076l-0.057,0.076l-0.058,0.075l-0.059,0.075l-0.058,0.075l-0.06,0.074l-0.059,0.075l-0.06,0.074l-0.061,0.074l-0.061,0.073l-0.062,0.073l-0.062,0.073l-0.063,0.073l-0.063,0.073l-0.063,0.072l-0.064,0.072l-0.065,0.071l-0.064,0.072l-0.066,0.071l-0.066,0.071l-0.066,0.07l-0.067,0.07l-0.067,0.07l-0.068,0.07l-0.068,0.069l-0.068,0.069l-0.069,0.069l-0.07,0.068l-0.07,0.068l-0.07,0.068l-0.071,0.068l-0.071,0.067l-0.072,0.067l-0.072,0.066l-0.073,0.066l-0.073,0.066l-0.074,0.066l-0.074,0.065l-0.074,0.065l-0.075,0.065l-0.075,0.064l-0.076,0.064l-0.076,0.063l-0.077,0.063l-0.077,0.063l-0.077,0.063l-0.078,0.062l-0.079,0.062l-0.079,0.061l-0.079,0.061l-0.08,0.061l-0.08,0.06l-0.08,0.06l-0.081,0.06l-0.082,0.059l-0.082,0.059l-0.082,0.059l-0.083,0.058l-0.083,0.058l-0.084,0.057l-0.084,0.057l-0.084,0.056l-0.085,0.057l-0.085,0.055l-0.086,0.056l-0.086,0.055l-0.087,0.054l-0.087,0.055l-0.087,0.053l-0.088,0.054l-0.088,0.053l-0.089,0.052l-0.089,0.053l-0.089,0.051l-0.09,0.052l-0.09,0.05l-0.091,0.051l-0.091,0.05l-0.091,0.049l-0.092,0.049l-0.092,0.049l-0.091,0.048l-0.092,0.047l-0.092,0.046l-0.093,0.047l-0.092,0.045l-0.092,0.045l-0.093,0.044l-0.092,0.044l-0.093,0.043l-0.093,0.043l-0.093,0.042l-0.093,0.042l-0.093,0.041l-0.094,0.04l-0.093,0.04l-0.093,0.039l-0.094,0.039l-0.094,0.038l-0.093,0.037l-0.094,0.037l-0.094,0.037l-0.094,0.036l-0.094,0.035l-0.094,0.035l-0.095,0.034l-0.094,0.033l-0.094,0.033l-0.095,0.033l-0.094,0.032l-0.095,0.031l-0.094,0.031l-0.095,0.03l-0.094,0.03l-0.095,0.029l-0.095,0.029l-0.095,0.028l-0.095,0.027l-0.095,0.027l-0.095,0.026l-0.095,0.026l-0.095,0.025l-0.095,0.025l-0.095,0.024l-0.095,0.024l-0.095,0.023l-0.095,0.022l-0.095,0.022l-0.095,0.022l-0.095,0.021l-0.095,0.02l-0.096,0.02l-0.095,0.019l-0.095,0.019l-0.095,0.018l-0.095,0.017l-0.095,0.017l-0.096,0.017l-0.095,0.016l-0.095,0.015l-0.095,0.015l-0.095,0.014l-0.095,0.014l-0.095,0.013l-0.095,0.013l-0.095,0.012l-0.095,0.012l-0.095,0.011l-0.095,0.01l-0.095,0.01l-0.094,0.01l-0.095,0.009l-0.095,0.008l-0.094,0.008l-0.095,0.007l-0.094,0.007l-0.095,0.006l-0.094,0.006l-0.095,0.005l-0.094,0.005l-0.094,0.004l-0.094,0.004l-0.094,0.003l-0.094,0.002l-0.094,0.002l-0.094,0.002l-0.094,0.001l-0.093,0l-0.094,0l-0.093,0l-0.094,-0.001l-0.093,-0.002l-0.093,-0.002l-0.093,-0.003l-0.093,-0.003l-0.093,-0.004l-0.092,-0.004l-0.093,-0.005l-0.093,-0.005l-0.092,-0.006l-0.092,-0.007l-0.092,-0.007l-0.092,-0.007l-0.092,-0.008l-0.092,-0.008l-0.092,-0.009l-0.091,-0.01l-0.091,-0.01l-0.092,-0.01l-0.091,-0.011l-0.091,-0.012l-0.09,-0.012l-0.091,-0.012l-0.09,-0.013l-0.091,-0.014l-0.09,-0.014l-0.09,-0.015l-0.09,-0.015l-0.089,-0.015l-0.09,-0.016l-0.089,-0.017l-0.089,-0.017l-0.089,-0.018l-0.089,-0.018l-0.089,-0.019l-0.088,-0.019l-0.088,-0.019l-0.088,-0.021l-0.088,-0.02l-0.088,-0.021l-0.087,-0.022l-0.087,-0.022l-0.087,-0.023l-0.087,-0.023l-0.087,-0.024l-0.086,-0.024l-0.086,-0.025l-0.086,-0.025l-0.086,-0.026l-0.086,-0.026l-0.085,-0.026l-0.085,-0.028l-0.085,-0.027l-0.085,-0.028l-0.084,-0.029l-0.084,-0.029l-0.084,-0.03l-0.084,-0.03l-0.083,-0.031l-0.084,-0.031l-0.083,-0.031l-0.082,-0.032l-0.083,-0.033l-0.082,-0.033l-0.082,-0.034l-0.081,-0.034l-0.082,-0.034l-0.081,-0.035l-0.081,-0.036l-0.08,-0.036l-0.081,-0.036l-0.08,-0.037l-0.08,-0.038l-0.079,-0.038l-0.079,-0.038l-0.079,-0.039l-0.079,-0.04l-0.078,-0.039l-0.078,-0.041l-0.078,-0.041l-0.077,-0.041l-0.077,-0.042l-0.077,-0.042l-0.077,-0.043l-0.076,-0.043l-0.076,-0.044l-0.075,-0.044l-0.076,-0.045l-0.075,-0.045l-0.074,-0.045l-0.075,-0.046l-0.074,-0.047l-0.073,-0.047l-0.073,-0.047l-0.073,-0.048l-0.073,-0.049l-0.072,-0.049l-0.072,-0.049l-0.072,-0.05l-0.071,-0.05l-0.071,-0.051l-0.071,-0.052l-0.07,-0.051l-0.07,-0.052l-0.069,-0.053l-0.069,-0.053l-0.069,-0.054l-0.068,-0.054l-0.068,-0.054l-0.068,-0.055l-0.067,-0.056l-0.067,-0.056l-0.066,-0.056l-0.066,-0.057l-0.066,-0.057l-0.065,-0.058l-0.065,-0.058l-0.065,-0.059l-0.064,-0.059l-0.064,-0.06l-0.063,-0.06l-0.063,-0.06l-0.062,-0.061l-0.063,-0.062l-0.061,-0.062l-0.062,-0.062l-0.06,-0.063l-0.061,-0.063l-0.06,-0.064l-0.059,-0.064l-0.06,-0.064l-0.058,-0.065l-0.059,-0.066l-0.057,-0.066l-0.058,-0.066l-0.057,-0.067l-0.056,-0.068l-0.056,-0.067l-0.056,-0.068l-0.055,-0.069l-0.055,-0.069l-0.054,-0.07l-0.054,-0.07l-0.053,-0.07l-0.053,-0.071l-0.053,-0.071l-0.052,-0.072l-0.051,-0.072l-0.051,-0.073l-0.051,-0.073l-0.05,-0.073l-0.049,-0.074l-0.049,-0.075l-0.049,-0.075l-0.048,-0.075l-0.048,-0.076l-0.047,-0.076l-0.046,-0.076l-0.047,-0.077l-0.045,-0.078l-0.045,-0.078l-0.045,-0.078l-0.044,-0.079l-0.044,-0.079l-0.043,-0.08l-0.042,-0.079l-0.042,-0.08l-0.041,-0.08l-0.04,-0.081l-0.04,-0.08l-0.039,-0.081l-0.039,-0.081l-0.038,-0.081l-0.037,-0.081l-0.036,-0.081l-0.036,-0.082l-0.036,-0.081l-0.035,-0.082l-0.034,-0.082l-0.033,-0.083l-0.033,-0.082l-0.032,-0.082l-0.032,-0.083l-0.031,-0.083l-0.03,-0.083l-0.03,-0.083l-0.029,-0.083l-0.028,-0.084l-0.028,-0.083l-0.027,-0.084l-0.027,-0.084l-0.026,-0.084l-0.025,-0.084l-0.025,-0.084l-0.024,-0.084l-0.024,-0.085l-0.023,-0.084l-0.022,-0.085l-0.022,-0.085l-0.021,-0.085l-0.02,-0.085l-0.02,-0.085l-0.019,-0.085l-0.019,-0.086l-0.018,-0.085l-0.018,-0.086l-0.016,-0.085l-0.017,-0.086l-0.015,-0.086l-0.015,-0.086l-0.015,-0.086l-0.013,-0.086l-0.014,-0.086l-0.012,-0.087l-0.012,-0.086l-0.012,-0.086l-0.011,-0.087l-0.01,-0.086l-0.009,-0.087l-0.01,-0.087l-0.008,-0.086l-0.008,-0.087l-0.007,-0.087l-0.007,-0.087l-0.006,-0.087l-0.005,-0.087l-0.005,-0.087l-0.005,-0.087l-0.003,-0.087l-0.004,-0.087l-0.002,-0.088l-0.002,-0.087l-0.002,-0.087l-0.001,-0.088l0,-0.087l0,-0.087l0.001,-0.088l0.002,-0.087l0.002,-0.087l0.002,-0.088l0.004,-0.087l0.003,-0.088l0.005,-0.087l0.005,-0.088l0.005,-0.087l0.006,-0.088l0.007,-0.087l0.007,-0.088l0.008,-0.087l0.008,-0.088l0.009,-0.087l0.009,-0.088l0.01,-0.087l0.011,-0.087l0.011,-0.088l0.012,-0.087l0.012,-0.087l0.013,-0.088l0.013,-0.087l0.014,-0.087l0.014,-0.087l0.015,-0.087l0.016,-0.088l0.016,-0.087l0.017,-0.087l0.017,-0.087l0.018,-0.087l0.018,-0.086l0.019,-0.087l0.019,-0.087l0.02,-0.087l0.021,-0.086l0.021,-0.087l0.021,-0.086l0.022,-0.087l0.023,-0.086l0.023,-0.086l0.024,-0.086l0.024,-0.087l0.025,-0.086l0.026,-0.086l0.026,-0.085l0.026,-0.086l0.027,-0.086l0.027,-0.085l0.028,-0.086l0.029,-0.085l0.029,-0.085l0.03,-0.086l0.03,-0.085l0.031,-0.085l0.031,-0.084l0.032,-0.085l0.032,-0.085l0.033,-0.084l0.033,-0.085l0.034,-0.084l0.034,-0.084l0.035,-0.084l0.035,-0.084l0.036,-0.083l0.037,-0.084l0.037,-0.083l0.037,-0.084l0.038,-0.083l0.039,-0.083l0.039,-0.082l0.039,-0.083l0.04,-0.083l0.041,-0.082l0.041,-0.082l0.041,-0.082l0.042,-0.082l0.043,-0.082l0.043,-0.081l0.044,-0.082l0.044,-0.081l0.044,-0.081l0.045,-0.081l0.046,-0.081l0.046,-0.08l0.047,-0.08l0.047,-0.08l0.047,-0.08l0.048,-0.08l0.049,-0.079l0.049,-0.08l0.05,-0.079l0.05,-0.079l0.05,-0.079l0.051,-0.078l0.052,-0.078l0.052,-0.078l0.052,-0.078l0.053,-0.078l0.054,-0.077l0.054,-0.077l0.054,-0.077l0.055,-0.077l0.056,-0.077l0.056,-0.076l0.056,-0.076l0.057,-0.076l0.057,-0.075l0.058,-0.076l0.058,-0.075l0.059,-0.074l0.059,-0.075l0.06,-0.074l0.06,-0.074l0.061,-0.074l0.061,-0.074l0.062,-0.073l0.062,-0.073l0.063,-0.073l0.063,-0.072l0.063,-0.072l0.064,-0.072l0.064,-0.072l0.065,-0.071l0.066,-0.071l0.066,-0.071l0.066,-0.071l0.067,-0.07l0.067,-0.07l0.067,-0.069l0.069,-0.07l0.068,-0.069l0.069,-0.068l0.07,-0.069l0.07,-0.068l0.07,-0.068l0.071,-0.067l0.071,-0.067l0.072,-0.067l0.072,-0.067l0.073,-0.066l0.073,-0.066l0.073,-0.066l0.074,-0.065l0.075,-0.065l0.075,-0.064l0.075,-0.064l0.076,-0.064l0.076,-0.064l0.077,-0.063l0.077,-0.063l0.077,-0.062l0.078,-0.063l0.079,-0.061l0.079,-0.062l0.079,-0.061l0.08,-0.061l0.08,-0.06l0.08,-0.06l0.081,-0.06l0.082,-0.059l0.082,-0.059l0.082,-0.058l0.083,-0.058l0.083,-0.058l0.084,-0.057l0.084,-0.057l0.084,-0.057l0.085,-0.056l0.085,-0.056l0.086,-0.055l0.086,-0.055l0.086,-0.055l0.087,-0.054l0.088,-0.054l0.088,-0.053l0.088,-0.053l0.089,-0.053l0.089,-0.052l0.089,-0.052l0.09,-0.051l0.09,-0.051l0.091,-0.05l0.091,-0.051l0.091,-0.049l0.092,-0.049l0.092,-0.048l0.091,-0.048l0.092,-0.047l0.092,-0.047l0.092,-0.046l0.093,-0.046l0.092,-0.045l0.093,-0.044l0.092,-0.044l0.093,-0.043l0.093,-0.043l0.093,-0.042l0.093,-0.041l0.093,-0.041l0.094,-0.04l0.093,-0.04l0.093,-0.04l0.094,-0.038l0.094,-0.038l0.093,-0.038l0.094,-0.037l0.094,-0.036l0.094,-0.036l0.094,-0.035l0.094,-0.035l0.094,-0.034l0.095,-0.034l0.094,-0.033l0.094,-0.032l0.095,-0.032l0.094,-0.032l0.095,-0.031l0.095,-0.03l0.094,-0.029l0.095,-0.03l0.095,-0.028l0.095,-0.028l0.095,-0.028l0.095,-0.027l0.094,-0.026l0.095,-0.026l0.095,-0.025l0.095,-0.025l0.096,-0.024l0.095,-0.023l0.095,-0.023l0.095,-0.023l0.095,-0.022l0.095,-0.021l0.095,-0.021l0.095,-0.02l0.096,-0.02l0.095,-0.019l0.095,-0.019l0.095,-0.018l0.095,-0.018l0.095,-0.017l0.096,-0.016l0.095,-0.016l0.095,-0.016l0.095,-0.015l0.095,-0.014l0.095,-0.014l0.095,-0.013l0.095,-0.013l0.095,-0.012l0.095,-0.011l0.095,-0.011l0.095,-0.011l0.094,-0.01l0.095,-0.009l0.095,-0.009l0.095,-0.009l0.094,-0.008l0.095,-0.007l0.094,-0.007l0.095,-0.006l0.094,-0.006l0.094,-0.005l0.095,-0.005l0.094,-0.004l0.094,-0.003l0.094,-0.003l0.094,-0.003l0.094,-0.002l0.094,-0.002l0.093,0l0.094,-0.001l0.094,0Zm-0.165,3l-0.077,0.001l-0.077,0.001l-0.077,0.002l-0.077,0.002l-0.077,0.003l-0.078,0.003l-0.077,0.003l-0.078,0.004l-0.077,0.004l-0.078,0.005l-0.078,0.005l-0.078,0.006l-0.078,0.006l-0.078,0.006l-0.078,0.007l-0.078,0.008l-0.078,0.007l-0.078,0.009l-0.079,0.008l-0.078,0.009l-0.078,0.01l-0.079,0.01l-0.078,0.011l-0.079,0.011l-0.079,0.011l-0.078,0.012l-0.079,0.012l-0.079,0.013l-0.078,0.013l-0.079,0.014l-0.079,0.014l-0.079,0.014l-0.079,0.015l-0.079,0.016l-0.079,0.016l-0.079,0.016l-0.079,0.017l-0.079,0.017l-0.079,0.018l-0.079,0.018l-0.079,0.019l-0.079,0.019l-0.079,0.02l-0.079,0.02l-0.079,0.02l-0.079,0.021l-0.079,0.022l-0.079,0.022l-0.079,0.022l-0.079,0.023l-0.079,0.023l-0.079,0.024l-0.079,0.025l-0.079,0.024l-0.079,0.026l-0.079,0.025l-0.079,0.026l-0.078,0.027l-0.079,0.027l-0.079,0.028l-0.079,0.028l-0.078,0.028l-0.079,0.029l-0.078,0.03l-0.079,0.03l-0.079,0.03l-0.078,0.031l-0.078,0.032l-0.079,0.031l-0.078,0.033l-0.078,0.033l-0.078,0.033l-0.079,0.034l-0.078,0.034l-0.078,0.035l-0.078,0.035l-0.077,0.036l-0.078,0.036l-0.078,0.037l-0.078,0.037l-0.077,0.038l-0.077,0.038l-0.078,0.039l-0.077,0.039l-0.077,0.039l-0.077,0.041l-0.078,0.04l-0.076,0.041l-0.077,0.042l-0.077,0.042l-0.076,0.042l-0.076,0.043l-0.076,0.043l-0.075,0.044l-0.074,0.044l-0.075,0.044l-0.074,0.044l-0.073,0.045l-0.074,0.045l-0.073,0.046l-0.072,0.045l-0.072,0.046l-0.072,0.047l-0.072,0.047l-0.071,0.047l-0.071,0.047l-0.07,0.048l-0.07,0.048l-0.07,0.048l-0.069,0.049l-0.068,0.049l-0.069,0.049l-0.068,0.049l-0.068,0.05l-0.067,0.05l-0.067,0.051l-0.067,0.051l-0.066,0.051l-0.066,0.051l-0.065,0.052l-0.065,0.051l-0.065,0.052l-0.064,0.053l-0.064,0.053l-0.064,0.053l-0.063,0.053l-0.062,0.053l-0.063,0.054l-0.062,0.054l-0.061,0.054l-0.062,0.055l-0.061,0.055l-0.06,0.055l-0.06,0.055l-0.06,0.056l-0.059,0.056l-0.059,0.056l-0.058,0.056l-0.059,0.057l-0.057,0.057l-0.058,0.057l-0.057,0.057l-0.056,0.057l-0.056,0.058l-0.056,0.058l-0.055,0.058l-0.055,0.059l-0.055,0.059l-0.054,0.058l-0.054,0.059l-0.053,0.06l-0.053,0.059l-0.052,0.06l-0.052,0.06l-0.052,0.06l-0.052,0.06l-0.05,0.061l-0.051,0.061l-0.05,0.061l-0.05,0.061l-0.049,0.061l-0.049,0.062l-0.049,0.061l-0.048,0.062l-0.047,0.062l-0.048,0.063l-0.046,0.062l-0.047,0.063l-0.046,0.062l-0.045,0.063l-0.046,0.063l-0.044,0.064l-0.045,0.063l-0.044,0.064l-0.043,0.063l-0.043,0.064l-0.043,0.065l-0.042,0.064l-0.042,0.064l-0.042,0.065l-0.041,0.064l-0.04,0.065l-0.04,0.065l-0.04,0.065l-0.04,0.065l-0.038,0.065l-0.039,0.066l-0.038,0.066l-0.038,0.065l-0.037,0.066l-0.037,0.066l-0.036,0.066l-0.036,0.066l-0.035,0.067l-0.035,0.066l-0.035,0.066l-0.034,0.067l-0.034,0.067l-0.033,0.067l-0.033,0.066l-0.033,0.067l-0.032,0.068l-0.032,0.067l-0.031,0.067l-0.031,0.067l-0.03,0.068l-0.03,0.067l-0.029,0.068l-0.029,0.067l-0.029,0.068l-0.028,0.068l-0.028,0.068l-0.027,0.068l-0.027,0.068l-0.026,0.068l-0.026,0.068l-0.026,0.068l-0.025,0.068l-0.025,0.068l-0.024,0.069l-0.024,0.068l-0.023,0.068l-0.023,0.069l-0.022,0.068l-0.022,0.069l-0.022,0.068l-0.021,0.069l-0.021,0.068l-0.02,0.069l-0.02,0.069l-0.019,0.068l-0.019,0.069l-0.019,0.069l-0.018,0.068l-0.017,0.069l-0.017,0.069l-0.017,0.069l-0.016,0.068l-0.016,0.069l-0.016,0.069l-0.015,0.069l-0.014,0.068l-0.014,0.069l-0.014,0.069l-0.013,0.069l-0.013,0.068l-0.012,0.069l-0.012,0.069l-0.011,0.068l-0.011,0.069l-0.01,0.069l-0.011,0.068l-0.009,0.069l-0.009,0.068l-0.009,0.069l-0.008,0.068l-0.008,0.069l-0.007,0.068l-0.007,0.068l-0.007,0.069l-0.006,0.068l-0.006,0.068l-0.005,0.068l-0.004,0.068l-0.005,0.068l-0.003,0.069l-0.004,0.068l-0.003,0.067l-0.002,0.068l-0.002,0.068l-0.002,0.068l-0.001,0.067l-0.001,0.068l0,0.068l0,0.067l0.001,0.068l0.001,0.067l0.002,0.067l0.002,0.067l0.002,0.068l0.003,0.066l0.003,0.067l0.004,0.067l0.004,0.067l0.005,0.067l0.005,0.066l0.006,0.067l0.006,0.067l0.006,0.066l0.007,0.066l0.008,0.066l0.007,0.067l0.009,0.066l0.008,0.066l0.01,0.065l0.009,0.066l0.01,0.066l0.011,0.065l0.011,0.066l0.011,0.065l0.012,0.065l0.012,0.066l0.013,0.065l0.013,0.065l0.014,0.065l0.014,0.064l0.015,0.065l0.015,0.064l0.015,0.065l0.016,0.064l0.017,0.064l0.017,0.064l0.017,0.064l0.018,0.064l0.018,0.064l0.019,0.064l0.019,0.063l0.02,0.064l0.02,0.063l0.02,0.063l0.021,0.063l0.022,0.063l0.022,0.063l0.022,0.063l0.023,0.063l0.024,0.062l0.023,0.063l0.025,0.062l0.024,0.062l0.026,0.062l0.026,0.062l0.026,0.062l0.026,0.062l0.028,0.062l0.027,0.061l0.028,0.061l0.029,0.062l0.029,0.061l0.03,0.061l0.03,0.061l0.031,0.06l0.031,0.061l0.031,0.061l0.032,0.06l0.033,0.06l0.033,0.06l0.033,0.06l0.034,0.059l0.034,0.059l0.035,0.059l0.035,0.058l0.035,0.058l0.036,0.058l0.036,0.057l0.036,0.057l0.037,0.056l0.037,0.056l0.037,0.056l0.038,0.056l0.038,0.055l0.039,0.055l0.039,0.054l0.039,0.054l0.039,0.054l0.04,0.054l0.041,0.053l0.04,0.053l0.041,0.052l0.042,0.053l0.041,0.051l0.042,0.052l0.043,0.051l0.042,0.051l0.043,0.051l0.044,0.05l0.044,0.05l0.044,0.049l0.044,0.049l0.045,0.049l0.045,0.049l0.045,0.048l0.046,0.048l0.046,0.048l0.047,0.047l0.047,0.047l0.047,0.046l0.047,0.047l0.048,0.046l0.048,0.045l0.049,0.046l0.048,0.045l0.049,0.044l0.05,0.045l0.05,0.044l0.05,0.043l0.05,0.044l0.051,0.043l0.051,0.042l0.051,0.043l0.052,0.042l0.052,0.042l0.052,0.041l0.053,0.041l0.053,0.041l0.053,0.04l0.054,0.04l0.054,0.04l0.054,0.039l0.054,0.039l0.055,0.039l0.055,0.038l0.055,0.038l0.056,0.038l0.056,0.037l0.056,0.037l0.057,0.037l0.057,0.037l0.057,0.035l0.058,0.036l0.058,0.036l0.058,0.035l0.058,0.034l0.059,0.035l0.059,0.034l0.059,0.033l0.06,0.033l0.059,0.033l0.06,0.033l0.061,0.032l0.061,0.032l0.061,0.032l0.061,0.031l0.061,0.03l0.062,0.031l0.062,0.03l0.062,0.03l0.063,0.029l0.063,0.029l0.063,0.029l0.063,0.028l0.064,0.028l0.064,0.028l0.064,0.027l0.064,0.027l0.065,0.026l0.065,0.026l0.065,0.026l0.065,0.026l0.066,0.025l0.066,0.024l0.066,0.025l0.067,0.024l0.066,0.023l0.067,0.023l0.067,0.023l0.067,0.022l0.068,0.022l0.068,0.022l0.068,0.021l0.068,0.021l0.068,0.021l0.069,0.02l0.069,0.019l0.069,0.02l0.069,0.019l0.07,0.018l0.069,0.018l0.07,0.018l0.071,0.018l0.07,0.017l0.071,0.016l0.07,0.016l0.071,0.016l0.071,0.016l0.071,0.015l0.072,0.014l0.072,0.014l0.072,0.014l0.072,0.014l0.072,0.013l0.073,0.012l0.072,0.013l0.073,0.011l0.073,0.012l0.073,0.011l0.073,0.01l0.074,0.01l0.073,0.01l0.074,0.01l0.074,0.009l0.074,0.008l0.074,0.008l0.075,0.008l0.074,0.007l0.075,0.007l0.074,0.006l0.075,0.006l0.076,0.006l0.075,0.005l0.075,0.005l0.076,0.004l0.075,0.004l0.076,0.004l0.076,0.003l0.076,0.002l0.076,0.003l0.076,0.001l0.076,0.002l0.077,0.001l0.076,0l0.077,0l0.077,0l0.077,-0.001l0.077,-0.001l0.077,-0.002l0.077,-0.002l0.077,-0.002l0.078,-0.003l0.077,-0.004l0.078,-0.004l0.077,-0.004l0.078,-0.005l0.078,-0.005l0.077,-0.005l0.078,-0.006l0.079,-0.007l0.078,-0.007l0.078,-0.007l0.078,-0.008l0.078,-0.008l0.078,-0.009l0.079,-0.009l0.078,-0.01l0.079,-0.01l0.078,-0.01l0.079,-0.011l0.078,-0.012l0.079,-0.011l0.079,-0.013l0.078,-0.012l0.079,-0.014l0.079,-0.013l0.079,-0.014l0.079,-0.015l0.079,-0.015l0.079,-0.015l0.079,-0.016l0.079,-0.017l0.079,-0.017l0.079,-0.017l0.079,-0.018l0.078,-0.018l0.08,-0.019l0.079,-0.019l0.079,-0.019l0.079,-0.021l0.079,-0.02l0.079,-0.021l0.079,-0.022l0.079,-0.021l0.079,-0.023l0.079,-0.023l0.079,-0.023l0.079,-0.024l0.079,-0.024l0.079,-0.025l0.079,-0.025l0.079,-0.026l0.078,-0.026l0.079,-0.027l0.079,-0.027l0.079,-0.027l0.079,-0.028l0.078,-0.029l0.079,-0.029l0.078,-0.029l0.079,-0.03l0.078,-0.031l0.079,-0.031l0.078,-0.031l0.079,-0.032l0.078,-0.032l0.078,-0.033l0.078,-0.034l0.078,-0.033l0.079,-0.035l0.078,-0.034l0.077,-0.036l0.078,-0.036l0.078,-0.036l0.078,-0.036l0.077,-0.038l0.078,-0.037l0.077,-0.038l0.078,-0.039l0.077,-0.039l0.077,-0.04l0.077,-0.04l0.077,-0.041l0.077,-0.041l0.077,-0.042l0.077,-0.042l0.076,-0.042l0.076,-0.043l0.075,-0.043l0.075,-0.043l0.075,-0.044l0.075,-0.044l0.074,-0.045l0.073,-0.045l0.074,-0.045l0.073,-0.045l0.072,-0.046l0.072,-0.046l0.072,-0.046l0.072,-0.047l0.071,-0.047l0.07,-0.048l0.071,-0.047l0.07,-0.048l0.069,-0.049l0.07,-0.048l0.069,-0.049l0.068,-0.05l0.068,-0.049l0.068,-0.05l0.067,-0.05l0.067,-0.05l0.067,-0.051l0.066,-0.051l0.066,-0.051l0.065,-0.052l0.065,-0.052l0.065,-0.052l0.064,-0.052l0.064,-0.053l0.064,-0.053l0.063,-0.053l0.062,-0.054l0.063,-0.054l0.062,-0.054l0.062,-0.054l0.061,-0.055l0.061,-0.054l0.06,-0.056l0.06,-0.055l0.06,-0.055l0.059,-0.056l0.059,-0.056l0.058,-0.057l0.058,-0.056l0.058,-0.057l0.057,-0.057l0.057,-0.057l0.057,-0.058l0.056,-0.058l0.056,-0.058l0.055,-0.058l0.055,-0.058l0.055,-0.059l0.054,-0.059l0.054,-0.059l0.053,-0.059l0.053,-0.06l0.052,-0.06l0.052,-0.06l0.052,-0.06l0.052,-0.06l0.05,-0.06l0.051,-0.061l0.05,-0.061l0.05,-0.061l0.049,-0.062l0.049,-0.061l0.048,-0.062l0.049,-0.062l0.047,-0.062l0.047,-0.062l0.047,-0.063l0.047,-0.062l0.046,-0.063l0.045,-0.063l0.046,-0.063l0.044,-0.063l0.045,-0.064l0.044,-0.063l0.043,-0.064l0.043,-0.064l0.043,-0.064l0.042,-0.064l0.042,-0.064l0.042,-0.065l0.041,-0.065l0.04,-0.065l0.04,-0.065l0.04,-0.065l0.039,-0.065l0.039,-0.065l0.039,-0.066l0.038,-0.065l0.038,-0.066l0.037,-0.066l0.036,-0.065l0.037,-0.067l0.036,-0.066l0.035,-0.066l0.035,-0.066l0.035,-0.067l0.034,-0.067l0.034,-0.066l0.033,-0.067l0.033,-0.067l0.033,-0.067l0.032,-0.067l0.032,-0.067l0.031,-0.067l0.03,-0.068l0.031,-0.067l0.03,-0.068l0.029,-0.067l0.029,-0.068l0.029,-0.068l0.028,-0.068l0.028,-0.067l0.027,-0.068l0.027,-0.068l0.026,-0.068l0.026,-0.068l0.026,-0.069l0.025,-0.068l0.025,-0.068l0.024,-0.068l0.023,-0.069l0.024,-0.068l0.023,-0.069l0.022,-0.068l0.022,-0.068l0.022,-0.069l0.021,-0.069l0.021,-0.068l0.02,-0.069l0.02,-0.068l0.019,-0.069l0.019,-0.069l0.018,-0.068l0.019,-0.069l0.017,-0.069l0.017,-0.069l0.017,-0.068l0.016,-0.069l0.016,-0.069l0.015,-0.069l0.015,-0.068l0.015,-0.069l0.014,-0.069l0.014,-0.069l0.013,-0.068l0.012,-0.069l0.013,-0.069l0.012,-0.068l0.011,-0.069l0.011,-0.069l0.01,-0.068l0.01,-0.069l0.01,-0.068l0.009,-0.069l0.009,-0.068l0.008,-0.069l0.008,-0.068l0.007,-0.069l0.007,-0.068l0.007,-0.068l0.006,-0.069l0.005,-0.068l0.006,-0.068l0.004,-0.068l0.005,-0.068l0.003,-0.068l0.004,-0.068l0.003,-0.068l0.002,-0.068l0.002,-0.068l0.002,-0.067l0.001,-0.068l0,-0.068l0.001,-0.067l-0.001,-0.068l0,-0.067l-0.001,-0.068l-0.002,-0.067l-0.002,-0.067l-0.002,-0.067l-0.003,-0.067l-0.003,-0.067l-0.004,-0.067l-0.005,-0.067l-0.004,-0.066l-0.005,-0.067l-0.006,-0.067l-0.006,-0.066l-0.006,-0.067l-0.007,-0.066l-0.008,-0.066l-0.008,-0.066l-0.008,-0.066l-0.009,-0.066l-0.009,-0.066l-0.009,-0.066l-0.01,-0.065l-0.011,-0.066l-0.011,-0.065l-0.011,-0.066l-0.012,-0.065l-0.013,-0.065l-0.012,-0.065l-0.014,-0.065l-0.013,-0.065l-0.014,-0.065l-0.015,-0.064l-0.015,-0.065l-0.015,-0.064l-0.016,-0.065l-0.017,-0.064l-0.017,-0.064l-0.017,-0.064l-0.018,-0.064l-0.018,-0.064l-0.019,-0.063l-0.019,-0.064l-0.02,-0.063l-0.02,-0.064l-0.02,-0.063l-0.021,-0.063l-0.022,-0.063l-0.022,-0.063l-0.022,-0.063l-0.023,-0.062l-0.024,-0.063l-0.023,-0.062l-0.025,-0.063l-0.025,-0.062l-0.025,-0.062l-0.026,-0.062l-0.026,-0.062l-0.027,-0.061l-0.027,-0.062l-0.027,-0.062l-0.029,-0.061l-0.028,-0.061l-0.029,-0.061l-0.03,-0.061l-0.03,-0.061l-0.031,-0.061l-0.031,-0.06l-0.031,-0.061l-0.033,-0.061l-0.032,-0.06l-0.033,-0.06l-0.034,-0.06l-0.033,-0.059l-0.034,-0.059l-0.035,-0.058l-0.035,-0.059l-0.035,-0.058l-0.036,-0.057l-0.036,-0.057l-0.036,-0.057l-0.037,-0.057l-0.037,-0.056l-0.037,-0.056l-0.038,-0.055l-0.038,-0.056l-0.039,-0.054l-0.039,-0.055l-0.039,-0.054l-0.039,-0.054l-0.04,-0.053l-0.041,-0.054l-0.04,-0.053l-0.041,-0.052l-0.042,-0.052l-0.041,-0.052l-0.042,-0.052l-0.043,-0.051l-0.043,-0.051l-0.043,-0.05l-0.043,-0.05l-0.044,-0.05l-0.044,-0.05l-0.044,-0.049l-0.045,-0.049l-0.045,-0.048l-0.046,-0.049l-0.045,-0.048l-0.046,-0.047l-0.047,-0.048l-0.047,-0.047l-0.047,-0.046l-0.047,-0.046l-0.048,-0.046l-0.048,-0.046l-0.049,-0.045l-0.048,-0.045l-0.049,-0.045l-0.05,-0.044l-0.05,-0.044l-0.05,-0.044l-0.05,-0.043l-0.051,-0.043l-0.051,-0.043l-0.051,-0.042l-0.052,-0.042l-0.052,-0.042l-0.052,-0.041l-0.053,-0.041l-0.053,-0.041l-0.053,-0.041l-0.054,-0.04l-0.054,-0.039l-0.054,-0.04l-0.054,-0.039l-0.055,-0.038l-0.055,-0.039l-0.056,-0.038l-0.055,-0.038l-0.056,-0.037l-0.057,-0.037l-0.056,-0.037l-0.057,-0.036l-0.057,-0.036l-0.058,-0.036l-0.058,-0.035l-0.058,-0.035l-0.058,-0.035l-0.059,-0.034l-0.059,-0.034l-0.059,-0.034l-0.06,-0.033l-0.06,-0.033l-0.06,-0.032l-0.06,-0.033l-0.061,-0.032l-0.061,-0.031l-0.061,-0.031l-0.061,-0.031l-0.062,-0.031l-0.062,-0.03l-0.062,-0.029l-0.063,-0.03l-0.063,-0.029l-0.063,-0.028l-0.063,-0.029l-0.064,-0.028l-0.064,-0.027l-0.064,-0.028l-0.064,-0.026l-0.065,-0.027l-0.065,-0.026l-0.065,-0.026l-0.065,-0.025l-0.066,-0.025l-0.066,-0.025l-0.066,-0.024l-0.067,-0.024l-0.066,-0.024l-0.067,-0.023l-0.067,-0.022l-0.068,-0.023l-0.067,-0.022l-0.068,-0.022l-0.068,-0.021l-0.068,-0.021l-0.068,-0.02l-0.069,-0.02l-0.069,-0.02l-0.069,-0.019l-0.069,-0.019l-0.07,-0.019l-0.07,-0.018l-0.069,-0.018l-0.071,-0.017l-0.07,-0.017l-0.071,-0.017l-0.07,-0.016l-0.071,-0.016l-0.071,-0.015l-0.072,-0.015l-0.071,-0.015l-0.072,-0.014l-0.072,-0.014l-0.072,-0.013l-0.072,-0.013l-0.073,-0.013l-0.072,-0.012l-0.073,-0.012l-0.073,-0.011l-0.073,-0.011l-0.073,-0.011l-0.074,-0.01l-0.073,-0.01l-0.074,-0.009l-0.074,-0.009l-0.074,-0.009l-0.074,-0.008l-0.074,-0.007l-0.075,-0.008l-0.075,-0.007l-0.075,-0.006l-0.075,-0.006l-0.075,-0.006l-0.075,-0.005l-0.075,-0.005l-0.076,-0.004l-0.075,-0.004l-0.076,-0.003l-0.076,-0.003l-0.076,-0.003l-0.076,-0.002l-0.076,-0.002l-0.077,-0.001l-0.076,-0.001l-0.077,-0.001l-0.076,0l-0.077,0Z" style="fill:#fff;"/><path d="M4.159,35.455l1.89,-2.341l1.102,2.02l-2.992,0.321Z" style="fill:#fff;"/></g></svg>