<?xml version="1.0" encoding="UTF-8" standalone="no"?><!DOCTYPE svg PUBLIC "-//W3C//DTD SVG 1.1//EN" "http://www.w3.org/Graphics/SVG/1.1/DTD/svg11.dtd"><svg width="100%" height="100%" viewBox="0 0 453 518" version="1.1" xmlns="http://www.w3.org/2000/svg" xmlns:xlink="http://www.w3.org/1999/xlink" xml:space="preserve" xmlns:serif="http://www.serif.com/" style="fill-rule:evenodd;clip-rule:evenodd;stroke-linejoin:round;stroke-miterlimit:1.41421;"><g><path d="M392.386,273.19l-0.032,0.007c0,0 -1.506,0.291 -4.144,0.8c-1.31,0.253 -2.906,0.562 -4.735,0.915c-1.842,0.228 -3.918,0.486 -6.185,0.767c-1.136,0.118 -2.301,0.333 -3.531,0.386c-1.224,0.075 -2.491,0.152 -3.792,0.234c-1.296,0.079 -2.63,0.16 -3.99,0.244c-1.366,0.013 -2.761,0.022 -4.179,0.035c-1.415,0.008 -2.854,0.017 -4.308,0.026c-1.456,-0.061 -2.93,-0.12 -4.416,-0.184c-1.482,-0.075 -2.975,-0.106 -4.474,-0.216c-1.495,-0.132 -3,-0.265 -4.5,-0.399c-3.004,-0.208 -5.996,-0.676 -8.935,-1.035c-2.938,-0.389 -5.818,-0.932 -8.598,-1.387c-2.775,-0.582 -5.46,-1.037 -7.982,-1.657c-1.261,-0.29 -2.488,-0.575 -3.674,-0.851c-1.18,-0.305 -2.321,-0.599 -3.414,-0.882c-1.229,-0.305 -2.383,-0.632 -3.477,-0.948c1.867,-1.596 3.717,-3.201 5.529,-4.799c1.293,-1.216 2.58,-2.424 3.855,-3.623c1.275,-1.197 2.546,-2.37 3.744,-3.635c2.421,-2.489 4.839,-4.857 7.052,-7.402c1.123,-1.243 2.229,-2.474 3.326,-3.689c1.056,-1.268 2.096,-2.521 3.123,-3.755c4.119,-4.915 7.711,-9.905 10.915,-14.581c1.573,-2.37 3.01,-4.709 4.394,-6.902c1.29,-2.289 2.554,-4.409 3.655,-6.477c1.05,-2.111 2.091,-4.028 2.94,-5.887c0.827,-1.877 1.608,-3.578 2.264,-5.141c0.604,-1.597 1.142,-3.024 1.612,-4.264c0.489,-1.222 0.753,-2.351 1.044,-3.218c0.536,-1.753 0.822,-2.689 0.822,-2.689c0.088,-0.286 -0.014,-0.614 -0.249,-0.758c-0.256,-0.158 -0.572,-0.039 -0.706,0.264l-0.019,0.045c0,0 -0.38,0.867 -1.093,2.493c-0.378,0.8 -0.744,1.834 -1.354,2.953c-0.585,1.126 -1.256,2.42 -2.01,3.87c-0.804,1.412 -1.742,2.94 -2.731,4.612c-1.013,1.656 -2.229,3.356 -3.454,5.211c-1.274,1.821 -2.721,3.673 -4.188,5.662c-1.566,1.901 -3.184,3.917 -4.937,5.944c-3.563,3.995 -7.501,8.206 -11.938,12.268c-1.103,1.021 -2.22,2.053 -3.354,3.1c-1.166,0.99 -2.349,1.994 -3.545,3.008c-2.35,2.075 -4.904,3.967 -7.438,5.955c-1.256,1.015 -2.585,1.936 -3.912,2.877c-1.324,0.941 -2.658,1.888 -4,2.841c-2.736,1.806 -5.509,3.615 -8.325,5.373c-1.426,0.837 -2.86,1.677 -4.299,2.521c-1.437,0.839 -2.87,1.712 -4.326,2.441c-1.445,0.76 -2.893,1.523 -4.341,2.286l-2.181,1.141l-2.319,1.101l-4.642,2.2l-1.157,0.551l-0.289,0.138l-0.073,0.034c0.265,-0.148 0.027,-0.02 0.066,-0.04l-0.162,0.079l-0.641,0.32l-2.568,1.295c-3.414,1.765 -6.688,3.908 -9.846,6.238c-6.293,4.715 -11.818,10.595 -16.507,16.867c-2.725,3.654 -5.156,7.453 -7.335,11.29c-0.027,-0.112 -0.053,-0.223 -0.082,-0.334c-0.904,-3.411 -1.773,-6.858 -2.715,-10.222c-3.189,-11.69 -7.594,-23.227 -7.854,-35.665c-0.189,-9.163 2.123,-16.49 4.547,-24.921c1.12,-3.813 2.353,-7.955 3.825,-12.253c1.434,-4.323 3.082,-8.814 4.88,-13.418c0.934,-2.275 1.833,-4.635 2.86,-6.938c0.502,-1.162 1.009,-2.331 1.518,-3.508c0.535,-1.155 1.073,-2.319 1.612,-3.486c2.154,-4.687 4.56,-9.282 7.046,-13.84c2.565,-4.476 5.21,-8.914 8.058,-13.054c0.712,-1.037 1.421,-2.07 2.126,-3.098c0.71,-1.026 1.472,-1.979 2.201,-2.968c0.736,-0.978 1.471,-1.951 2.199,-2.916c0.765,-0.924 1.523,-1.841 2.275,-2.75c0.762,-0.901 1.484,-1.846 2.263,-2.69c0.778,-0.85 1.548,-1.691 2.311,-2.524c1.501,-1.714 3.08,-3.219 4.61,-4.712c0.772,-0.735 1.505,-1.515 2.281,-2.189c0.778,-0.675 1.542,-1.339 2.295,-1.993c0.757,-0.656 1.498,-1.301 2.227,-1.934c0.758,-0.581 1.502,-1.151 2.228,-1.709c0.734,-0.559 1.45,-1.105 2.151,-1.638c0.352,-0.268 0.699,-0.531 1.042,-0.793c0.355,-0.234 0.705,-0.465 1.051,-0.693c1.393,-0.916 2.711,-1.786 3.953,-2.602c2.531,-1.52 4.797,-2.728 6.66,-3.756c3.828,-1.766 6.016,-2.774 6.016,-2.774l0.035,-0.016c0.24,-0.112 0.381,-0.419 0.317,-0.725c-0.068,-0.331 -0.352,-0.534 -0.632,-0.452c0,0 -2.314,0.677 -6.366,1.86c-1.987,0.744 -4.426,1.617 -7.185,2.772c-1.36,0.639 -2.808,1.319 -4.335,2.037c-0.383,0.182 -0.77,0.364 -1.165,0.549c-0.381,0.212 -0.766,0.427 -1.157,0.647c-0.78,0.438 -1.581,0.885 -2.398,1.344c-0.818,0.462 -1.653,0.934 -2.505,1.416c-0.823,0.536 -1.665,1.085 -2.521,1.64c-0.858,0.561 -1.731,1.129 -2.617,1.708c-0.887,0.58 -1.73,1.265 -2.62,1.907c-1.766,1.309 -3.598,2.639 -5.359,4.178c-0.897,0.752 -1.803,1.509 -2.716,2.276c-0.917,0.764 -1.778,1.627 -2.682,2.451c-0.897,0.836 -1.804,1.679 -2.715,2.527c-0.878,0.897 -1.761,1.8 -2.651,2.706c-0.88,0.921 -1.801,1.813 -2.665,2.776c-0.862,0.968 -1.733,1.942 -2.601,2.917c-3.492,3.913 -6.802,8.159 -10.045,12.492c-3.158,4.403 -6.252,8.896 -9.077,13.503c-0.711,1.15 -1.419,2.297 -2.122,3.438c-0.677,1.161 -1.349,2.317 -2.017,3.466c-1.364,2.286 -2.589,4.624 -3.852,6.898c-2.446,4.588 -4.726,9.098 -6.76,13.459c-1.946,4.082 -3.65,8.03 -5.217,11.73c-0.68,-2.763 -1.347,-5.518 -1.976,-8.252c-2.866,-12.385 -5.197,-24.481 -6.947,-36.07c-1.736,-11.589 -2.995,-22.663 -3.658,-32.951c-0.682,-10.285 -1.025,-19.78 -0.972,-28.203c0.002,-2.11 0.006,-4.151 0.008,-6.123c0.054,-1.97 0.106,-3.869 0.157,-5.693c0.05,-1.829 0.097,-3.581 0.144,-5.257c0.089,-1.674 0.175,-3.269 0.254,-4.783c0.177,-3.029 0.284,-5.746 0.468,-8.097c0.192,-2.353 0.354,-4.355 0.486,-5.976c0.264,-3.25 0.405,-4.984 0.407,-5.005c0.025,-0.306 -0.147,-0.595 -0.409,-0.663c-0.281,-0.073 -0.561,0.139 -0.623,0.472c0,0 -0.315,1.706 -0.906,4.906c-0.297,1.602 -0.662,3.578 -1.091,5.903c-0.421,2.327 -0.804,5.022 -1.29,8.035c-0.235,1.51 -0.482,3.099 -0.741,4.767c-0.217,1.677 -0.444,3.431 -0.681,5.258c-0.237,1.833 -0.483,3.739 -0.739,5.717c-0.205,1.986 -0.416,4.045 -0.634,6.171c-0.914,8.511 -1.546,18.181 -1.915,28.782c-0.385,10.601 -0.248,22.13 0.328,34.318c0.592,12.186 1.736,25.022 3.393,38.196c1.642,13.178 3.818,26.685 6.212,40.238c2.376,13.563 4.962,27.183 7.177,40.608c0.292,1.699 0.559,3.387 0.82,5.074c-6.331,-6.362 -13.551,-12.733 -21.594,-18.531c-5.889,-4.249 -12.202,-8.174 -18.802,-11.601c-6.594,-3.437 -13.489,-6.339 -20.492,-8.626c-6.846,-2.25 -12.506,-2.599 -18.515,-7.993c-3.398,-3.052 -6.537,-8.275 -9.161,-12.278c-0.813,-1.441 -1.653,-2.93 -2.517,-4.463c-0.427,-0.773 -0.888,-1.536 -1.303,-2.348c-0.396,-0.83 -0.798,-1.67 -1.201,-2.521c-0.803,-1.706 -1.664,-3.428 -2.477,-5.225c-0.736,-1.852 -1.486,-3.734 -2.246,-5.638c-0.381,-0.955 -0.766,-1.916 -1.15,-2.883c-0.349,-0.987 -0.658,-2.001 -0.992,-3.007c-0.659,-2.024 -1.324,-4.064 -1.991,-6.111l-0.498,-1.543l-0.407,-1.584l-0.817,-3.177c-0.547,-2.122 -1.094,-4.246 -1.64,-6.362c-0.5,-2.133 -0.858,-4.303 -1.292,-6.437c-0.416,-2.143 -0.828,-4.27 -1.237,-6.37c-0.229,-1.047 -0.367,-2.107 -0.503,-3.16c-0.141,-1.053 -0.283,-2.097 -0.423,-3.135c-0.278,-2.078 -0.553,-4.119 -0.823,-6.119c-0.256,-2.004 -0.583,-3.958 -0.686,-5.887c-0.304,-3.855 -0.593,-7.499 -0.858,-10.863c-0.114,-1.686 -0.304,-3.302 -0.338,-4.844c-0.042,-1.542 -0.081,-3.005 -0.117,-4.381c-0.073,-2.755 -0.138,-5.157 -0.191,-7.136c-0.106,-3.964 -0.164,-6.23 -0.164,-6.23l-0.003,-0.039c-0.008,-0.313 -0.217,-0.572 -0.486,-0.593c-0.288,-0.025 -0.537,0.232 -0.557,0.573c0,0 -0.131,2.268 -0.361,6.238c-0.114,1.988 -0.254,4.405 -0.412,7.176c-0.08,1.388 -0.165,2.864 -0.253,4.42c-0.096,1.559 -0.043,3.199 -0.072,4.91c-0.018,3.431 -0.039,7.15 -0.059,11.082c-0.059,1.972 0.101,3.988 0.192,6.054c0.102,2.068 0.206,4.182 0.312,6.333c0.052,1.076 0.107,2.163 0.162,3.255c0.048,1.096 0.101,2.199 0.242,3.298c0.237,2.209 0.477,4.443 0.719,6.696c0.258,2.253 0.444,4.543 0.775,6.814c0.381,2.267 0.762,4.543 1.144,6.819l0.577,3.422l0.289,1.711l0.383,1.683c0.521,2.244 1.041,4.481 1.556,6.699c0.264,1.109 0.504,2.224 0.786,3.319c0.324,1.082 0.645,2.157 0.966,3.225c0.644,2.143 1.281,4.26 1.907,6.343c0.713,2.049 1.484,4.037 2.207,6.005c0.367,0.98 0.728,1.951 1.086,2.911c0.383,0.95 0.817,1.855 1.216,2.768c0.819,1.819 1.617,3.587 2.388,5.296c0.876,1.658 1.722,3.256 2.535,4.793c0.043,0.084 0.091,0.159 0.135,0.241c-1.965,-0.47 -3.917,-0.941 -5.839,-1.498c-3.093,-0.886 -6.161,-1.689 -9.13,-2.599c-2.953,-0.948 -5.868,-1.833 -8.68,-2.777c-2.79,-1.004 -5.527,-1.939 -8.147,-2.926c-2.6,-1.046 -5.142,-1.995 -7.54,-3.024c-4.794,-2.061 -9.159,-4.085 -12.943,-6.095c-0.95,-0.501 -1.867,-0.989 -2.751,-1.457c-0.872,-0.501 -1.712,-0.985 -2.518,-1.449c-1.629,-0.912 -3.072,-1.846 -4.388,-2.678c-1.322,-0.824 -2.446,-1.657 -3.457,-2.334c-0.97,-0.737 -1.825,-1.332 -2.473,-1.873c-0.662,-0.526 -1.159,-0.941 -1.484,-1.233c-0.334,-0.286 -0.482,-0.435 -0.482,-0.435c-0.199,-0.2 -0.502,-0.196 -0.698,0.021c-0.21,0.235 -0.221,0.627 -0.023,0.876c0,0 0.617,0.783 1.846,2.05c0.604,0.661 1.394,1.391 2.302,2.299c0.941,0.841 1.997,1.871 3.238,2.912c1.237,1.051 2.602,2.232 4.144,3.41c0.766,0.599 1.564,1.223 2.393,1.869c0.843,0.616 1.717,1.254 2.621,1.912c3.616,2.643 7.81,5.384 12.453,8.243c2.324,1.426 4.785,2.792 7.32,4.272c2.554,1.418 5.222,2.801 7.957,4.27c2.754,1.406 5.606,2.766 8.519,4.207c2.921,1.4 5.938,2.701 8.998,4.097c3.05,1.406 6.247,2.617 9.444,3.966c3.228,1.374 6.419,2.54 9.65,3.764c1.616,0.609 3.238,1.222 4.864,1.836l2.455,0.923c0.777,0.292 1.553,0.584 2.323,0.91c3.09,1.237 6.143,2.623 9.139,4.134c18.084,9.093 35.496,21.734 47.769,38.05c9.946,13.222 11.55,34.673 12.372,50.755c1.094,21.408 -2.872,43.86 -4.273,65.238c-1.16,17.693 -6.702,34.771 -11.649,51.931c-2.037,7.065 -5.31,16.746 -5.107,23.995c-0.017,-0.623 48.997,-0.565 53.855,-0.565c0.383,-2.709 0.817,-5.895 1.275,-9.544c0.812,-6.256 1.68,-13.844 2.6,-22.544c0.862,-8.715 1.789,-18.537 2.525,-29.3c0.185,-2.689 0.374,-5.435 0.566,-8.229c0.151,-2.806 0.304,-5.665 0.462,-8.572c0.358,-5.797 0.488,-11.849 0.736,-18.028c0.271,-12.42 0.464,-25.508 -0.058,-39.15c-0.099,-5.463 -0.464,-11.047 -0.809,-16.668c0.338,-2.096 0.362,-4.26 0.044,-6.401c0.418,-4.465 1.07,-9.511 2.114,-14.962c1.971,-10.308 5.403,-22.046 11.442,-32.707c3.017,-5.31 6.649,-10.382 11.01,-14.701c2.196,-2.133 4.507,-4.184 7.004,-5.965l1.887,-1.325l0.473,-0.336l0.118,-0.083c0.085,-0.05 -0.106,0.052 0.205,-0.122l0.068,-0.045c0,0 0.211,-0.142 0.261,-0.175c14.226,-9.49 28.101,-3.236 43.103,-2.529c2.932,0.012 5.955,0.088 9.026,0.004c3.073,-0.112 6.184,-0.132 9.297,-0.41c1.552,-0.112 3.106,-0.223 4.652,-0.333c1.544,-0.134 3.082,-0.347 4.606,-0.515c1.519,-0.18 3.03,-0.359 4.521,-0.538c1.485,-0.246 2.952,-0.49 4.394,-0.731c1.438,-0.245 2.851,-0.484 4.236,-0.718c1.375,-0.307 2.721,-0.608 4.031,-0.902c1.306,-0.292 2.576,-0.577 3.805,-0.851c1.231,-0.253 2.399,-0.661 3.529,-0.965c2.249,-0.648 4.308,-1.246 6.136,-1.772c1.797,-0.65 3.364,-1.219 4.655,-1.685c2.572,-0.931 4.041,-1.463 4.041,-1.463c0.248,-0.088 0.406,-0.383 0.363,-0.69c-0.047,-0.338 -0.315,-0.567 -0.601,-0.512Z" style="fill:#45372a;fill-rule:nonzero;"/><path d="M158.999,231.365c0,0 1.38,0.364 3.25,1.498c1.897,1.124 4.151,3.1 5.821,6.095c0.785,1.494 1.511,3.23 1.798,5.182c0.16,0.977 0.255,2.001 0.263,3.069c-0.033,1.073 -0.151,2.19 -0.372,3.331c-0.201,1.137 -0.567,2.315 -1.062,3.501c-0.506,1.188 -1.049,2.369 -1.872,3.553c-0.802,1.18 -1.702,2.331 -2.799,3.427c-1.136,1.094 -2.409,2.113 -3.824,3.016c-3.471,-5.607 -5.531,-9.429 -6.315,-12.982c-0.427,-1.761 -0.521,-3.394 -0.481,-4.958c0.104,-1.565 0.331,-3.034 0.727,-4.441c0.426,-1.413 0.862,-2.711 1.408,-3.93c0.554,-1.224 1.101,-2.321 1.592,-3.254c1.003,-1.877 1.866,-3.107 1.866,-3.107Z" style="fill:#578a3d;fill-rule:nonzero;"/><path d="M98.63,98.239c0,0 1.366,1.077 3.078,2.632c0.853,0.779 1.769,1.64 2.762,2.64c0.992,1.02 1.832,1.992 2.691,3.274c0.828,1.26 1.456,2.571 1.907,4.294c0.218,0.849 0.35,1.693 0.42,2.691c0.07,1.008 0.054,2.072 -0.065,3.19c-0.114,1.087 -0.349,2.397 -0.698,3.666c-0.345,1.28 -0.814,2.617 -1.474,4.05c-0.662,1.416 -1.404,2.814 -2.42,4.25c-1.012,1.428 -2.188,2.814 -3.536,4.103c-2.467,-2.461 -4.295,-4.404 -5.816,-6.324c-0.724,-0.933 -1.349,-1.858 -1.903,-2.817c-0.544,-0.954 -0.958,-1.839 -1.308,-2.807c-0.71,-1.962 -1.033,-3.825 -1.091,-5.858c-0.026,-0.996 0.01,-1.921 0.118,-2.902c0.114,-0.993 0.285,-1.947 0.498,-2.854c0.398,-1.774 1.094,-3.552 1.803,-4.976c0.361,-0.724 0.718,-1.37 1.107,-1.972c0.406,-0.61 0.806,-1.146 1.187,-1.615c1.53,-1.87 2.74,-2.665 2.74,-2.665Z" style="fill:#578a3d;fill-rule:nonzero;"/><path d="M124.224,127.938c0.001,0 0.881,1.128 1.752,3.412c0.795,2.231 1.458,5.796 0.674,9.842c-0.737,4.009 -2.907,8.279 -6.225,11.069c-1.664,1.443 -3.594,2.547 -5.85,3.419c-2.266,0.887 -4.876,1.525 -8.045,2.342c-0.204,-3.484 0.234,-6.703 0.928,-9.45c0.708,-2.765 1.648,-5.029 2.624,-6.907c1.988,-3.757 4.013,-5.874 5.99,-7.583c1.973,-1.674 3.953,-3.07 5.518,-4.235c0.771,-0.573 1.403,-1.065 1.881,-1.396c0.48,-0.327 0.753,-0.513 0.753,-0.513Z" style="fill:#78be47;fill-rule:nonzero;"/><path d="M135.755,157.36c0,0 0.889,1.482 1.62,4.175c0.352,1.339 0.729,3.044 0.698,4.847c0.009,0.919 -0.035,1.897 -0.148,2.922c-0.107,1.027 -0.271,2.111 -0.624,3.123c-0.682,2.041 -1.557,4.352 -3.156,6.169c-0.77,0.938 -1.615,1.876 -2.595,2.68c-1.028,0.734 -2.151,1.397 -3.35,1.947c-1.167,0.61 -2.553,0.839 -3.943,1.008c-1.391,0.16 -2.824,0.193 -4.355,-0.217c-1.517,-0.387 -3.004,-0.788 -4.509,-1.72c-1.504,-0.926 -2.96,-2.066 -4.3,-3.428c3.947,-6.336 5.779,-10.453 7.845,-12.98c0.478,-0.702 0.975,-1.271 1.505,-1.738c0.548,-0.437 0.986,-1.013 1.539,-1.377c0.514,-0.421 1.156,-0.648 1.668,-1.035c0.541,-0.351 1.117,-0.64 1.72,-0.891c0.301,-0.126 0.61,-0.242 0.923,-0.351c0.295,-0.13 0.583,-0.26 0.87,-0.387c0.583,-0.248 1.182,-0.466 1.781,-0.665c1.242,-0.364 2.331,-0.771 3.316,-1.1c1.988,-0.649 3.495,-0.982 3.495,-0.982Z" style="fill:#578a3d;fill-rule:nonzero;"/><path d="M67.585,120.332c0,0 1.427,0.132 3.43,0.688c1.971,0.596 4.651,1.411 7.257,3.002c1.357,0.763 2.609,1.794 3.963,3.029c0.662,0.629 1.285,1.352 1.917,2.151c0.657,0.785 1.289,1.669 1.892,2.666c2.456,3.95 4.741,9.634 6.336,17.928c-6.128,0.274 -11.01,-1.404 -14.812,-4.218c-1.883,-1.448 -3.509,-3.08 -4.822,-4.954c-1.346,-1.786 -2.362,-3.803 -3.157,-5.729c-0.823,-1.878 -1.292,-3.894 -1.651,-5.611c-0.372,-1.716 -0.495,-3.342 -0.529,-4.686c-0.078,-2.68 0.176,-4.266 0.176,-4.266Z" style="fill:#578a3d;fill-rule:nonzero;"/><path d="M62.006,158.37c0,0 1.316,-0.773 3.427,-1.327c2.108,-0.548 5.014,-0.91 8.186,-0.153c3.184,0.738 6.603,2.601 9.971,6.397c3.406,3.799 6.686,9.624 10.423,18.554c-5.997,3.091 -11.441,2.755 -15.793,0.875c-4.355,-1.937 -7.673,-5.404 -10.064,-9.06c-2.404,-3.655 -3.934,-7.488 -4.864,-10.398c-0.934,-2.912 -1.286,-4.888 -1.286,-4.888Z" style="fill:#4e7636;fill-rule:nonzero;"/><path d="M146.727,186.802c0,0 0.109,0.374 0.22,1.102c0.097,0.715 0.246,1.848 0.144,3.255c-0.163,1.331 -0.429,3.17 -1.242,4.915c-0.382,0.914 -0.853,1.889 -1.457,2.742c-0.592,0.89 -1.282,1.848 -2.065,2.613c-3.135,3.331 -7.652,5.504 -12.257,5.789c-2.362,0.177 -4.694,-0.075 -7.254,-0.599c-2.57,-0.473 -5.273,-1.425 -8.896,-1.443c1.095,-3.784 3.463,-6.777 5.737,-8.919c2.318,-2.177 4.662,-3.608 6.741,-4.634c4.255,-2.039 7.522,-2.569 10.203,-2.892c0.335,-0.039 0.674,-0.065 1.014,-0.085c0.313,-0.039 0.621,-0.075 0.921,-0.111c0.319,-0.025 0.63,-0.047 0.936,-0.071c0.303,-0.026 0.567,-0.084 0.858,-0.116c1.19,-0.1 2.207,-0.354 3.187,-0.557c0.963,-0.215 1.698,-0.54 2.292,-0.704c0.589,-0.183 0.918,-0.285 0.918,-0.285Z" style="fill:#578a3d;fill-rule:nonzero;"/><path d="M231.544,59.816c0,0 0.73,1.487 1.201,4.059c0.54,2.604 0.501,6.23 -0.937,9.967c-0.377,0.881 -0.831,1.77 -1.367,2.641c-0.269,0.429 -0.558,0.879 -0.868,1.277c-0.315,0.375 -0.646,0.739 -0.999,1.093c-0.701,0.701 -1.492,1.384 -2.345,1.94c-0.834,0.493 -1.742,0.911 -2.725,1.232c-0.998,0.355 -1.974,0.454 -3.07,0.51c-1.09,0.045 -2.24,-0.034 -3.427,-0.285c-2.433,-0.476 -5.091,-1.454 -8.33,-2.96c1.393,-7.16 4.063,-11.746 6.381,-14.415c0.554,-0.673 1.128,-1.233 1.722,-1.7c0.611,-0.464 1.067,-0.864 1.644,-1.167c1.176,-0.588 2.154,-0.997 3.312,-1.206c2.168,-0.495 4.617,-0.549 6.47,-0.797c1.898,-0.174 3.338,-0.189 3.338,-0.189Z" style="fill:#4e7636;fill-rule:nonzero;"/><path d="M190.624,44.535c0,0 1.062,0.933 2.428,2.278c1.402,1.37 3.156,3.001 4.64,4.986c1.485,2.02 2.708,4.501 3.042,8.487c0.15,1.965 0.071,4.312 -0.476,6.96c-0.546,2.631 -1.557,5.585 -3.351,8.366c-2.186,-1.819 -3.992,-3.291 -5.463,-4.819c-1.466,-1.51 -2.631,-3.083 -3.504,-4.774c-1.757,-3.347 -2.363,-7.278 -2.056,-10.777c0.29,-3.514 1.481,-6.399 2.615,-8.153c0.553,-0.886 1.122,-1.525 1.501,-1.939c0.388,-0.415 0.624,-0.615 0.624,-0.615Z" style="fill:#578a3d;fill-rule:nonzero;"/><path d="M237.399,90.201c0,0 -0.035,2.299 -0.558,5.622c-0.511,3.335 -1.559,7.655 -3.633,11.646c-1.067,1.952 -2.323,3.909 -3.976,5.433c-0.817,0.774 -1.694,1.497 -2.656,2.095c-0.982,0.562 -2.033,1.027 -3.145,1.367c-4.47,1.267 -10.258,0.115 -16.166,-5.868c3.703,-8.052 6.683,-13.116 9.735,-16.326c3.01,-3.261 6.101,-4.732 9.091,-5.348c2.975,-0.611 5.803,-0.273 7.884,0.198c2.084,0.486 3.424,1.181 3.424,1.181Z" style="fill:#578a3d;fill-rule:nonzero;"/><path d="M162.776,133.534c0,0 1.564,-0.568 3.74,-1.013c2.15,-0.4 4.982,-0.906 7.681,-0.497c1.404,0.167 2.695,0.644 4.07,1.409c0.674,0.394 1.316,0.899 1.957,1.518c0.666,0.602 1.31,1.331 1.931,2.207c2.5,3.473 4.902,9.242 6.598,18.561c-6.036,3.05 -10.897,3.289 -14.805,1.727c-1.952,-0.811 -3.643,-1.99 -5.069,-3.529c-1.431,-1.45 -2.577,-3.28 -3.476,-5.099c-0.915,-1.768 -1.517,-3.795 -1.955,-5.559c-0.446,-1.76 -0.646,-3.498 -0.734,-4.96c-0.181,-2.911 0.062,-4.765 0.062,-4.765Z" style="fill:#578a3d;fill-rule:nonzero;"/><path d="M237.399,125.444c0,0 -0.004,0.493 -0.08,1.36c-0.081,0.853 -0.221,2.137 -0.546,3.6c-0.628,2.944 -2.018,6.802 -4.299,10.053c-2.261,3.265 -5.323,5.817 -8.882,6.715c-1.814,0.46 -3.729,0.532 -5.955,0.322c-2.233,-0.181 -4.765,-0.715 -8.014,-0.686c0.416,-4.429 1.733,-8.337 3.27,-11.398c1.556,-3.097 3.336,-5.366 5.054,-7.031c3.487,-3.348 6.714,-4.348 9.458,-4.59c2.745,-0.222 5.14,0.346 6.959,0.772c0.92,0.248 1.65,0.419 2.193,0.599c0.535,0.164 0.842,0.284 0.842,0.284Z" style="fill:#78be47;fill-rule:nonzero;"/><path d="M242.95,155.643c0,0 -0.242,2.095 -1.188,5.327c-0.915,3.291 -2.702,7.51 -5.578,11.372c-1.429,1.777 -3.145,3.712 -5.005,4.879c-0.932,0.622 -1.928,1.212 -2.937,1.622c-0.993,0.357 -2.028,0.611 -3.084,0.737c-4.215,0.391 -8.471,-1.822 -12.838,-7.523c4.751,-7.47 8.974,-11.803 12.393,-14.282c1.687,-1.29 3.266,-2.027 4.665,-2.597c1.45,-0.448 2.736,-0.787 4.005,-0.832c0.32,-0.002 0.633,-0.002 0.941,-0.002c0.301,-0.025 0.601,-0.037 0.895,-0.038c0.593,0 1.17,0.041 1.733,0.111c1.132,0.193 2.144,0.259 3.031,0.43c1.773,0.324 2.967,0.796 2.967,0.796Z" style="fill:#578a3d;fill-rule:nonzero;"/><path d="M293.606,86.978c0,0 0.705,2.087 1.723,5.098c0.959,2.908 2.326,6.549 2.951,10.382c0.623,3.868 0.506,8.087 -1.602,12.859c-2.122,4.734 -6.225,10.137 -13.68,15.878c-4.932,-7.419 -6.983,-14.235 -7.028,-20.33c-0.059,-6.074 1.825,-11.31 4.505,-15.215c2.661,-3.925 6.033,-6.405 8.693,-7.54c1.28,-0.59 2.459,-0.855 3.223,-0.99c0.778,-0.134 1.215,-0.142 1.215,-0.142Z" style="fill:#4e7636;fill-rule:nonzero;"/><path d="M334.2,98.77c0,0.003 0.031,1.846 -0.45,4.449c-0.465,2.584 -1.506,5.898 -3.13,8.649c-1.62,2.78 -3.693,4.871 -6.261,5.586c-1.34,0.384 -2.872,0.415 -4.942,0.557c-2.08,0.146 -4.791,0.456 -8.253,1.731c-1.403,-3.422 -1.667,-7.181 -1.057,-10.507c0.599,-3.368 2.029,-6.114 3.603,-8.186c1.603,-2.102 3.356,-3.4 5.046,-4.281c1.679,-0.833 3.315,-1.213 4.8,-1.274c2.99,-0.136 5.553,0.794 7.474,1.629c1.908,0.841 3.17,1.65 3.17,1.647Z" style="fill:#578a3d;fill-rule:nonzero;"/><path d="M332.637,143.134c0,0 -0.472,1.83 -1.685,4.21c-1.203,2.411 -3.211,5.219 -6.073,7.073c-1.423,0.879 -3.056,1.609 -4.828,1.749c-0.884,0.084 -1.81,0.092 -2.758,-0.06c-0.945,-0.181 -1.916,-0.486 -2.894,-0.932c-3.878,-1.84 -8.07,-6.315 -10.544,-14.532c5.442,-4.355 9.121,-6.682 12.298,-7.335c1.583,-0.384 3.003,-0.287 4.34,-0.024c1.335,0.342 2.568,0.88 3.732,1.614c1.167,0.777 2.241,1.583 3.237,2.508c1,0.938 1.896,1.858 2.657,2.682c1.531,1.673 2.518,3.047 2.518,3.047Z" style="fill:#78be47;fill-rule:nonzero;"/><path d="M312.178,163.109c0,0.001 -0.322,2.123 -1.428,5.018c-1.107,2.867 -3.074,6.443 -6.223,8.943c-3.123,2.462 -7.465,3.889 -12.66,1.979c-2.575,-0.902 -5.359,-2.715 -8.091,-5.542c-2.718,-2.824 -5.422,-6.755 -7.487,-11.795c3.035,-1.109 5.525,-2.283 7.794,-3.144c2.261,-0.86 4.297,-1.477 6.228,-1.828c3.842,-0.657 7.3,-0.224 10.453,0.726c3.131,0.933 5.943,2.373 8.016,3.513c1.048,0.612 1.879,1.083 2.475,1.487c0.592,0.388 0.923,0.643 0.923,0.643Z" style="fill:#578a3d;fill-rule:nonzero;"/><path d="M260.87,104.255c0,0 0.89,1.984 1.944,4.698c1.116,2.77 2.524,6.118 3.566,9.369c1.054,3.325 1.564,6.535 0.699,11.135c-0.914,4.552 -3.098,10.779 -7.794,19.196c-6.547,-4.65 -10.381,-10.475 -11.834,-16.766c-1.515,-6.23 -0.497,-12.618 1.665,-17.198c2.154,-4.653 5.289,-7.433 7.66,-8.812c1.195,-0.705 2.256,-1.081 2.962,-1.317c0.72,-0.232 1.132,-0.305 1.132,-0.305Z" style="fill:#578a3d;fill-rule:nonzero;"/><path d="M294.197,194.532c0,0 -0.131,0.459 -0.441,1.231c-0.313,0.763 -0.807,1.882 -1.577,3.099c-1.516,2.4 -4.264,5.367 -8.266,6.868c-3.94,1.511 -9.071,1.481 -13.733,-1.402c-4.732,-2.828 -8.784,-8.284 -11.799,-16.91c6.809,-2.834 12.112,-3.449 16.131,-3.23c4.048,0.272 6.96,1.51 9.594,3.069c2.597,1.556 4.986,3.404 6.899,4.814c0.962,0.725 1.754,1.321 2.309,1.738c0.563,0.462 0.883,0.723 0.883,0.723Z" style="fill:#578a3d;fill-rule:nonzero;"/><path d="M55.745,194.507c0,0 0.322,0.107 0.875,0.38c0.551,0.273 1.364,0.722 2.241,1.427c1.807,1.396 4.017,3.819 5.636,7.374c1.599,3.537 2.651,8.214 1.835,13.722c-0.393,2.728 -1.3,5.695 -2.862,8.56c-0.414,0.723 -0.855,1.43 -1.325,2.11c-0.514,0.693 -1.069,1.357 -1.641,1.976c-0.598,0.623 -1.29,1.192 -1.956,1.689c-0.707,0.492 -1.501,0.864 -2.234,1.15c-0.127,-0.904 -0.25,-1.69 -0.403,-2.424c-0.186,-0.735 -0.366,-1.447 -0.543,-2.141c-0.398,-1.342 -0.774,-2.607 -1.135,-3.816c-0.721,-2.397 -1.221,-4.557 -1.584,-6.67c-0.673,-4.173 -0.564,-7.987 -0.081,-11.361c0.488,-3.368 1.314,-6.283 1.974,-8.429c0.356,-1.079 0.644,-1.958 0.846,-2.573c0.215,-0.62 0.357,-0.974 0.357,-0.974Z" style="fill:#578a3d;fill-rule:nonzero;"/><path d="M75.218,239.744c0,0 -0.994,-0.577 -2.222,-1.817c-1.235,-1.238 -2.643,-3.172 -3.43,-5.797c-0.369,-1.315 -0.642,-2.773 -0.552,-4.39c0.032,-0.802 0.124,-1.631 0.29,-2.471c0.197,-0.858 0.479,-1.736 0.838,-2.603c0.18,-0.432 0.377,-0.862 0.604,-1.291c0.249,-0.439 0.52,-0.873 0.814,-1.294c0.608,-0.85 1.217,-1.635 2.079,-2.378c0.847,-0.732 1.758,-1.37 2.783,-1.84c1.093,-0.456 2.248,-0.712 3.411,-0.698c0.337,1.477 0.668,2.702 0.96,3.729c0.314,1.068 0.633,2.068 0.858,2.894c0.212,0.797 0.454,1.666 0.584,2.383c0.139,0.733 0.2,1.366 0.259,2.056c0.042,0.668 0.022,1.281 -0.052,1.862c-0.065,0.591 -0.154,1.192 -0.305,1.742c-0.313,1.093 -0.735,2.148 -1.271,3.117c-0.552,0.959 -1.139,1.87 -1.772,2.683c-0.637,0.813 -1.275,1.539 -1.837,2.15c-1.136,1.219 -2.039,1.963 -2.039,1.963Z" style="fill:#578a3d;fill-rule:nonzero;"/><path d="M95.367,222.175c0,0 1.363,0.587 3.081,1.893c0.858,0.656 1.807,1.494 2.716,2.528c0.883,1.02 1.838,2.306 2.402,3.637c2.505,5.409 1.84,13.536 -10.138,20.341c-7.98,-9.522 -7.457,-15.82 -4.947,-20.515c0.685,-1.196 1.34,-2.195 2.089,-3.133c0.741,-0.932 1.522,-1.769 2.234,-2.473c1.423,-1.41 2.563,-2.276 2.563,-2.278Z" style="fill:#fff;fill-rule:nonzero;"/><path d="M34.83,190.77c0,0 1.122,0.992 2.539,2.554c1.362,1.585 3.216,3.592 4.611,5.855c0.383,0.56 0.731,1.145 1.036,1.766c0.152,0.309 0.291,0.628 0.419,0.959c0.152,0.325 0.302,0.66 0.434,1.007c0.263,0.696 0.475,1.443 0.62,2.268c0.21,0.816 0.363,1.708 0.446,2.698c0.395,3.939 0.17,9.589 -1.114,17.969c-5.171,-1.17 -8.806,-4.439 -11.048,-8.728c-0.541,-1.095 -1.008,-2.221 -1.402,-3.35c-0.389,-1.138 -0.633,-2.372 -0.851,-3.534c-0.47,-2.313 -0.45,-4.699 -0.342,-6.788c0.35,-4.251 1.495,-7.533 2.642,-9.6c1.104,-2.086 2.01,-3.076 2.01,-3.076Z" style="fill:#78be47;fill-rule:nonzero;"/><path d="M9.231,250.955c0,0 -0.114,-1.876 0.132,-4.548c0.253,-2.674 0.853,-6.166 2.575,-9.48c1.724,-3.267 4.646,-6.529 9.476,-7.783c2.356,-0.623 5.254,-0.65 8.22,0.391c2.947,1.028 6.004,3.258 7.979,6.817c-2.491,2.468 -4.013,4.779 -5.317,6.629c-1.286,1.848 -2.38,3.331 -3.584,4.532c-2.347,2.335 -5.144,3.614 -8.041,4.204c-2.881,0.6 -5.773,0.482 -7.914,0.136c-2.147,-0.341 -3.526,-0.898 -3.526,-0.898Z" style="fill:#78be47;fill-rule:nonzero;"/><path d="M144.305,215.939c0,0 0.041,0.461 0.111,1.252c0.057,0.759 0.137,1.832 0.233,3.104c0.191,2.532 0.595,5.551 0.614,8.427c-0.003,2.92 -0.507,5.808 -2.762,9.21c-1.128,1.664 -2.696,3.456 -4.865,5.186c-2.163,1.707 -4.936,3.382 -8.357,4.379c-1.113,-3.506 -1.96,-6.439 -2.392,-9.164c-0.443,-2.704 -0.479,-5.222 -0.138,-7.565c0.655,-4.673 2.922,-8.732 5.746,-11.36c2.816,-2.665 5.978,-3.725 8.21,-3.849c1.106,-0.094 2.043,0.052 2.649,0.152c0.616,0.114 0.951,0.228 0.951,0.228Z" style="fill:#78be47;fill-rule:nonzero;"/><path d="M160.74,175.199c0,0 1.358,-1.017 3.591,-1.933c2.247,-0.935 5.311,-1.651 8.503,-1.314c1.571,0.158 3.211,0.63 4.707,1.381c0.754,0.384 1.506,0.885 2.222,1.467c0.704,0.553 1.389,1.223 2.051,2.03c0.667,0.836 1.286,1.68 1.894,2.716c0.609,1.022 1.199,2.274 1.789,3.521c0.593,1.273 1.183,2.825 1.827,4.445c0.665,1.682 1.384,3.497 2.166,5.478c-1.434,0.967 -2.914,1.73 -4.398,2.313c-1.489,0.582 -2.859,0.818 -4.248,1.003c-1.402,0.185 -2.676,0.143 -3.876,-0.013c-1.194,-0.157 -2.406,-0.396 -3.408,-0.784c-4.182,-1.499 -6.936,-4.399 -8.727,-7.393c-0.927,-1.531 -1.583,-3.044 -2.124,-4.542c-0.538,-1.507 -0.92,-2.913 -1.208,-4.133c-0.579,-2.462 -0.761,-4.242 -0.761,-4.242Z" style="fill:#78be47;fill-rule:nonzero;"/><path d="M68.122,192.212c0,0 1.359,-0.872 3.591,-1.658c2.247,-0.802 5.312,-1.415 8.505,-1.126c1.57,0.136 3.209,0.539 4.705,1.185c0.756,0.328 1.507,0.759 2.222,1.259c0.706,0.474 1.389,1.048 2.051,1.739c0.667,0.719 1.286,1.443 1.894,2.332c0.61,0.878 1.201,1.95 1.789,3.021c0.594,1.092 1.183,2.423 1.827,3.813c0.665,1.444 1.384,3.001 2.168,4.7c-1.436,0.828 -2.916,1.484 -4.4,1.983c-1.488,0.5 -2.858,0.703 -4.248,0.862c-1.401,0.158 -2.676,0.122 -3.875,-0.01c-1.194,-0.136 -2.408,-0.342 -3.409,-0.674c-4.181,-1.287 -6.936,-3.773 -8.727,-6.342c-0.926,-1.315 -1.582,-2.612 -2.124,-3.898c-0.537,-1.293 -0.919,-2.498 -1.208,-3.545c-0.578,-2.112 -0.761,-3.641 -0.761,-3.641Z" style="fill:#78be47;fill-rule:nonzero;"/><path d="M162.742,211.786c0,0 1.31,-0.534 3.269,-0.955c0.979,-0.209 2.109,-0.377 3.371,-0.537c1.261,-0.163 2.558,-0.106 3.964,-0.056c1.396,0.065 2.79,0.43 4.248,0.861c0.724,0.236 1.445,0.572 2.175,0.971c0.738,0.341 1.479,0.778 2.229,1.329c0.746,0.59 1.515,1.136 2.307,1.836c0.793,0.687 1.606,1.593 2.473,2.41c0.866,0.847 1.78,1.935 2.777,3.014c0.998,1.043 2.084,2.246 3.302,3.611c-1.159,1.036 -2.387,1.932 -3.645,2.692c-1.26,0.764 -2.503,1.17 -3.764,1.58c-0.623,0.179 -1.262,0.378 -1.869,0.458c-0.605,0.081 -1.206,0.137 -1.801,0.167c-1.177,0.034 -2.375,0.081 -3.441,-0.161c-1.083,-0.203 -2.123,-0.482 -3.112,-0.822c-0.994,-0.332 -1.872,-0.852 -2.731,-1.343c-1.722,-0.971 -3.132,-2.274 -4.325,-3.588c-1.215,-1.274 -2.117,-2.753 -2.861,-4.068c-0.75,-1.308 -1.27,-2.601 -1.638,-3.722c-0.744,-2.217 -0.928,-3.677 -0.928,-3.677Z" style="fill:#578a3d;fill-rule:nonzero;"/><path d="M176.746,254.782c0,0 1.33,-0.85 3.273,-1.718c1.964,-0.891 4.435,-1.71 6.982,-1.856c1.3,-0.105 2.603,0.005 3.863,0.474c0.634,0.232 1.247,0.566 1.867,0.984c0.641,0.373 1.271,0.852 1.891,1.456c1.252,1.177 2.41,2.997 3.639,5.232c1.23,2.237 2.441,5.135 3.702,8.855c-2.502,1.833 -4.911,3.006 -7.154,3.672c-1.128,0.361 -2.19,0.5 -3.204,0.519c-1.015,0.026 -1.982,-0.053 -2.898,-0.221c-1.836,-0.323 -3.463,-1 -4.815,-2.075c-1.366,-1.022 -2.511,-2.246 -3.444,-3.532c-0.952,-1.237 -1.612,-2.787 -2.14,-4.144c-0.518,-1.386 -0.866,-2.697 -1.097,-3.83c-0.461,-2.266 -0.465,-3.816 -0.465,-3.816Z" style="fill:#78be47;fill-rule:nonzero;"/><path d="M278.631,224.591c0,0 -0.836,1.615 -2.641,3.541c-1.79,1.916 -4.603,4.037 -7.985,5.103c-3.377,1.08 -7.22,1.092 -10.986,-0.724c-1.918,-0.924 -3.786,-2.258 -5.852,-4.129c-2.083,-1.848 -4.284,-4.267 -7.42,-6.879c2.112,-3.295 4.89,-5.516 7.526,-6.934c2.667,-1.427 5.244,-2.074 7.535,-2.244c4.643,-0.337 8.193,1.13 10.969,2.99c2.769,1.871 4.85,4.224 6.388,6.053c1.522,1.831 2.466,3.223 2.466,3.223Z" style="fill:#78be47;fill-rule:nonzero;"/><path d="M263.258,248.536c0,0 -0.183,1.791 -1.141,4.322c-0.93,2.6 -2.825,5.653 -5.807,7.908c-1.455,1.026 -3.238,2.006 -5.074,2.332c-0.931,0.19 -1.921,0.308 -2.926,0.288c-0.976,-0.055 -1.988,-0.222 -3.025,-0.513c-1.061,-0.282 -2.063,-0.75 -3.113,-1.347c-1.046,-0.601 -2.122,-1.346 -3.163,-2.273c-2.128,-1.861 -4.276,-4.343 -6.644,-7.64c4.576,-5.585 8.992,-8.191 12.508,-9.24c1.745,-0.545 3.377,-0.642 4.793,-0.562c1.487,0.168 2.761,0.459 4.023,0.981c1.29,0.582 2.386,1.053 3.514,1.748c1.112,0.687 2.134,1.321 3.014,1.864c1.783,1.147 3.041,2.132 3.041,2.132Z" style="fill:#578a3d;fill-rule:nonzero;"/><path d="M282.667,230.644c0,0 0.75,1.682 1.596,3.987c0.776,2.28 1.956,5.206 2.544,7.957c0.18,0.721 0.314,1.431 0.384,2.135c0.038,0.356 0.045,0.698 0.059,1.06c0.033,0.377 0.045,0.755 0.039,1.132c-0.013,0.758 -0.117,1.51 -0.303,2.294c-0.139,0.833 -0.371,1.683 -0.718,2.562c-1.34,3.541 -4.165,8.12 -9.627,13.493c-4.719,-5.011 -7.023,-10.045 -7.53,-14.989c-0.103,-1.246 -0.111,-2.459 -0.042,-3.623c0.063,-1.163 0.334,-2.341 0.594,-3.423c0.484,-2.167 1.499,-4.13 2.521,-5.751c0.26,-0.407 0.512,-0.795 0.795,-1.16c0.302,-0.36 0.608,-0.701 0.913,-1.022c0.608,-0.641 1.219,-1.206 1.816,-1.695c1.149,-1.004 2.43,-1.607 3.473,-2.037c2.1,-0.849 3.486,-0.92 3.486,-0.92Z" style="fill:#4e7636;fill-rule:nonzero;"/><path d="M297.85,211.062c0,0 1.252,0.899 2.775,2.511c0.755,0.804 1.583,1.781 2.464,2.908c0.884,1.125 1.587,2.437 2.366,3.875c0.749,1.442 1.229,3.1 1.674,4.898c0.195,0.909 0.315,1.881 0.353,2.923c0.107,1.001 0.13,2.076 0.051,3.242c-0.034,0.579 -0.12,1.203 -0.18,1.811c-0.047,0.599 -0.119,1.225 -0.22,1.881c-0.099,0.654 -0.225,1.341 -0.381,2.058c-0.083,0.362 -0.168,0.73 -0.252,1.102c-0.073,0.357 -0.144,0.72 -0.216,1.088c-0.301,1.48 -0.767,3.165 -1.242,4.964c-0.391,1.732 -0.875,3.683 -1.424,5.901c-1.639,-0.382 -3.2,-0.945 -4.651,-1.652c-1.408,-0.732 -2.525,-1.66 -3.627,-2.632c-1.132,-0.969 -1.913,-2.08 -2.659,-3.211c-0.719,-1.138 -1.405,-2.308 -1.793,-3.527c-0.431,-1.211 -0.765,-2.439 -1.014,-3.659c-0.246,-1.221 -0.282,-2.459 -0.316,-3.66c-0.088,-2.396 0.293,-4.739 0.819,-6.885c0.477,-2.131 1.304,-4.13 2.098,-5.85c0.401,-0.861 0.811,-1.659 1.216,-2.39c0.441,-0.744 0.872,-1.419 1.278,-2.02c1.631,-2.406 2.881,-3.676 2.881,-3.676Z" style="fill:#578a3d;fill-rule:nonzero;"/><path d="M319.016,189.121c0,0 0.203,0.346 0.561,0.955c0.358,0.61 0.772,1.455 1.356,2.436c1.134,2.001 2.739,4.309 4.159,6.862c1.423,2.593 2.614,5.628 2.938,10.299c0.137,2.325 0.058,5.053 -0.435,8.254c-0.504,3.19 -1.407,6.87 -3.088,10.865c-3.101,-1.657 -5.683,-3.328 -7.791,-5.23c-2.109,-1.882 -3.745,-4.007 -4.925,-6.294c-1.205,-2.26 -1.884,-4.785 -2.2,-7.245c-0.257,-2.527 -0.136,-5.018 0.389,-7.377c1.016,-4.726 3.391,-8.464 5.448,-10.581c0.978,-1.083 1.975,-1.801 2.587,-2.269c0.637,-0.464 1.001,-0.675 1.001,-0.675Z" style="fill:#78be47;fill-rule:nonzero;"/><path d="M340.795,166.762c0,0 0.994,1.402 2.13,3.567c1.259,2.192 2.75,5.001 4.093,8.162c1.328,3.211 2.412,6.852 2.369,12.329c-0.048,2.709 -0.4,5.886 -1.422,9.441c-1.017,3.535 -2.715,7.438 -5.429,11.237c-2.521,-2.791 -4.657,-5.206 -6.394,-7.617c-1.735,-2.391 -3.11,-4.82 -4.052,-7.37c-1.943,-5.041 -2.064,-10.786 -0.757,-15.622c1.268,-4.87 3.816,-8.585 5.829,-10.844c1.04,-1.14 1.978,-1.952 2.613,-2.488c0.645,-0.537 1.02,-0.795 1.02,-0.795Z" style="fill:#578a3d;fill-rule:nonzero;"/><path d="M370.247,148.107c0,0 0.807,1.541 1.577,4.019c0.775,2.487 1.493,5.891 1.431,9.485c0.014,1.766 -0.281,3.636 -0.698,5.385c-0.225,0.884 -0.53,1.763 -0.929,2.634c-0.348,0.857 -0.782,1.702 -1.331,2.546c-2.099,3.431 -5.688,6.396 -11.397,11.589c-4.068,-6.019 -4.893,-12.848 -4.154,-18.03c0.2,-1.286 0.477,-2.511 0.813,-3.666c0.345,-1.14 0.783,-2.133 1.242,-3.102c0.92,-1.952 2.049,-3.441 3.214,-4.744c2.335,-2.539 4.902,-4.015 6.862,-4.91c1.97,-0.895 3.37,-1.206 3.37,-1.206Z" style="fill:#578a3d;fill-rule:nonzero;"/><path d="M396.727,172.929c0,0 0.133,0.357 0.305,1.031c0.164,0.67 0.39,1.686 0.482,2.966c0.177,2.51 -0.209,6.293 -2.078,9.991c-1.822,3.684 -5.02,7.083 -8.992,8.804c-2.003,0.901 -4.192,1.411 -6.65,1.629c-2.473,0.232 -5.221,0.126 -8.574,0.149c0.604,-3.554 1.853,-6.654 3.247,-9.186c1.412,-2.552 2.959,-4.527 4.448,-6.109c3.021,-3.151 5.736,-4.681 8.189,-5.77c2.443,-1.061 4.759,-1.771 6.574,-2.434c0.916,-0.333 1.664,-0.604 2.186,-0.793c0.551,-0.178 0.863,-0.278 0.863,-0.278Z" style="fill:#578a3d;fill-rule:nonzero;"/><path d="M396.976,206.677c0,0 -0.376,1.573 -1.517,3.865c-1.118,2.345 -3.14,5.189 -6.251,7.577c-1.56,1.089 -3.381,2.24 -5.442,2.824c-1.029,0.321 -2.116,0.596 -3.253,0.765c-1.133,0.116 -2.313,0.15 -3.537,0.087c-4.892,-0.323 -10.349,-2.597 -15.857,-7.753c5.272,-4.437 9.866,-6.928 13.896,-8.262c1.002,-0.36 1.975,-0.625 2.927,-0.814c0.955,-0.18 1.843,-0.402 2.738,-0.488c1.793,-0.151 3.429,-0.259 5.008,-0.143c0.395,0.028 0.784,0.067 1.169,0.115c0.375,0.029 0.745,0.057 1.102,0.086c0.727,0.071 1.428,0.176 2.1,0.303c1.36,0.291 2.547,0.509 3.566,0.763c2.041,0.51 3.351,1.075 3.351,1.075Z" style="fill:#578a3d;fill-rule:nonzero;"/><path d="M389.14,228.941c0,0 -0.401,1.557 -1.619,3.821c-1.187,2.338 -3.362,5.101 -6.685,7.321c-0.831,0.504 -1.728,0.982 -2.691,1.413c-0.482,0.211 -0.978,0.426 -1.488,0.601c-0.51,0.147 -1.035,0.278 -1.573,0.392c-1.075,0.227 -2.203,0.391 -3.377,0.468c-1.158,-0.006 -2.358,-0.096 -3.594,-0.289c-4.937,-0.842 -10.157,-3.755 -15.317,-9.448c5.624,-3.885 10.49,-5.814 14.595,-6.711c1.021,-0.252 2.007,-0.412 2.963,-0.497c0.955,-0.091 1.841,-0.224 2.728,-0.224c1.78,0.041 3.373,0.029 4.923,0.287c0.389,0.068 0.77,0.136 1.144,0.202c0.364,0.04 0.725,0.091 1.08,0.149c0.707,0.116 1.396,0.263 2.058,0.429c1.338,0.385 2.503,0.614 3.516,0.911c2.023,0.578 3.337,1.175 3.337,1.175Z" style="fill:#78be47;fill-rule:nonzero;"/><path d="M369.334,256.133c0,0 -0.438,1.456 -1.767,3.497c-1.326,1.892 -3.756,4.368 -7.309,5.44c-3.505,1.122 -7.866,0.723 -11.527,-1.369c-1.876,-1.042 -3.577,-2.452 -5.369,-4.24c-1.803,-1.782 -3.71,-3.98 -6.322,-6.447c2.312,-2.328 5.033,-3.739 7.588,-4.47c2.579,-0.739 4.937,-0.822 6.951,-0.677c4.088,0.362 6.691,1.544 8.983,2.809c2.251,1.286 4.307,2.622 5.988,3.691c1.652,0.963 2.784,1.766 2.784,1.766Z" style="fill:#578a3d;fill-rule:nonzero;"/><path d="M406.709,238.982c0,0 -0.031,0.427 -0.126,1.143c-0.089,0.725 -0.25,1.693 -0.439,2.887c-0.417,2.323 -1.001,5.352 -2.132,8.179c-1.133,2.861 -2.837,5.495 -5.681,7.639c-1.464,1.078 -3.168,2.044 -5.352,3.104c-2.163,1.107 -4.849,2.213 -7.873,4.631c-1.97,-3.008 -2.598,-6.631 -2.49,-9.794c0.035,-1.629 0.313,-3.088 0.656,-4.531c0.393,-1.363 0.857,-2.712 1.454,-3.857c2.349,-4.723 5.937,-7.51 9.329,-8.95c3.418,-1.457 6.67,-1.613 8.985,-1.336c1.139,0.115 2.081,0.364 2.705,0.55c0.629,0.189 0.964,0.335 0.964,0.335Z" style="fill:#578a3d;fill-rule:nonzero;"/><path d="M425.46,298.79c0,0 -0.987,1.195 -2.996,2.615c-2.012,1.502 -5.086,2.889 -9.001,3.274c-3.838,0.264 -8.511,-0.586 -12.859,-3.523c-1.121,-0.711 -2.19,-1.551 -3.256,-2.514c-1.067,-0.96 -2.146,-2.049 -3.173,-3.254c-2.081,-2.447 -4.116,-5.346 -6.216,-8.939c6.559,-2.047 12.284,-1.749 16.803,-0.715c1.129,0.249 2.198,0.565 3.218,0.939c1.015,0.352 1.955,0.696 2.86,1.124c1.811,0.907 3.404,1.702 4.863,2.725c0.72,0.498 1.411,0.978 2.074,1.436c0.657,0.469 1.277,0.956 1.861,1.444c1.168,1.031 2.207,1.82 3.07,2.614c1.729,1.561 2.752,2.774 2.752,2.774Z" style="fill:#78be47;fill-rule:nonzero;"/><path d="M392.087,310.972c0,0 -0.225,0.399 -0.71,1.036c-0.484,0.623 -1.258,1.546 -2.376,2.397c-2.181,1.74 -6.088,3.25 -10.395,2.799c-4.274,-0.402 -8.52,-2.593 -10.903,-6.268c-1.246,-1.861 -2.05,-4.085 -2.557,-6.825c-0.55,-2.753 -0.712,-6.048 -1.501,-10.295c3.579,-1.493 7.159,-1.738 10.128,-1.509c3.011,0.253 5.414,0.972 7.326,1.829c1.93,0.898 3.278,1.849 4.343,2.955c1.024,1.024 1.73,2.192 2.26,3.324c1.033,2.276 1.709,4.884 2.646,6.952c0.44,1.071 0.891,1.893 1.213,2.559c0.334,0.66 0.526,1.046 0.526,1.046Z" style="fill:#4e7636;fill-rule:nonzero;"/><path d="M363.69,319.258c0,0 -1.113,1.291 -3.213,2.682c-2.086,1.284 -5.246,2.709 -9.216,2.138c-1.963,-0.318 -4.138,-1.058 -6.195,-2.603c-2.065,-1.49 -4.02,-3.716 -5.393,-6.504c-1.388,-2.775 -2.262,-6.053 -2.35,-9.603c-0.107,-3.557 0.475,-7.389 1.78,-11.497c3.142,1.464 5.727,2.905 7.848,4.222c2.134,1.301 3.802,2.431 5.122,3.49c2.625,2.047 4.039,4.018 5.629,6.552c1.536,2.482 3.09,5.211 4.199,7.399c1.142,2.123 1.789,3.724 1.789,3.724Z" style="fill:#578a3d;fill-rule:nonzero;"/><path d="M330.835,326.086c0,0 -1.547,0.826 -4.116,1.248c-0.641,0.105 -1.349,0.183 -2.112,0.215c-0.772,0.041 -1.584,0.019 -2.401,-0.16c-1.642,-0.334 -3.543,-0.872 -5.351,-2.024c-0.883,-0.604 -1.772,-1.322 -2.645,-2.158c-0.432,-0.421 -0.877,-0.862 -1.282,-1.348c-0.379,-0.503 -0.746,-1.036 -1.101,-1.598c-0.7,-1.124 -1.409,-2.365 -1.931,-3.708c-0.471,-1.348 -0.866,-2.8 -1.152,-4.333c-0.987,-6.149 0.426,-13.106 4.871,-21.02c6.393,4.154 10.224,8.269 12.463,11.633c0.591,0.788 1.068,1.584 1.445,2.401c0.351,0.866 0.763,1.481 1.009,2.281c0.464,1.597 0.913,3.013 1.114,4.652c0.553,3.118 0.743,6.621 1.014,9.264c0.2,2.687 0.175,4.655 0.175,4.655Z" style="fill:#78be47;fill-rule:nonzero;"/><path d="M295.809,327.12c0,0 -0.392,0.14 -1.094,0.277c-0.692,0.128 -1.748,0.278 -2.971,0.163c-2.451,-0.179 -5.815,-1.477 -8.476,-4.541c-2.645,-3.004 -4.493,-7.648 -3.955,-12.838c0.501,-5.208 3.312,-10.853 9.397,-16.117c10.45,10.215 11.303,15.97 10.245,21.321c-0.532,2.651 -1.499,5.389 -2.103,7.686c-0.336,1.169 -0.549,2.13 -0.742,2.875c-0.191,0.742 -0.301,1.174 -0.301,1.174Z" style="fill:#4e7636;fill-rule:nonzero;"/><path d="M148.909,348.176c0,0 0.115,-2.209 0.864,-5.555c0.753,-3.329 2.19,-7.788 4.846,-11.98c2.644,-4.142 6.541,-8.104 11.797,-9.539c2.597,-0.745 5.532,-0.81 8.6,0.128c3.054,0.935 6.263,2.893 9.131,6.232c-2.583,2.825 -4.909,5.365 -7.048,7.704c-2.075,2.183 -3.975,4.052 -5.822,5.576c-3.673,3.034 -7.167,4.835 -10.419,5.93c-3.233,1.096 -6.199,1.463 -8.377,1.59c-2.178,0.12 -3.572,-0.086 -3.572,-0.086Z" style="fill:#578a3d;fill-rule:nonzero;"/><path d="M135.619,328.018c0,0 -0.751,-1.55 -1.387,-4.116c-0.598,-2.559 -1.105,-6.169 -0.142,-10.325c0.256,-1.036 0.56,-2.103 1.051,-3.175c0.444,-1.076 1.05,-2.151 1.785,-3.198c1.476,-2.071 3.544,-4.082 6.24,-5.277c2.653,-1.208 5.822,-1.626 8.865,-0.722c3.047,0.903 5.893,3.005 8.199,6.125c-2.413,2.527 -4.229,4.658 -5.574,6.437c-1.333,1.834 -2.207,3.239 -3.046,4.334c-0.82,1.109 -1.626,2.034 -2.607,2.82c-0.95,0.874 -2.063,1.582 -3.209,2.37c-2.31,1.493 -4.855,2.776 -6.821,3.579c-1.961,0.823 -3.354,1.148 -3.354,1.148Z" style="fill:#578a3d;fill-rule:nonzero;"/><path d="M108.551,316.484c0,0 -0.353,-0.27 -0.912,-0.847c-0.545,-0.578 -1.361,-1.492 -2.104,-2.808c-0.692,-1.299 -1.488,-3.076 -1.836,-5.185c-0.209,-1.073 -0.347,-2.243 -0.33,-3.44c-0.008,-1.218 0.064,-2.534 0.315,-3.801c0.875,-5.205 3.995,-10.71 8.922,-13.426c4.886,-2.818 11.461,-2.997 18.707,1.091c-2.56,8.024 -4.752,13.088 -6.818,16.413c-2.092,3.32 -4.092,4.835 -6.269,6.047c-2.154,1.164 -4.581,2.297 -6.454,3.603c-0.966,0.619 -1.694,1.236 -2.291,1.664c-0.592,0.437 -0.93,0.689 -0.93,0.689Z" style="fill:#578a3d;fill-rule:nonzero;"/><path d="M75.888,295.908c0,0 -0.107,-0.401 -0.219,-1.14c-0.105,-0.725 -0.243,-1.854 -0.191,-3.165c0.04,-2.692 0.74,-6.36 2.703,-9.881c1.95,-3.484 5.172,-6.801 9.82,-8.195c2.292,-0.719 4.97,-0.91 7.833,-0.335c2.831,0.587 5.983,1.976 8.562,4.717c-2.217,2.581 -3.781,4.932 -5.304,6.859c-1.501,1.927 -2.906,3.498 -4.308,4.786c-2.794,2.545 -5.618,3.903 -8.323,4.728c-2.692,0.812 -5.279,1.096 -7.236,1.33c-1,0.096 -1.823,0.179 -2.398,0.233c-0.6,0.04 -0.939,0.063 -0.939,0.063Z" style="fill:#78be47;fill-rule:nonzero;"/><path d="M57.239,284.381c0,0 -0.782,-1.552 -1.405,-4.12c-0.668,-2.579 -0.993,-6.151 -0.06,-9.976c0.26,-0.932 0.592,-1.877 1.007,-2.818c0.209,-0.467 0.434,-0.938 0.685,-1.395c0.269,-0.439 0.561,-0.868 0.875,-1.291c0.628,-0.84 1.337,-1.662 2.145,-2.395c0.833,-0.676 1.751,-1.288 2.755,-1.806c4.051,-1.994 9.431,-1.898 15.817,1.622c-1.65,7.275 -3.437,11.81 -5.301,14.675c-0.442,0.742 -0.915,1.363 -1.421,1.892c-0.515,0.523 -0.958,1.047 -1.493,1.44c-1.081,0.77 -2.126,1.449 -3.321,1.898c-2.296,0.987 -4.877,1.481 -6.838,1.873c-1.987,0.353 -3.445,0.401 -3.445,0.401Z" style="fill:#4e7636;fill-rule:nonzero;"/><path d="M31.999,269.85c0,0 -0.614,-1.549 -0.891,-4.231c-0.118,-1.326 -0.233,-3.033 0.098,-4.727c0.144,-0.87 0.345,-1.788 0.621,-2.738c0.275,-0.953 0.604,-1.962 1.111,-2.84c0.981,-1.782 2.229,-3.798 4.011,-5.147c0.874,-0.709 1.821,-1.432 2.864,-1.954c1.058,-0.466 2.188,-0.852 3.376,-1.123c4.767,-0.922 10.554,0.763 15.641,6.445c-4.156,5.692 -6.995,9.248 -9.534,11.341c-0.604,0.58 -1.207,1.036 -1.822,1.394c-0.316,0.161 -0.61,0.343 -0.882,0.536c-0.281,0.179 -0.568,0.335 -0.86,0.471c-0.563,0.298 -1.23,0.403 -1.771,0.655c-0.562,0.219 -1.148,0.378 -1.754,0.494c-0.302,0.059 -0.612,0.106 -0.924,0.146c-0.292,0.068 -0.579,0.133 -0.863,0.198c-0.579,0.121 -1.168,0.214 -1.762,0.288c-1.22,0.102 -2.28,0.314 -3.251,0.452c-1.947,0.273 -3.408,0.34 -3.408,0.34Z" style="fill:#578a3d;fill-rule:nonzero;"/><path d="M162.498,98.239c0,0 1.722,0.053 4.001,0.323c1.107,0.15 2.389,0.325 3.765,0.51c0.683,0.102 1.365,0.225 2.028,0.382c0.662,0.174 1.337,0.351 2.025,0.532c1.401,0.379 2.585,1.03 3.899,1.824c0.635,0.413 1.212,0.935 1.792,1.532c0.621,0.563 1.207,1.233 1.764,2.039c2.31,3.144 4.347,8.149 6.939,16.233c-6.315,3.065 -12.068,2.749 -16.464,0.748c-1.09,-0.536 -2.109,-1.153 -3.047,-1.825c-0.951,-0.65 -1.758,-1.533 -2.519,-2.349c-0.744,-0.858 -1.449,-1.66 -2.003,-2.63c-0.561,-0.953 -1.045,-1.912 -1.455,-2.854c-0.862,-1.827 -1.248,-3.883 -1.502,-5.598c-0.113,-0.882 -0.204,-1.677 -0.203,-2.472c0.012,-0.806 0.06,-1.548 0.126,-2.214c0.274,-2.666 0.854,-4.181 0.854,-4.181Z" style="fill:#78be47;fill-rule:nonzero;"/><path d="M175.321,65.033c0,0.001 1.235,1.028 2.8,2.547c1.704,1.491 3.745,3.206 5.753,4.791c2.031,1.649 3.92,3.509 6.249,7.682c1.119,2.069 2.348,4.715 3.38,8.074c1.017,3.338 1.849,7.428 1.82,11.931c-2.941,-0.669 -5.403,-1.121 -7.638,-1.903c-2.221,-0.757 -4.258,-1.835 -6.109,-3.362c-1.839,-1.481 -3.513,-3.485 -4.865,-5.758c-0.675,-1.156 -1.277,-2.332 -1.773,-3.622c-0.516,-1.218 -0.899,-2.545 -1.21,-3.812c-0.611,-2.548 -0.826,-5.018 -0.743,-7.144c0.013,-0.529 0.036,-1.037 0.066,-1.519c0.058,-0.492 0.123,-0.96 0.195,-1.405c0.14,-0.889 0.3,-1.68 0.464,-2.375c0.39,-1.399 0.816,-2.429 1.114,-3.105c0.301,-0.68 0.497,-1.02 0.497,-1.02Z" style="fill:#4e7636;fill-rule:nonzero;"/><path d="M215.781,28.201c0,0 0.713,1.263 1.477,3.18c0.781,1.931 1.553,4.431 1.814,7.123c0.16,1.37 0.161,2.776 -0.095,4.187c-0.129,0.706 -0.32,1.413 -0.589,2.122c-0.23,0.73 -0.534,1.461 -0.929,2.193c-0.771,1.472 -1.978,2.918 -3.51,4.444c-1.518,1.532 -3.501,3.094 -6.057,4.748c-1.438,-2.493 -2.41,-4.921 -3.013,-7.207c-0.62,-2.291 -0.686,-4.391 -0.596,-6.331c0.057,-0.969 0.181,-1.89 0.356,-2.762c0.183,-0.87 0.484,-1.676 0.787,-2.438c0.623,-1.523 1.405,-2.838 2.248,-3.95c0.81,-1.122 1.859,-1.99 2.78,-2.702c0.943,-0.706 1.852,-1.233 2.639,-1.619c1.579,-0.77 2.688,-0.988 2.688,-0.988Z" style="fill:#78be47;fill-rule:nonzero;"/><path d="M398.388,134.286c0,0 1.112,1.203 2.24,3.579c0.56,1.177 1.151,2.725 1.455,4.344c0.168,0.827 0.298,1.711 0.379,2.644c0.08,0.939 0.106,1.923 0.042,2.828c-0.101,1.829 -0.488,3.925 -1.158,5.607c-0.34,0.875 -0.765,1.747 -1.277,2.571c-0.478,0.763 -1.049,1.496 -1.733,2.192c-0.706,0.719 -1.414,1.307 -2.266,1.876c-0.845,0.57 -1.885,1.12 -2.898,1.612c-1.035,0.51 -2.322,1.009 -3.646,1.574c-1.294,0.573 -2.795,1.225 -4.516,2.03c-0.79,-1.588 -1.4,-3.26 -1.848,-4.949c-0.454,-1.701 -0.599,-3.218 -0.706,-4.786c-0.099,-1.591 -0.03,-2.98 0.127,-4.281c0.151,-1.285 0.408,-2.623 0.706,-3.641c0.299,-1.063 0.669,-2.045 1.092,-2.95c0.425,-0.909 0.831,-1.607 1.319,-2.312c1.002,-1.414 1.978,-2.39 3.09,-3.229c1.165,-0.859 2.144,-1.441 3.28,-2.002c0.563,-0.262 1.105,-0.513 1.623,-0.752c0.506,-0.23 0.985,-0.445 1.43,-0.645c1.833,-0.802 3.265,-1.309 3.265,-1.31Z" style="fill:#78be47;fill-rule:nonzero;"/><path d="M433.997,256.873c0,0 -0.006,1.98 -0.662,4.858c-0.635,2.922 -2.054,6.561 -4.576,9.699c-2.504,3.07 -6.12,5.563 -10.628,5.848c-4.551,0.349 -9.87,-1.469 -16.678,-6.19c3.191,-7.581 7.063,-12.068 10.641,-14.6c3.606,-2.532 7.024,-3.156 10.141,-3.019c1.598,0.114 3.016,0.311 4.415,0.678c1.4,0.376 2.641,0.77 3.715,1.153c2.161,0.785 3.632,1.573 3.632,1.573Z" style="fill:#578a3d;fill-rule:nonzero;"/><path d="M145.254,102.163c0,0 0.16,0.35 0.435,0.961c0.248,0.6 0.603,1.453 1.027,2.48c0.822,2.046 1.903,4.602 2.664,7.355c1.507,5.56 1.706,12.185 -4.861,25.072c-4.574,-4.117 -7.157,-8.906 -8.159,-13.681c-1.023,-4.763 -0.445,-9.418 0.933,-13.009c1.371,-3.617 3.426,-6.086 5.096,-7.426c0.804,-0.692 1.572,-1.107 2.067,-1.379c0.506,-0.266 0.798,-0.373 0.798,-0.373Z" style="fill:#578a3d;fill-rule:nonzero;"/><path d="M106.937,61.528c0,0 1.425,0.279 3.509,1.125c2.082,0.852 4.86,2.264 7.604,4.875c2.721,2.617 5.502,6.466 7.086,12.271c0.778,2.88 1.223,6.306 0.962,10.039c-0.089,0.952 -0.19,1.889 -0.361,2.842c-0.203,0.977 -0.447,1.939 -0.728,2.871c-0.341,0.959 -0.742,1.886 -1.167,2.752c-0.497,0.875 -1.069,1.681 -1.642,2.394c-1.549,-3.273 -3.392,-5.328 -4.942,-7.368c-1.586,-2.002 -2.925,-3.873 -4.161,-5.815c-2.38,-3.84 -4.037,-7.891 -5.017,-11.742c-0.996,-3.841 -1.348,-7.42 -1.377,-10.036c-0.036,-2.611 0.234,-4.208 0.234,-4.208Z" style="fill:#78be47;fill-rule:nonzero;"/><path d="M146.673,50.147c0,0 0.546,1.33 1.345,3.274c0.804,1.908 1.934,4.022 2.838,6.132c0.894,2.155 1.488,4.539 1.034,8.392c-0.244,1.886 -0.756,4.127 -1.786,6.581c-1.026,2.424 -2.578,5.082 -4.898,7.236c-1.741,-2.386 -3.219,-4.244 -4.363,-6.098c-1.143,-1.827 -1.993,-3.682 -2.517,-5.607c-0.539,-1.896 -0.745,-3.97 -0.68,-5.94c0.099,-2.029 0.45,-3.971 1.09,-5.74c1.238,-3.553 3.387,-5.906 5.06,-6.982c0.831,-0.563 1.595,-0.843 2.088,-1.024c0.502,-0.173 0.789,-0.224 0.789,-0.224Z" style="fill:#4e7636;fill-rule:nonzero;"/><path d="M152.847,11.886c0,0 1.731,0.731 4.106,2.258c2.349,1.531 5.451,3.824 8.165,7.167c1.366,1.697 2.652,3.596 3.687,5.901c0.519,1.141 0.984,2.349 1.369,3.636c0.36,1.319 0.647,2.712 0.836,4.17c0.214,1.439 0.242,3.022 0.159,4.649c-0.094,1.633 -0.232,3.287 -0.708,5.068c-0.457,1.764 -0.963,3.535 -1.806,5.349c-0.876,1.82 -1.926,3.623 -3.152,5.369c-1.394,-1.533 -2.626,-2.965 -3.707,-4.325c-1.074,-1.359 -2.24,-2.663 -3.136,-3.924c-0.888,-1.259 -1.785,-2.492 -2.568,-3.706c-0.797,-1.219 -1.371,-2.393 -2.028,-3.589c-1.231,-2.374 -2.046,-4.692 -2.69,-6.98c-0.584,-2.258 -0.939,-4.498 -1.065,-6.582c-0.246,-4.193 0.309,-7.835 1.049,-10.42c0.715,-2.573 1.489,-4.041 1.489,-4.041Z" style="fill:#78be47;fill-rule:nonzero;"/><path d="M201.329,0c0,0 0.578,1.695 1.039,4.301c0.477,2.618 0.782,6.085 0.379,9.781c-0.17,1.872 -0.542,3.788 -1.221,5.684c-0.34,0.949 -0.757,1.891 -1.265,2.824c-0.464,0.952 -1.007,1.902 -1.659,2.834c-1.279,1.878 -3.082,3.652 -5.229,5.453c-2.131,1.811 -4.805,3.573 -8.157,5.342c-1.049,-3.615 -1.584,-7.046 -1.73,-10.218c-0.097,-1.602 -0.002,-3.076 0.161,-4.485c0.161,-1.41 0.401,-2.749 0.706,-4.018c0.303,-1.267 0.673,-2.461 1.089,-3.582c0.432,-1.111 0.966,-2.107 1.505,-3.053c1.088,-1.884 2.313,-3.48 3.568,-4.811c2.543,-2.64 5.339,-4.106 7.369,-4.979c2.057,-0.86 3.445,-1.073 3.445,-1.073Z" style="fill:#4e7636;fill-rule:nonzero;"/><path d="M35.044,144.585c0,0 1.196,0.8 2.801,2.191c1.607,1.394 3.663,3.322 5.473,5.645c1.843,2.331 3.353,5.043 4.392,8.436c0.515,1.751 0.92,3.68 1.473,6.06c0.564,2.377 1.287,5.288 2.96,8.703c-2.85,1.199 -5.992,1.036 -8.692,-0.016c-2.741,-1.036 -4.969,-2.929 -6.67,-5.005c-1.74,-2.084 -2.85,-4.411 -3.648,-6.65c-0.736,-2.258 -1.12,-4.45 -1.203,-6.469c-0.181,-4.047 0.621,-7.329 1.464,-9.529c0.397,-1.099 0.846,-1.946 1.145,-2.509c0.307,-0.564 0.505,-0.857 0.505,-0.857Z" style="fill:#578a3d;fill-rule:nonzero;"/><path d="M258.857,38.098c0,0 0.261,0.326 0.686,0.984c0.415,0.659 1.023,1.658 1.63,3.019c1.177,2.689 2.402,6.958 2.445,12.196c0.074,5.22 -1.031,11.23 -3.496,16.972c-1.239,2.908 -2.773,5.737 -4.63,8.721c-1.852,2.997 -4.039,6.109 -6.396,10.04c-1.705,-3.986 -2.495,-8.276 -2.735,-12.24c-0.243,-3.992 0.063,-7.665 0.586,-10.911c1.081,-6.549 2.956,-11.434 4.741,-15.439c1.802,-3.975 3.587,-7.151 4.921,-9.533c0.673,-1.179 1.189,-2.135 1.6,-2.793c0.403,-0.66 0.648,-1.016 0.648,-1.016Z" style="fill:#78be47;fill-rule:nonzero;"/><path d="M246.642,0.991c0,0 1.595,1.307 3.481,3.8c1.878,2.493 4.032,6.22 4.955,11.04c0.893,4.77 0.594,10.811 -2.937,16.803c-1.737,2.941 -4.409,5.871 -7.955,7.808c-3.489,1.929 -8.148,2.743 -12.197,0.612c1.043,-4.519 0.733,-7.961 0.606,-10.755c-0.176,-2.805 -0.237,-5.033 -0.041,-7.22c0.421,-4.194 1.927,-7.913 3.985,-11.148c2.031,-3.232 4.544,-5.972 6.553,-7.91c2.013,-1.938 3.55,-3.03 3.55,-3.03Z" style="fill:#578a3d;fill-rule:nonzero;"/><path d="M299.167,42.971c0,0 -0.038,2.095 -0.615,5.196c-0.568,3.098 -1.677,7.179 -3.461,11.108c-1.762,3.97 -4.212,7.645 -7.279,10.699c-1.61,1.564 -3.334,2.953 -5.429,4.879c-2.068,1.93 -4.54,4.608 -6.757,9.157c-2.908,-3.241 -4.589,-7.994 -4.824,-12.685c-0.033,-1.147 -0.09,-2.371 0.025,-3.479c0.108,-1.112 0.255,-2.223 0.44,-3.322c0.457,-2.065 1.03,-4.146 1.809,-5.858c1.491,-3.603 3.467,-6.293 5.467,-8.444c2.021,-2.095 4.106,-3.626 6.104,-4.679c3.999,-2.14 7.629,-2.675 10.249,-2.786c2.62,-0.105 4.271,0.214 4.271,0.214Z" style="fill:#578a3d;fill-rule:nonzero;"/><path d="M321.621,54.459c0,0 0.888,1.1 1.846,3.179c0.474,1.039 1.007,2.338 1.308,3.83c0.165,0.748 0.305,1.555 0.406,2.41c0.106,0.859 0.174,1.766 0.116,2.691c-0.099,1.853 -0.302,3.922 -1.078,5.927c-0.366,1.01 -0.777,2.047 -1.327,3.041c-0.588,0.973 -1.261,1.933 -2.019,2.853c-3.095,3.591 -8.19,6.317 -14.387,5.382c1.087,-6.6 1.764,-10.947 2.975,-14.29c0.265,-0.867 0.574,-1.647 0.928,-2.362c0.376,-0.698 0.653,-1.452 1.048,-2.086c0.359,-0.662 0.829,-1.223 1.202,-1.835c0.393,-0.599 0.817,-1.156 1.263,-1.68c0.934,-1.021 1.744,-2.035 2.657,-2.872c0.916,-0.839 1.736,-1.604 2.469,-2.232c1.475,-1.256 2.593,-1.956 2.593,-1.956Z" style="fill:#78be47;fill-rule:nonzero;"/><path d="M354.401,113.061c0,0 3.381,5.951 3.604,13.355c0.115,3.736 -0.587,7.725 -2.893,11.895c-2.313,4.116 -6.267,8.158 -12.686,11.574c-4.639,-14.172 -1.767,-23.307 2.507,-29.109c4.206,-5.734 9.468,-7.715 9.468,-7.715Z" style="fill:#4e7636;fill-rule:nonzero;"/><path d="M355.138,65.373c0,0 1.407,0.953 3.112,3.199c0.848,1.119 1.809,2.615 2.463,4.336c0.349,0.872 0.675,1.822 0.957,2.849c0.291,1.036 0.525,2.135 0.62,3.219c0.212,2.178 0.269,4.731 -0.269,7.076c-0.243,1.2 -0.584,2.423 -1.029,3.644c-0.476,1.167 -1.065,2.318 -1.769,3.455c-2.841,4.541 -7.673,8.21 -15.238,10.586c-2.221,-7.993 -2.445,-14.136 -1.774,-18.755c0.156,-1.156 0.39,-2.226 0.693,-3.228c0.286,-0.997 0.561,-1.903 0.942,-2.763c0.791,-1.731 1.577,-3.168 2.556,-4.486c1.042,-1.331 1.896,-2.447 2.942,-3.517c1.033,-1.048 1.98,-2.007 2.795,-2.828c1.672,-1.657 2.999,-2.787 2.999,-2.787Z" style="fill:#578a3d;fill-rule:nonzero;"/><path d="M390.154,99.486c0,0 0.063,1.902 -0.149,4.562c-0.253,2.621 -0.588,6.134 -1.516,9.44c-0.403,1.74 -1.086,3.288 -1.849,4.98c-0.398,0.827 -0.89,1.6 -1.443,2.387c-0.521,0.823 -1.135,1.622 -1.857,2.392c-2.822,3.164 -7.165,6.339 -14.015,9.728c-2.078,-7.548 -1.704,-14.218 0.095,-19.528c0.956,-2.63 2.147,-4.947 3.642,-6.801c1.393,-1.923 3.077,-3.333 4.673,-4.453c0.399,-0.28 0.794,-0.542 1.188,-0.782c0.413,-0.217 0.822,-0.416 1.223,-0.598c0.804,-0.363 1.579,-0.658 2.319,-0.895c1.457,-0.51 2.856,-0.641 4.001,-0.69c2.297,-0.095 3.688,0.258 3.688,0.258Z" style="fill:#578a3d;fill-rule:nonzero;"/><path d="M331.127,16.879c0,0 -0.064,2.069 -0.254,4.736c-0.244,2.598 -0.328,6.033 -0.839,8.874c-0.996,6.047 -3.637,9.732 -18.163,14.794c-3.062,-7.115 -3.181,-13.557 -1.612,-18.583c0.422,-1.249 0.925,-2.413 1.483,-3.486c0.55,-1.072 1.303,-2.008 2.008,-2.87c1.38,-1.75 3.154,-2.963 4.809,-3.836c0.414,-0.22 0.825,-0.415 1.232,-0.59c0.424,-0.158 0.865,-0.277 1.285,-0.387c0.846,-0.216 1.655,-0.351 2.418,-0.428c1.495,-0.199 2.926,0.036 4.074,0.33c2.293,0.583 3.559,1.446 3.559,1.446Z" style="fill:#4e7636;fill-rule:nonzero;"/><path d="M289.546,6.008c0,0 -0.028,0.531 -0.074,1.439c-0.06,0.875 -0.148,2.113 -0.251,3.585c-0.221,2.919 -0.407,6.523 -0.995,9.924c-0.607,3.438 -1.702,6.728 -4.376,9.94c-1.336,1.577 -3.069,3.14 -5.321,4.519c-2.246,1.366 -5.016,2.571 -8.327,3.141c-1.139,-8.487 -0.962,-14.852 0.606,-20.148c1.512,-5.235 4.32,-9.107 7.317,-11.269c3,-2.197 6.024,-2.622 8.112,-2.285c1.037,0.13 1.891,0.479 2.446,0.712c0.563,0.25 0.863,0.442 0.863,0.442Z" style="fill:#78be47;fill-rule:nonzero;"/><path d="M54.637,82.369c0,0 1.146,-1.429 3.326,-2.953c2.192,-1.588 5.43,-2.952 9.28,-2.833c0.941,0.066 1.92,0.216 2.918,0.472c0.497,0.128 1.005,0.275 1.507,0.461c0.484,0.213 0.973,0.456 1.46,0.726c0.978,0.542 1.955,1.201 2.905,1.989c0.914,0.837 1.785,1.834 2.611,2.947c3.24,4.489 5.437,11.66 4.172,20.866c-7.072,-0.52 -11.671,-1.25 -15.031,-2.89c-0.854,-0.376 -1.615,-0.824 -2.304,-1.341c-0.701,-0.488 -1.367,-0.958 -1.956,-1.539c-1.16,-1.205 -2.202,-2.355 -3.077,-3.753c-0.43,-0.703 -0.847,-1.387 -1.255,-2.054c-0.398,-0.676 -0.768,-1.374 -1.111,-2.075c-0.678,-1.448 -1.305,-2.72 -1.822,-3.888c-1.032,-2.343 -1.623,-4.135 -1.623,-4.135Z" style="fill:#4e7636;fill-rule:nonzero;"/><path d="M112.834,20.243c0,0 7.1,-0.357 12.461,3.033c1.344,0.854 2.582,1.953 3.589,3.385c0.506,0.718 0.95,1.51 1.329,2.419c0.415,0.972 0.757,2.043 1.012,3.217c1.011,4.692 0.595,11.089 -2.526,19.302c-6.988,-1.433 -11.336,-3.825 -14.032,-6.833c-0.673,-0.753 -1.242,-1.54 -1.723,-2.356c-0.476,-0.812 -0.936,-1.788 -1.275,-2.703c-0.699,-1.865 -1.08,-3.777 -1.236,-5.631c-0.63,-7.446 2.401,-13.831 2.401,-13.833Z" style="fill:#578a3d;fill-rule:nonzero;"/><path d="M85.907,36.133c0,0 1.667,0.723 3.812,2.007c2.108,1.294 4.836,3.062 6.965,5.536c2.165,2.502 3.802,5.757 3.939,10.547c0.098,4.734 -1.284,11.158 -5.841,18.692c-6.353,-3.433 -10.182,-7.008 -12.364,-11.093c-2.183,-4.065 -2.677,-8.486 -2.207,-12.47c0.203,-1.945 0.711,-3.863 1.271,-5.484c0.55,-1.619 1.252,-3.056 1.929,-4.214c1.333,-2.305 2.496,-3.521 2.496,-3.521Z" style="fill:#578a3d;fill-rule:nonzero;"/><path d="M36.161,94.91c0,0 0.403,0.281 1.056,0.789c0.664,0.508 1.526,1.235 2.577,2.095c2.12,1.743 4.824,3.895 7.284,6.289c2.486,2.432 4.637,5.186 6.104,9.391c1.373,4.175 2.268,9.941 0.956,17.726c-8.877,-2.165 -15.261,-5.509 -19.456,-9.793c-2.11,-2.102 -3.579,-4.466 -4.566,-6.769c-0.918,-2.358 -1.355,-4.673 -1.259,-6.843c0.129,-4.349 2.047,-7.778 3.872,-9.858c0.885,-1.054 1.821,-1.803 2.427,-2.298c0.624,-0.491 1.005,-0.729 1.005,-0.729Z" style="fill:#78be47;fill-rule:nonzero;"/><path d="M1.242,182.781c0,0 1.43,0.217 3.515,1.148c2.111,0.923 4.77,2.638 7.181,5.305c1.187,1.282 2.314,2.922 3.261,4.612c0.475,0.865 0.904,1.808 1.282,2.817c0.394,0.945 0.734,1.972 1.011,3.094c0.26,1.161 0.53,2.254 0.722,3.513c0.196,1.25 0.299,2.668 0.475,4.058c0.074,0.718 0.134,1.479 0.185,2.286c0.059,0.799 0.068,1.69 0.172,2.507c0.169,1.689 0.317,3.594 0.482,5.752c-1.57,-0.148 -3.118,-0.477 -4.614,-0.951c-0.77,-0.218 -1.45,-0.538 -2.103,-0.893c-0.663,-0.346 -1.308,-0.724 -1.934,-1.126c-0.621,-0.403 -1.248,-0.821 -1.808,-1.278c-0.532,-0.465 -1.047,-0.949 -1.538,-1.445c-0.96,-0.992 -1.948,-2.043 -2.643,-3.118c-0.73,-1.073 -1.38,-2.172 -1.951,-3.273c-0.574,-1.104 -0.965,-2.17 -1.347,-3.249c-0.766,-2.175 -1.151,-4.194 -1.378,-6.134c-0.445,-3.828 -0.101,-7.195 0.227,-9.615c0.351,-2.443 0.803,-4.01 0.803,-4.01Z" style="fill:#4e7636;fill-rule:nonzero;"/><path d="M5.496,137.258c0,0 1.535,0.551 3.512,1.452c1.914,0.939 4.515,1.998 6.656,3.553c1.184,0.779 2.073,1.711 3.085,2.925c0.475,0.607 0.899,1.287 1.27,2.061c0.431,0.779 0.809,1.647 1.124,2.627c0.296,0.975 0.61,2.079 0.852,3.306c0.242,1.228 0.392,2.57 0.528,4.081c0.235,2.984 0.185,6.584 -0.367,10.7c-6.267,-0.443 -10.691,-2.316 -13.864,-5.466c-0.787,-0.801 -1.49,-1.651 -2.113,-2.526c-0.62,-0.882 -1.14,-1.906 -1.594,-2.872c-0.932,-1.899 -1.448,-4.089 -1.743,-6.066c-0.075,-0.498 -0.134,-0.987 -0.18,-1.466c-0.026,-0.502 -0.033,-1.003 -0.03,-1.485c0.006,-0.966 0.06,-1.88 0.15,-2.734c0.138,-1.676 0.576,-3.213 1,-4.425c0.851,-2.422 1.714,-3.665 1.714,-3.665Z" style="fill:#4e7636;fill-rule:nonzero;"/><path d="M424.874,190.046c0,0 1.158,1.206 2.347,3.239c1.206,2.032 2.367,4.906 2.265,8.243c-0.124,1.668 -0.39,3.448 -1.39,5.253c-0.467,0.901 -1.043,1.807 -1.737,2.701c-0.775,0.888 -1.689,1.763 -2.72,2.6c-0.529,0.416 -1.044,0.831 -1.674,1.219c-0.639,0.386 -1.312,0.758 -2.015,1.111c-1.44,0.695 -2.86,1.374 -4.706,1.824c-1.799,0.458 -3.617,0.858 -5.658,0.991c-2.088,0.099 -4.232,0.024 -6.35,-0.261c0.286,-1.535 0.554,-2.964 0.806,-4.31c0.248,-1.254 0.35,-2.538 0.594,-3.577c0.254,-1.024 0.428,-2.076 0.689,-3.005c0.254,-0.943 0.633,-1.706 0.946,-2.566c0.343,-0.824 0.758,-1.569 1.238,-2.25c0.469,-0.696 0.94,-1.407 1.501,-2.025c1.136,-1.22 2.362,-2.387 3.725,-3.363c2.687,-1.986 5.721,-3.451 8.068,-4.426c2.355,-0.966 4.071,-1.398 4.071,-1.398Z" style="fill:#578a3d;fill-rule:nonzero;"/><path d="M425.494,129.774c0,0 16.276,25.427 -12.205,40.101c-11.226,-30.988 12.205,-40.101 12.205,-40.101Z" style="fill:#578a3d;fill-rule:nonzero;"/><path d="M452.461,208.427c0,0 0.249,1.636 0.089,4.33c-0.116,2.727 -0.837,6.403 -2.761,10.328c-0.51,0.947 -1.093,1.911 -1.75,2.873c-0.33,0.481 -0.676,0.962 -1.042,1.439c-0.38,0.463 -0.809,0.889 -1.243,1.327c-0.872,0.867 -1.824,1.711 -2.853,2.506c-1.065,0.744 -2.257,1.366 -3.492,1.95c-0.626,0.278 -1.246,0.578 -1.925,0.778c-0.685,0.186 -1.386,0.349 -2.099,0.484c-1.434,0.245 -2.876,0.51 -4.459,0.328c-1.566,-0.145 -3.126,-0.305 -4.734,-0.846c-1.614,-0.577 -3.221,-1.313 -4.772,-2.222c4.649,-5.49 7.815,-9.488 10.95,-12.392c0.759,-0.773 1.526,-1.441 2.301,-2.022c0.749,-0.64 1.477,-1.276 2.232,-1.792c1.542,-0.978 2.939,-2.046 4.424,-2.764c0.746,-0.351 1.437,-0.745 2.121,-1.097c0.686,-0.345 1.365,-0.648 2.025,-0.917c1.343,-0.503 2.502,-1.012 3.534,-1.358c2.055,-0.704 3.454,-0.933 3.454,-0.933Z" style="fill:#4e7636;fill-rule:nonzero;"/><path d="M288.116,367.024c0,0 -0.267,0.292 -0.82,0.737c-0.546,0.422 -1.407,1.085 -2.565,1.563c-1.148,0.452 -2.671,0.907 -4.398,0.859c-0.435,-0.005 -0.9,-0.01 -1.365,-0.058c-0.45,-0.068 -0.919,-0.157 -1.4,-0.267c-0.482,-0.112 -0.979,-0.246 -1.485,-0.407c-0.478,-0.186 -0.967,-0.397 -1.464,-0.633c-2.021,-0.933 -3.93,-2.449 -5.647,-4.409c-1.647,-1.974 -3.097,-4.407 -3.998,-7.194c-1.908,-5.615 -1.832,-12.43 0.568,-20.531c6.1,3.528 10.048,7.322 12.721,10.562c2.683,3.269 4.047,6.179 5.128,8.853c1.046,2.665 1.956,5.374 2.967,7.417c0.467,1.078 0.943,1.851 1.256,2.504c0.321,0.64 0.502,1.004 0.502,1.004Z" style="fill:#78be47;fill-rule:nonzero;"/><path d="M141.017,339.52c0,0 0.322,1.797 0.543,4.275c0.11,1.24 0.183,2.619 0.294,4.165c0.041,0.758 0.062,1.527 0.05,2.291c-0.005,0.383 -0.018,0.766 -0.041,1.146c0,0.4 -0.006,0.803 -0.023,1.201c-0.059,1.606 -0.371,3.104 -0.731,4.708c-0.198,0.788 -0.516,1.541 -0.845,2.324c-0.3,0.798 -0.692,1.588 -1.197,2.383c-1.861,3.282 -5.197,6.519 -10.291,12.258c-4.294,-5.588 -5.427,-12.349 -4.789,-17.769c0.398,-2.7 1.073,-5.196 2.166,-7.235c0.529,-1.029 1.037,-2.015 1.675,-2.854c0.638,-0.836 1.298,-1.596 1.961,-2.274c1.274,-1.39 2.781,-2.306 4.088,-3.019c0.664,-0.347 1.282,-0.646 1.894,-0.864c0.633,-0.201 1.225,-0.349 1.762,-0.461c2.153,-0.438 3.484,-0.275 3.484,-0.275Z" style="fill:#78be47;fill-rule:nonzero;"/><path d="M116.258,326.286c0,0 -0.021,1.887 -0.315,4.442c-0.322,2.517 -0.764,5.84 -1.696,8.742c-0.399,1.524 -1.094,2.817 -1.775,4.134c-0.367,0.636 -0.81,1.218 -1.333,1.76c-0.45,0.588 -0.991,1.123 -1.648,1.619c-0.699,0.471 -1.343,0.997 -2.165,1.484c-0.815,0.495 -1.829,0.945 -2.803,1.52c-0.998,0.563 -2.286,1.103 -3.559,1.813c-1.349,0.759 -2.804,1.578 -4.388,2.47c-0.779,-1.61 -1.387,-3.304 -1.841,-5.02c-0.252,-0.869 -0.373,-1.7 -0.458,-2.526c-0.089,-0.83 -0.145,-1.658 -0.167,-2.481c-0.016,-0.817 -0.026,-1.649 0.042,-2.427c0.091,-0.763 0.21,-1.513 0.352,-2.245c0.31,-1.44 0.619,-2.939 1.186,-4.128c0.533,-1.228 1.137,-2.374 1.783,-3.423c0.647,-1.051 1.428,-1.859 2.178,-2.659c1.493,-1.62 3.193,-2.595 4.79,-3.324c1.575,-0.782 3.211,-0.969 4.616,-1.118c1.408,-0.142 2.708,0.029 3.782,0.251c2.146,0.44 3.419,1.116 3.419,1.116Z" style="fill:#4e7636;fill-rule:nonzero;"/><path d="M88.986,305.863c0,0 -0.044,1.862 -0.283,4.337c-0.137,1.205 -0.293,2.6 -0.462,4.097c-0.091,0.739 -0.201,1.478 -0.338,2.201c-0.15,0.716 -0.301,1.448 -0.456,2.198c-0.329,1.494 -0.862,2.794 -1.505,4.187c-0.334,0.68 -0.774,1.27 -1.238,1.915c-0.452,0.659 -0.995,1.276 -1.647,1.864c-2.518,2.463 -6.54,4.652 -13.074,7.645c-2.606,-6.79 -2.389,-13.126 -0.737,-17.964c0.903,-2.385 2.014,-4.49 3.464,-6.094c0.709,-0.811 1.392,-1.572 2.171,-2.179c0.785,-0.602 1.574,-1.117 2.349,-1.554c1.507,-0.92 3.161,-1.313 4.563,-1.565c0.716,-0.114 1.37,-0.2 2.011,-0.194c0.65,0.023 1.249,0.079 1.788,0.157c2.159,0.32 3.394,0.949 3.394,0.949Z" style="fill:#578a3d;fill-rule:nonzero;"/><path d="M49.82,284.509c0,0 0.516,2.263 0.998,5.258c0.423,2.961 1.074,6.759 1.151,9.771c0.242,3.146 -0.113,5.248 -1.916,6.723c-0.246,0.197 -0.573,0.385 -0.875,0.586c-0.27,0.203 -0.587,0.411 -0.957,0.634c-0.719,0.449 -1.762,0.937 -2.698,1.626c-0.971,0.678 -2.319,1.496 -3.598,2.598c-1.268,1.099 -2.747,2.446 -4.403,4.157c-1.611,-1 -3.061,-2.261 -4.324,-3.681c-1.305,-1.415 -2.067,-3.038 -2.836,-4.718c-0.345,-0.839 -0.713,-1.712 -0.908,-2.566c-0.192,-0.851 -0.339,-1.712 -0.446,-2.573c-0.193,-1.714 -0.305,-3.481 -0.033,-5.004c0.217,-1.563 0.568,-3.064 1.012,-4.456c0.52,-1.295 1.147,-2.469 1.825,-3.54c0.339,-0.536 0.69,-1.042 1.053,-1.518c0.381,-0.442 0.785,-0.824 1.188,-1.196c0.808,-0.735 1.641,-1.36 2.473,-1.884c3.417,-1.908 6.792,-2.01 9.275,-1.489c2.471,0.463 4.019,1.272 4.019,1.272Z" style="fill:#578a3d;fill-rule:nonzero;"/><path d="M191.22,340.456c0,0 0.685,1.795 1.33,4.472c0.605,2.659 1.351,6.242 1.386,9.908c0.035,0.932 0.02,1.871 -0.061,2.81c-0.04,0.471 -0.1,0.939 -0.176,1.409c-0.049,0.481 -0.113,0.961 -0.198,1.442c-0.171,0.959 -0.425,1.92 -0.78,2.887c-0.305,0.977 -0.673,1.967 -1.179,2.969c-1.912,4.073 -5.384,8.234 -10.862,14.649c-4.663,-6.202 -6.121,-13.34 -5.769,-19.211c0.112,-1.469 0.31,-2.881 0.577,-4.228c0.294,-1.329 0.718,-2.559 1.155,-3.73c0.843,-2.367 2.095,-4.293 3.317,-5.953c1.205,-1.674 2.66,-2.901 3.929,-3.935c1.268,-1.034 2.567,-1.725 3.664,-2.236c2.194,-1.015 3.667,-1.253 3.667,-1.253Z" style="fill:#4e7636;fill-rule:nonzero;"/><path d="M295.818,343.081c0,0 0.37,0.168 1.005,0.461c0.636,0.288 1.464,0.713 2.467,1.124c2.035,0.863 4.524,1.488 6.73,2.106c2.26,0.652 4.228,1.635 6.639,4.404c2.365,2.79 5.195,7.324 8.778,14.789c-5.701,3.787 -11.262,4.434 -15.934,2.727c-2.333,-0.791 -4.425,-2.284 -6.165,-3.999c-1.726,-1.824 -3.106,-3.897 -4.009,-6.132c-0.464,-1.094 -0.826,-2.179 -1.055,-3.291c-0.252,-1.08 -0.422,-2.106 -0.457,-3.126c-0.157,-1.971 0.099,-3.717 0.392,-5.061c0.296,-1.346 0.782,-2.37 1.078,-3.021c0.318,-0.656 0.531,-0.981 0.531,-0.981Z" style="fill:#578a3d;fill-rule:nonzero;"/><path d="M328.409,336.343c0,0.001 6.926,-4.202 13.416,-3.488c3.233,0.244 6.333,1.912 8.491,5.64c1.09,1.873 1.942,4.465 2.558,7.709c0.626,3.209 1.013,7.259 1.2,12.4c-3.49,1.633 -6.668,2.435 -9.484,2.632c-2.821,0.188 -5.088,-0.323 -7.088,-1.16c-4.034,-1.694 -6.224,-5.017 -7.635,-8.528c-2.637,-7.06 -1.458,-15.205 -1.458,-15.205Z" style="fill:#578a3d;fill-rule:nonzero;"/><path d="M358.864,26.86c0,0 1.063,1.441 2.094,3.915c1.06,2.484 1.919,5.977 1.603,9.832c-0.336,3.815 -1.89,7.962 -5.519,11.182c-3.615,3.223 -9.238,5.568 -17.411,5.693c-1.738,-15.109 2.484,-21.559 7.734,-25.459c1.347,-0.948 2.642,-1.744 3.973,-2.391c1.343,-0.64 2.594,-1.162 3.687,-1.582c2.208,-0.828 3.839,-1.19 3.839,-1.19Z" style="fill:#578a3d;fill-rule:nonzero;"/><path d="M383.322,47.281c0,0 1.293,1.202 2.806,3.511c1.544,2.314 3.152,5.756 3.775,9.998c0.268,2.095 0.379,4.421 -0.04,6.77c-0.192,1.18 -0.466,2.387 -0.855,3.597c-0.425,1.193 -0.954,2.393 -1.602,3.579c-2.618,4.684 -7.425,9.255 -15.004,11.294c-1.864,-7.962 -2.52,-13.614 -2.001,-18.248c0.221,-2.32 0.756,-4.336 1.402,-6.181c0.71,-1.822 1.525,-3.456 2.479,-4.916c0.986,-1.457 1.946,-2.76 2.987,-3.901c1.05,-1.14 2.04,-2.125 2.915,-2.942c1.77,-1.635 3.138,-2.561 3.138,-2.561Z" style="fill:#78be47;fill-rule:nonzero;"/><path d="M407.262,81.4c0,0 1.472,1.258 3.323,3.56c1.851,2.317 4.117,5.656 5.57,10.234c1.416,4.542 2.107,10.572 -0.005,17.474c-1.043,3.392 -2.795,6.945 -5.478,9.981c-2.652,3.032 -6.182,5.502 -10.338,6.643c-1.008,-9.183 -2.283,-14.708 -2.432,-19.816c-0.195,-5.014 0.559,-9.641 1.857,-13.897c1.289,-4.224 3.12,-7.863 4.681,-10.345c1.561,-2.495 2.822,-3.834 2.822,-3.834Z" style="fill:#4e7636;fill-rule:nonzero;"/><path d="M447.17,145.289c0,-0.002 1.08,1.62 2.18,4.541c1.15,2.93 2.109,7.159 1.857,12.185c-0.097,1.238 -0.262,2.525 -0.513,3.842c-0.236,1.326 -0.592,2.665 -1.111,3.976c-0.497,1.324 -1.093,2.658 -1.795,3.978c-0.75,1.284 -1.644,2.529 -2.634,3.744c-4.017,4.783 -10.342,8.544 -18.821,8.811c0.567,-9.119 1.625,-15.492 3.341,-20.414c0.403,-1.247 0.868,-2.387 1.385,-3.437c0.493,-1.072 0.975,-2.098 1.542,-3.028c1.169,-1.831 2.279,-3.543 3.588,-4.982c2.482,-2.947 5.26,-5.186 7.323,-6.804c2.101,-1.588 3.658,-2.412 3.658,-2.412Z" style="fill:#78be47;fill-rule:nonzero;"/></g></svg>